<?xml version="1.0" encoding="UTF-8" standalone="no"?>
<svg width="279.4mm" height="215.9mm"
 viewBox="0 0 3300 2550"
 xmlns="http://www.w3.org/2000/svg" xmlns:xlink="http://www.w3.org/1999/xlink"  version="1.2" baseProfile="tiny">
<defs>
</defs>
<g fill="none" stroke="black" stroke-width="1" fill-rule="evenodd" stroke-linecap="square" stroke-linejoin="bevel" >

<g fill="#ffffff" fill-opacity="1" stroke="none" transform="matrix(1,0,0,1,0,0)"
font-family="Arial" font-size="12" font-weight="400" font-style="normal" 
>
<rect x="0" y="0" width="3300" height="2550"/>
</g>

<g fill="none" stroke="#000000" stroke-opacity="1" stroke-width="1" stroke-linecap="square" stroke-linejoin="bevel" transform="matrix(1,0,0,1,0,0)"
font-family="Arial" font-size="12" font-weight="400" font-style="normal" 
>
</g>

<g fill="#000000" fill-opacity="1" stroke="#000000" stroke-opacity="1" stroke-width="1" stroke-linecap="butt" stroke-linejoin="miter" stroke-miterlimit="2" transform="matrix(1,0,0,1,0,0)"
font-family="Arial" font-size="12" font-weight="400" font-style="normal" 
>
</g>

<g fill="#000000" fill-opacity="1" stroke="#000000" stroke-opacity="1" stroke-width="5" stroke-linecap="round" stroke-linejoin="bevel" transform="matrix(1,0,0,1,0,0)"
font-family="Arial" font-size="12" font-weight="400" font-style="normal" 
>
<polyline fill="none" vector-effect="none" points="1873,620.121 1216.29,447.045 " />
<polyline fill="none" vector-effect="none" points="1873,620.121 1438.08,2202.64 " />
<polyline fill="none" vector-effect="none" points="1878.91,620.121 1878.9,619.842 1878.88,619.564 1878.85,619.287 1878.8,619.012 1878.75,618.739 1878.67,618.469 1878.59,618.203 1878.49,617.942 1878.38,617.685 1878.26,617.434 1878.13,617.188 1877.99,616.949 1877.83,616.718 1877.66,616.494 1877.49,616.278 1877.3,616.07 1877.1,615.872 1876.9,615.683 1876.69,615.504 1876.46,615.335 1876.23,615.177 1876,615.03 1875.75,614.894 1875.5,614.77 1875.25,614.658 1874.99,614.558 1874.72,614.471 1874.45,614.396 1874.18,614.334 1873.91,614.285 1873.63,614.249 1873.35,614.226 1873.07,614.216 1872.79,614.219 1872.52,614.235 1872.24,614.265 1871.96,614.308 1871.69,614.363 1871.42,614.432 1871.15,614.513 1870.89,614.607 1870.63,614.713 1870.38,614.831 1870.13,614.961 1869.89,615.102 1869.66,615.255 1869.43,615.418 1869.21,615.592 1869,615.776 1868.8,615.97 1868.61,616.173 1868.43,616.385 1868.26,616.605 1868.1,616.833 1867.95,617.068 1867.81,617.31 1867.68,617.559 1867.57,617.813 1867.46,618.072 1867.37,618.336 1867.3,618.604 1867.23,618.875 1867.18,619.149 1867.14,619.425 1867.11,619.703 1867.1,619.981 1867.1,620.26 1867.11,620.539 1867.14,620.817 1867.18,621.093 1867.23,621.367 1867.3,621.638 1867.37,621.906 1867.46,622.17 1867.57,622.429 1867.68,622.683 1867.81,622.932 1867.95,623.174 1868.1,623.409 1868.26,623.637 1868.43,623.857 1868.61,624.069 1868.8,624.272 1869,624.466 1869.21,624.65 1869.43,624.824 1869.66,624.987 1869.89,625.14 1870.13,625.281 1870.38,625.411 1870.63,625.529 1870.89,625.635 1871.15,625.729 1871.42,625.81 1871.69,625.878 1871.96,625.934 1872.24,625.977 1872.52,626.006 1872.79,626.023 1873.07,626.026 1873.35,626.016 1873.63,625.993 1873.91,625.957 1874.18,625.908 1874.45,625.846 1874.72,625.771 1874.99,625.683 1875.25,625.583 1875.5,625.471 1875.75,625.347 1876,625.212 1876.23,625.065 1876.46,624.907 1876.69,624.738 1876.9,624.559 1877.1,624.37 1877.3,624.172 1877.49,623.964 1877.66,623.748 1877.83,623.524 1877.99,623.292 1878.13,623.053 1878.26,622.808 1878.38,622.557 1878.49,622.3 1878.59,622.038 1878.67,621.772 1878.75,621.503 1878.8,621.23 1878.85,620.955 1878.88,620.678 1878.9,620.4 1878.91,620.121 " />
</g>

<g fill="#000000" fill-opacity="1" stroke="#000000" stroke-opacity="1" stroke-width="2" stroke-linecap="round" stroke-linejoin="bevel" transform="matrix(1,0,0,1,0,0)"
font-family="Arial" font-size="12" font-weight="400" font-style="normal" 
>
<polyline fill="none" vector-effect="none" points="1438.08,433.092 1401.16,433.865 " />
<polyline fill="none" vector-effect="none" points="1387.66,434.148 1374.17,434.43 " />
<polyline fill="none" vector-effect="none" points="1360.67,434.851 1293.31,439.09 " />
<polyline fill="none" vector-effect="none" points="1279.87,440.363 1266.44,441.774 " />
<polyline fill="none" vector-effect="none" points="1253.02,443.185 1216.29,447.045 " />
<polyline fill="none" vector-effect="none" points="1216.29,447.045 1266.11,478.708 " />
<polyline fill="none" vector-effect="none" points="1277.5,485.95 1288.89,493.192 " />
<polyline fill="none" vector-effect="none" points="1300.29,500.434 1357.25,536.644 " />
<polyline fill="none" vector-effect="none" points="1368.65,543.885 1380.04,551.127 " />
<polyline fill="none" vector-effect="none" points="1391.43,558.369 1448.4,594.579 " />
<polyline fill="none" vector-effect="none" points="1459.79,601.821 1471.19,609.063 " />
<polyline fill="none" vector-effect="none" points="1482.58,616.304 1539.54,652.514 " />
<polyline fill="none" vector-effect="none" points="1550.94,659.756 1562.33,666.998 " />
<polyline fill="none" vector-effect="none" points="1573.72,674.24 1630.69,710.449 " />
<polyline fill="none" vector-effect="none" points="1642.08,717.691 1653.48,724.933 " />
<polyline fill="none" vector-effect="none" points="1664.87,732.175 1714.68,763.838 " />
<polyline fill="none" vector-effect="none" points="1896.48,534.705 1879.25,531.758 1861.77,532.253 1847.43,535.549 " />
<polyline fill="none" vector-effect="none" points="1834.95,540.58 1828.8,543.355 1823.31,547.284 " />
<polyline fill="none" vector-effect="none" points="1812.69,555.553 1802.65,566.299 1793.45,581.164 1787.35,597.546 " />
<polyline fill="none" vector-effect="none" points="1161.47,763.838 1181.57,792.052 1184.37,795.206 " />
<polyline fill="none" vector-effect="none" points="1193.32,805.312 1202.27,815.418 " />
<polyline fill="none" vector-effect="none" points="1211.98,824.778 1230.12,841.351 1258.02,861.885 1265.17,866.065 " />
<polyline fill="none" vector-effect="none" points="1276.83,872.874 1287.93,879.36 1288.52,879.624 " />
<polyline fill="none" vector-effect="none" points="1300.83,885.165 1319.52,893.581 1352.44,904.387 1364.52,906.981 " />
<polyline fill="none" vector-effect="none" points="1377.72,909.815 1386.31,911.659 1390.99,912.157 " />
<polyline fill="none" vector-effect="none" points="1404.42,913.582 1420.76,915.316 1455.4,915.316 1471.74,913.582 " />
<polyline fill="none" vector-effect="none" points="1485.16,912.157 1489.85,911.659 1498.44,909.815 " />
<polyline fill="none" vector-effect="none" points="1511.64,906.981 1523.72,904.387 1556.63,893.581 1575.33,885.165 " />
<polyline fill="none" vector-effect="none" points="1587.64,879.624 1588.22,879.36 1599.32,872.874 " />
<polyline fill="none" vector-effect="none" points="1610.98,866.065 1618.13,861.885 1646.04,841.351 1664.18,824.778 " />
<polyline fill="none" vector-effect="none" points="1673.89,815.418 1682.84,805.312 " />
<polyline fill="none" vector-effect="none" points="1691.79,795.206 1694.58,792.052 1714.68,763.838 " />
</g>

<g fill="#000000" fill-opacity="1" stroke="#000000" stroke-opacity="1" stroke-width="5" stroke-linecap="round" stroke-linejoin="bevel" transform="matrix(1,0,0,1,0,0)"
font-family="Arial" font-size="12" font-weight="400" font-style="normal" 
>
<polyline fill="none" vector-effect="none" points="1438.08,322.86 1398.71,323.273 1359.36,324.509 1320.05,326.57 1280.78,329.453 1241.59,333.158 1202.48,337.683 " />
</g>

<g fill="#000000" fill-opacity="1" stroke="#000000" stroke-opacity="1" stroke-width="2" stroke-linecap="round" stroke-linejoin="bevel" transform="matrix(1,0,0,1,0,0)"
font-family="Arial" font-size="12" font-weight="400" font-style="normal" 
>
<polyline fill="none" vector-effect="none" points="1714.68,763.838 1737.61,724.494 1748.62,701.729 " />
<polyline fill="none" vector-effect="none" points="1754.5,689.576 1757.44,683.5 1759.9,677.215 " />
<polyline fill="none" vector-effect="none" points="1764.83,664.645 1774.05,641.1 1787.35,597.546 " />
<polyline fill="none" vector-effect="none" points="1792.96,356.664 1727.16,345.448 " />
<polyline fill="none" vector-effect="none" points="1713.85,343.218 1700.45,341.513 " />
<polyline fill="none" vector-effect="none" points="1687.06,339.808 1636.06,333.315 1620.03,331.959 " />
<polyline fill="none" vector-effect="none" points="1606.58,330.821 1593.13,329.683 " />
<polyline fill="none" vector-effect="none" points="1579.68,328.545 1557.01,326.626 1512.3,324.738 " />
<polyline fill="none" vector-effect="none" points="1498.81,324.169 1485.32,323.599 " />
<polyline fill="none" vector-effect="none" points="1471.83,323.279 1404.33,323.279 " />
<polyline fill="none" vector-effect="none" points="1390.83,323.599 1377.35,324.169 " />
<polyline fill="none" vector-effect="none" points="1363.86,324.738 1319.15,326.626 1296.48,328.545 " />
<polyline fill="none" vector-effect="none" points="1283.03,329.683 1269.58,330.821 " />
<polyline fill="none" vector-effect="none" points="1256.12,331.959 1240.1,333.315 1189.09,339.808 " />
<polyline fill="none" vector-effect="none" points="1175.7,341.513 1162.31,343.218 " />
<polyline fill="none" vector-effect="none" points="1148.99,345.448 1083.19,356.664 " />
<polyline fill="none" vector-effect="none" points="1438.08,433.092 1438.08,398.226 " />
<polyline fill="none" vector-effect="none" points="1438.08,384.726 1438.08,371.226 " />
<polyline fill="none" vector-effect="none" points="1438.08,357.726 1438.08,322.86 " />
<polyline fill="none" vector-effect="none" points="1438.08,2202.64 1448.58,2148 " />
<polyline fill="none" vector-effect="none" points="1451.13,2134.75 1453.68,2121.49 " />
<polyline fill="none" vector-effect="none" points="1456.23,2108.23 1468.97,2041.94 " />
<polyline fill="none" vector-effect="none" points="1471.52,2028.69 1474.07,2015.43 " />
<polyline fill="none" vector-effect="none" points="1476.62,2002.17 1489.36,1935.89 " />
<polyline fill="none" vector-effect="none" points="1491.91,1922.63 1494.46,1909.37 " />
<polyline fill="none" vector-effect="none" points="1497.01,1896.11 1509.75,1829.83 " />
<polyline fill="none" vector-effect="none" points="1512.3,1816.57 1514.85,1803.31 " />
<polyline fill="none" vector-effect="none" points="1517.4,1790.06 1530.14,1723.77 " />
<polyline fill="none" vector-effect="none" points="1532.69,1710.51 1535.24,1697.26 " />
<polyline fill="none" vector-effect="none" points="1537.79,1684 1550.53,1617.71 " />
<polyline fill="none" vector-effect="none" points="1553.08,1604.46 1555.63,1591.2 " />
<polyline fill="none" vector-effect="none" points="1558.17,1577.94 1570.92,1511.66 " />
<polyline fill="none" vector-effect="none" points="1573.47,1498.4 1576.02,1485.14 " />
<polyline fill="none" vector-effect="none" points="1578.56,1471.88 1591.31,1405.6 " />
<polyline fill="none" vector-effect="none" points="1593.86,1392.34 1596.4,1379.08 " />
<polyline fill="none" vector-effect="none" points="1598.95,1365.83 1611.7,1299.54 " />
<polyline fill="none" vector-effect="none" points="1614.25,1286.28 1616.79,1273.02 " />
<polyline fill="none" vector-effect="none" points="1619.34,1259.77 1632.09,1193.48 " />
<polyline fill="none" vector-effect="none" points="1634.63,1180.22 1637.18,1166.97 " />
<polyline fill="none" vector-effect="none" points="1639.73,1153.71 1652.48,1087.42 " />
<polyline fill="none" vector-effect="none" points="1655.02,1074.17 1657.57,1060.91 " />
<polyline fill="none" vector-effect="none" points="1660.12,1047.65 1672.87,981.366 " />
<polyline fill="none" vector-effect="none" points="1675.41,968.109 1677.96,954.851 " />
<polyline fill="none" vector-effect="none" points="1680.51,941.594 1693.25,875.308 " />
<polyline fill="none" vector-effect="none" points="1695.8,862.051 1698.35,848.793 " />
<polyline fill="none" vector-effect="none" points="1700.9,835.536 1713.64,769.25 " />
<polyline fill="none" vector-effect="none" points="1716.19,755.993 1718.74,742.736 " />
<polyline fill="none" vector-effect="none" points="1721.29,729.478 1734.03,663.192 " />
<polyline fill="none" vector-effect="none" points="1736.58,649.935 1739.13,636.678 " />
<polyline fill="none" vector-effect="none" points="1741.68,623.42 1754.42,557.134 " />
<polyline fill="none" vector-effect="none" points="1756.97,543.877 1759.52,530.62 " />
<polyline fill="none" vector-effect="none" points="1762.07,517.363 1774.81,451.076 " />
<polyline fill="none" vector-effect="none" points="1777.36,437.819 1779.91,424.562 " />
<polyline fill="none" vector-effect="none" points="1782.46,411.305 1792.96,356.664 " />
<polyline fill="none" vector-effect="none" points="1438.08,433.092 1438.08,487.617 " />
<polyline fill="none" vector-effect="none" points="1438.08,501.117 1438.08,514.617 " />
<polyline fill="none" vector-effect="none" points="1438.08,528.117 1438.08,595.617 " />
<polyline fill="none" vector-effect="none" points="1438.08,609.117 1438.08,622.617 " />
<polyline fill="none" vector-effect="none" points="1438.08,636.117 1438.08,703.617 " />
<polyline fill="none" vector-effect="none" points="1438.08,717.117 1438.08,730.617 " />
<polyline fill="none" vector-effect="none" points="1438.08,744.117 1438.08,811.617 " />
<polyline fill="none" vector-effect="none" points="1438.08,825.117 1438.08,838.617 " />
<polyline fill="none" vector-effect="none" points="1438.08,852.117 1438.08,919.617 " />
<polyline fill="none" vector-effect="none" points="1438.08,933.117 1438.08,946.617 " />
<polyline fill="none" vector-effect="none" points="1438.08,960.117 1438.08,1027.62 " />
<polyline fill="none" vector-effect="none" points="1438.08,1041.12 1438.08,1054.62 " />
<polyline fill="none" vector-effect="none" points="1438.08,1068.12 1438.08,1135.62 " />
<polyline fill="none" vector-effect="none" points="1438.08,1149.12 1438.08,1162.62 " />
<polyline fill="none" vector-effect="none" points="1438.08,1176.12 1438.08,1243.62 " />
<polyline fill="none" vector-effect="none" points="1438.08,1257.12 1438.08,1270.62 " />
<polyline fill="none" vector-effect="none" points="1438.08,1284.12 1438.08,1351.62 " />
<polyline fill="none" vector-effect="none" points="1438.08,1365.12 1438.08,1378.62 " />
<polyline fill="none" vector-effect="none" points="1438.08,1392.12 1438.08,1459.62 " />
<polyline fill="none" vector-effect="none" points="1438.08,1473.12 1438.08,1486.62 " />
<polyline fill="none" vector-effect="none" points="1438.08,1500.12 1438.08,1567.62 " />
<polyline fill="none" vector-effect="none" points="1438.08,1581.12 1438.08,1594.62 " />
<polyline fill="none" vector-effect="none" points="1438.08,1608.12 1438.08,1675.62 " />
<polyline fill="none" vector-effect="none" points="1438.08,1689.12 1438.08,1702.62 " />
<polyline fill="none" vector-effect="none" points="1438.08,1716.12 1438.08,1783.62 " />
<polyline fill="none" vector-effect="none" points="1438.08,1797.12 1438.08,1810.62 " />
<polyline fill="none" vector-effect="none" points="1438.08,1824.12 1438.08,1891.62 " />
<polyline fill="none" vector-effect="none" points="1438.08,1905.12 1438.08,1918.62 " />
<polyline fill="none" vector-effect="none" points="1438.08,1932.12 1438.08,1999.62 " />
<polyline fill="none" vector-effect="none" points="1438.08,2013.12 1438.08,2026.62 " />
<polyline fill="none" vector-effect="none" points="1438.08,2040.12 1438.08,2107.62 " />
<polyline fill="none" vector-effect="none" points="1438.08,2121.12 1438.08,2134.62 " />
<polyline fill="none" vector-effect="none" points="1438.08,2148.12 1438.08,2202.64 " />
<polyline fill="none" vector-effect="none" points="1714.68,763.838 1673.26,756.89 " />
<polyline fill="none" vector-effect="none" points="1659.95,754.657 1646.63,752.424 " />
<polyline fill="none" vector-effect="none" points="1633.23,750.799 1577.01,744.093 1566.16,743.319 " />
<polyline fill="none" vector-effect="none" points="1552.69,742.358 1539.23,741.397 " />
<polyline fill="none" vector-effect="none" points="1525.76,740.437 1507.62,739.142 1458.32,737.972 " />
<polyline fill="none" vector-effect="none" points="1444.83,737.651 1438.08,737.491 1431.33,737.651 " />
<polyline fill="none" vector-effect="none" points="1417.83,737.972 1368.53,739.142 1350.39,740.437 " />
<polyline fill="none" vector-effect="none" points="1336.93,741.397 1323.46,742.358 " />
<polyline fill="none" vector-effect="none" points="1310,743.319 1299.15,744.093 1242.92,750.799 " />
<polyline fill="none" vector-effect="none" points="1229.52,752.424 1216.21,754.657 " />
<polyline fill="none" vector-effect="none" points="1202.89,756.89 1161.47,763.838 " />
<polyline fill="none" vector-effect="none" points="1438.08,2202.64 1427.57,2148 " />
<polyline fill="none" vector-effect="none" points="1425.02,2134.75 1422.48,2121.49 " />
<polyline fill="none" vector-effect="none" points="1419.93,2108.23 1407.18,2041.94 " />
<polyline fill="none" vector-effect="none" points="1404.63,2028.69 1402.09,2015.43 " />
<polyline fill="none" vector-effect="none" points="1399.54,2002.17 1386.79,1935.89 " />
<polyline fill="none" vector-effect="none" points="1384.25,1922.63 1381.7,1909.37 " />
<polyline fill="none" vector-effect="none" points="1379.15,1896.11 1366.4,1829.83 " />
<polyline fill="none" vector-effect="none" points="1363.86,1816.57 1361.31,1803.31 " />
<polyline fill="none" vector-effect="none" points="1358.76,1790.06 1346.02,1723.77 " />
<polyline fill="none" vector-effect="none" points="1343.47,1710.51 1340.92,1697.26 " />
<polyline fill="none" vector-effect="none" points="1338.37,1684 1325.63,1617.71 " />
<polyline fill="none" vector-effect="none" points="1323.08,1604.46 1320.53,1591.2 " />
<polyline fill="none" vector-effect="none" points="1317.98,1577.94 1305.24,1511.66 " />
<polyline fill="none" vector-effect="none" points="1302.69,1498.4 1300.14,1485.14 " />
<polyline fill="none" vector-effect="none" points="1297.59,1471.88 1284.85,1405.6 " />
<polyline fill="none" vector-effect="none" points="1282.3,1392.34 1279.75,1379.08 " />
<polyline fill="none" vector-effect="none" points="1277.2,1365.83 1264.46,1299.54 " />
<polyline fill="none" vector-effect="none" points="1261.91,1286.28 1259.36,1273.02 " />
<polyline fill="none" vector-effect="none" points="1256.81,1259.77 1244.07,1193.48 " />
<polyline fill="none" vector-effect="none" points="1241.52,1180.22 1238.97,1166.97 " />
<polyline fill="none" vector-effect="none" points="1236.42,1153.71 1223.68,1087.42 " />
<polyline fill="none" vector-effect="none" points="1221.13,1074.17 1218.58,1060.91 " />
<polyline fill="none" vector-effect="none" points="1216.03,1047.65 1203.29,981.366 " />
<polyline fill="none" vector-effect="none" points="1200.74,968.109 1198.19,954.851 " />
<polyline fill="none" vector-effect="none" points="1195.64,941.594 1182.9,875.308 " />
<polyline fill="none" vector-effect="none" points="1180.35,862.051 1177.8,848.793 " />
<polyline fill="none" vector-effect="none" points="1175.25,835.536 1162.51,769.25 " />
<polyline fill="none" vector-effect="none" points="1159.96,755.993 1157.41,742.736 " />
<polyline fill="none" vector-effect="none" points="1154.87,729.478 1142.12,663.192 " />
<polyline fill="none" vector-effect="none" points="1139.57,649.935 1137.02,636.678 " />
<polyline fill="none" vector-effect="none" points="1134.48,623.42 1121.73,557.134 " />
<polyline fill="none" vector-effect="none" points="1119.18,543.877 1116.64,530.62 " />
<polyline fill="none" vector-effect="none" points="1114.09,517.363 1101.34,451.076 " />
<polyline fill="none" vector-effect="none" points="1098.79,437.819 1096.25,424.562 " />
<polyline fill="none" vector-effect="none" points="1093.7,411.305 1083.19,356.664 " />
<polyline fill="none" vector-effect="none" points="1216.29,447.045 1211.92,412.454 " />
<polyline fill="none" vector-effect="none" points="1210.23,399.061 1208.54,385.667 " />
<polyline fill="none" vector-effect="none" points="1206.85,372.274 1202.48,337.683 " />
</g>

<g fill="#000000" fill-opacity="1" stroke="#000000" stroke-opacity="1" stroke-width="5" stroke-linecap="round" stroke-linejoin="bevel" transform="matrix(1,0,0,1,0,0)"
font-family="Arial" font-size="12" font-weight="400" font-style="normal" 
>
<polyline fill="none" vector-effect="none" points="1222.2,447.045 1222.19,446.766 1222.17,446.488 1222.14,446.211 1222.09,445.936 1222.04,445.663 1221.96,445.393 1221.88,445.127 1221.78,444.866 1221.67,444.609 1221.55,444.358 1221.42,444.112 1221.28,443.874 1221.12,443.642 1220.95,443.418 1220.78,443.202 1220.59,442.994 1220.4,442.796 1220.19,442.607 1219.98,442.428 1219.75,442.259 1219.52,442.101 1219.29,441.954 1219.04,441.818 1218.79,441.694 1218.54,441.582 1218.28,441.482 1218.01,441.395 1217.74,441.32 1217.47,441.258 1217.2,441.209 1216.92,441.173 1216.64,441.15 1216.36,441.14 1216.08,441.143 1215.81,441.16 1215.53,441.189 1215.25,441.232 1214.98,441.288 1214.71,441.356 1214.44,441.437 1214.18,441.531 1213.92,441.637 1213.67,441.755 1213.42,441.885 1213.18,442.026 1212.95,442.179 1212.72,442.342 1212.5,442.516 1212.29,442.7 1212.09,442.894 1211.9,443.097 1211.72,443.309 1211.55,443.529 1211.39,443.757 1211.24,443.992 1211.1,444.234 1210.97,444.483 1210.86,444.737 1210.76,444.996 1210.66,445.26 1210.59,445.528 1210.52,445.799 1210.47,446.073 1210.43,446.349 1210.4,446.627 1210.39,446.906 1210.39,447.184 1210.4,447.463 1210.43,447.741 1210.47,448.017 1210.52,448.291 1210.59,448.562 1210.66,448.83 1210.76,449.094 1210.86,449.353 1210.97,449.607 1211.1,449.856 1211.24,450.098 1211.39,450.333 1211.55,450.561 1211.72,450.781 1211.9,450.993 1212.09,451.196 1212.29,451.39 1212.5,451.574 1212.72,451.748 1212.95,451.911 1213.18,452.064 1213.42,452.205 1213.67,452.335 1213.92,452.453 1214.18,452.559 1214.44,452.653 1214.71,452.734 1214.98,452.802 1215.25,452.858 1215.53,452.901 1215.81,452.93 1216.08,452.947 1216.36,452.95 1216.64,452.94 1216.92,452.917 1217.2,452.881 1217.47,452.832 1217.74,452.77 1218.01,452.695 1218.28,452.607 1218.54,452.508 1218.79,452.396 1219.04,452.272 1219.29,452.136 1219.52,451.989 1219.75,451.831 1219.98,451.662 1220.19,451.483 1220.4,451.294 1220.59,451.096 1220.78,450.888 1220.95,450.672 1221.12,450.448 1221.28,450.216 1221.42,449.978 1221.55,449.732 1221.67,449.481 1221.78,449.224 1221.88,448.963 1221.96,448.697 1222.04,448.427 1222.09,448.154 1222.14,447.879 1222.17,447.602 1222.19,447.324 1222.2,447.045 " />
<polyline fill="none" vector-effect="none" points="1720.59,763.838 1720.58,763.559 1720.56,763.281 1720.53,763.004 1720.48,762.729 1720.43,762.456 1720.35,762.187 1720.27,761.921 1720.17,761.659 1720.06,761.402 1719.94,761.151 1719.81,760.906 1719.67,760.667 1719.51,760.435 1719.34,760.211 1719.17,759.995 1718.98,759.787 1718.79,759.589 1718.58,759.4 1718.37,759.221 1718.14,759.052 1717.91,758.894 1717.68,758.747 1717.43,758.612 1717.18,758.488 1716.93,758.376 1716.67,758.276 1716.4,758.188 1716.13,758.113 1715.86,758.051 1715.59,758.002 1715.31,757.966 1715.03,757.943 1714.75,757.933 1714.47,757.936 1714.2,757.953 1713.92,757.982 1713.64,758.025 1713.37,758.081 1713.1,758.149 1712.83,758.23 1712.57,758.324 1712.31,758.43 1712.06,758.548 1711.81,758.678 1711.57,758.819 1711.34,758.972 1711.11,759.135 1710.89,759.309 1710.68,759.493 1710.48,759.687 1710.29,759.89 1710.11,760.102 1709.94,760.322 1709.78,760.55 1709.63,760.785 1709.49,761.027 1709.36,761.276 1709.25,761.53 1709.15,761.789 1709.05,762.053 1708.98,762.321 1708.91,762.592 1708.86,762.866 1708.82,763.142 1708.79,763.42 1708.78,763.699 1708.78,763.978 1708.79,764.256 1708.82,764.534 1708.86,764.81 1708.91,765.084 1708.98,765.355 1709.05,765.623 1709.15,765.887 1709.25,766.146 1709.36,766.4 1709.49,766.649 1709.63,766.891 1709.78,767.126 1709.94,767.354 1710.11,767.574 1710.29,767.786 1710.48,767.989 1710.68,768.183 1710.89,768.367 1711.11,768.541 1711.34,768.704 1711.57,768.857 1711.81,768.998 1712.06,769.128 1712.31,769.246 1712.57,769.352 1712.83,769.446 1713.1,769.527 1713.37,769.596 1713.64,769.651 1713.92,769.694 1714.2,769.723 1714.47,769.74 1714.75,769.743 1715.03,769.733 1715.31,769.71 1715.59,769.674 1715.86,769.625 1716.13,769.563 1716.4,769.488 1716.67,769.401 1716.93,769.301 1717.18,769.189 1717.43,769.065 1717.68,768.929 1717.91,768.782 1718.14,768.624 1718.37,768.455 1718.58,768.276 1718.79,768.087 1718.98,767.889 1719.17,767.681 1719.34,767.465 1719.51,767.241 1719.67,767.01 1719.81,766.771 1719.94,766.525 1720.06,766.274 1720.17,766.017 1720.27,765.756 1720.35,765.49 1720.43,765.22 1720.48,764.947 1720.53,764.672 1720.56,764.395 1720.58,764.117 1720.59,763.838 " />
<polyline fill="none" vector-effect="none" points="1443.98,433.092 1443.98,432.813 1443.96,432.534 1443.92,432.257 1443.88,431.982 1443.82,431.71 1443.75,431.44 1443.66,431.174 1443.57,430.912 1443.46,430.656 1443.34,430.404 1443.2,430.159 1443.06,429.92 1442.9,429.688 1442.74,429.464 1442.56,429.248 1442.37,429.041 1442.18,428.842 1441.97,428.653 1441.76,428.474 1441.54,428.306 1441.31,428.148 1441.07,428.001 1440.83,427.865 1440.58,427.741 1440.32,427.629 1440.06,427.529 1439.8,427.442 1439.53,427.367 1439.26,427.305 1438.98,427.256 1438.7,427.219 1438.43,427.196 1438.15,427.186 1437.87,427.19 1437.59,427.206 1437.31,427.236 1437.04,427.278 1436.76,427.334 1436.49,427.403 1436.23,427.484 1435.96,427.577 1435.71,427.683 1435.45,427.801 1435.21,427.931 1434.97,428.073 1434.73,428.225 1434.51,428.389 1434.29,428.563 1434.08,428.747 1433.88,428.94 1433.69,429.143 1433.5,429.355 1433.33,429.575 1433.17,429.803 1433.02,430.039 1432.88,430.281 1432.76,430.529 1432.64,430.783 1432.54,431.043 1432.45,431.306 1432.37,431.574 1432.31,431.846 1432.25,432.12 1432.21,432.396 1432.19,432.673 1432.17,432.952 1432.17,433.231 1432.19,433.51 1432.21,433.787 1432.25,434.064 1432.31,434.338 1432.37,434.609 1432.45,434.877 1432.54,435.14 1432.64,435.4 1432.76,435.654 1432.88,435.902 1433.02,436.144 1433.17,436.38 1433.33,436.608 1433.5,436.828 1433.69,437.04 1433.88,437.243 1434.08,437.436 1434.29,437.62 1434.51,437.794 1434.73,437.958 1434.97,438.11 1435.21,438.252 1435.45,438.382 1435.71,438.5 1435.96,438.606 1436.23,438.699 1436.49,438.781 1436.76,438.849 1437.04,438.905 1437.31,438.947 1437.59,438.977 1437.87,438.993 1438.15,438.997 1438.43,438.987 1438.7,438.964 1438.98,438.928 1439.26,438.878 1439.53,438.816 1439.8,438.741 1440.06,438.654 1440.32,438.554 1440.58,438.442 1440.83,438.318 1441.07,438.182 1441.31,438.035 1441.54,437.877 1441.76,437.709 1441.97,437.53 1442.18,437.341 1442.37,437.142 1442.56,436.935 1442.74,436.719 1442.9,436.495 1443.06,436.263 1443.2,436.024 1443.34,435.779 1443.46,435.527 1443.57,435.271 1443.66,435.009 1443.75,434.743 1443.82,434.474 1443.88,434.201 1443.92,433.926 1443.96,433.649 1443.98,433.37 1443.98,433.092 " />
<polyline fill="none" vector-effect="none" points="1222.2,447.045 1222.19,446.766 1222.17,446.488 1222.14,446.211 1222.09,445.936 1222.04,445.663 1221.96,445.393 1221.88,445.127 1221.78,444.866 1221.67,444.609 1221.55,444.358 1221.42,444.112 1221.28,443.874 1221.12,443.642 1220.95,443.418 1220.78,443.202 1220.59,442.994 1220.4,442.796 1220.19,442.607 1219.98,442.428 1219.75,442.259 1219.52,442.101 1219.29,441.954 1219.04,441.818 1218.79,441.694 1218.54,441.582 1218.28,441.482 1218.01,441.395 1217.74,441.32 1217.47,441.258 1217.2,441.209 1216.92,441.173 1216.64,441.15 1216.36,441.14 1216.08,441.143 1215.81,441.16 1215.53,441.189 1215.25,441.232 1214.98,441.288 1214.71,441.356 1214.44,441.437 1214.18,441.531 1213.92,441.637 1213.67,441.755 1213.42,441.885 1213.18,442.026 1212.95,442.179 1212.72,442.342 1212.5,442.516 1212.29,442.7 1212.09,442.894 1211.9,443.097 1211.72,443.309 1211.55,443.529 1211.39,443.757 1211.24,443.992 1211.1,444.234 1210.97,444.483 1210.86,444.737 1210.76,444.996 1210.66,445.26 1210.59,445.528 1210.52,445.799 1210.47,446.073 1210.43,446.349 1210.4,446.627 1210.39,446.906 1210.39,447.184 1210.4,447.463 1210.43,447.741 1210.47,448.017 1210.52,448.291 1210.59,448.562 1210.66,448.83 1210.76,449.094 1210.86,449.353 1210.97,449.607 1211.1,449.856 1211.24,450.098 1211.39,450.333 1211.55,450.561 1211.72,450.781 1211.9,450.993 1212.09,451.196 1212.29,451.39 1212.5,451.574 1212.72,451.748 1212.95,451.911 1213.18,452.064 1213.42,452.205 1213.67,452.335 1213.92,452.453 1214.18,452.559 1214.44,452.653 1214.71,452.734 1214.98,452.802 1215.25,452.858 1215.53,452.901 1215.81,452.93 1216.08,452.947 1216.36,452.95 1216.64,452.94 1216.92,452.917 1217.2,452.881 1217.47,452.832 1217.74,452.77 1218.01,452.695 1218.28,452.607 1218.54,452.508 1218.79,452.396 1219.04,452.272 1219.29,452.136 1219.52,451.989 1219.75,451.831 1219.98,451.662 1220.19,451.483 1220.4,451.294 1220.59,451.096 1220.78,450.888 1220.95,450.672 1221.12,450.448 1221.28,450.216 1221.42,449.978 1221.55,449.732 1221.67,449.481 1221.78,449.224 1221.88,448.963 1221.96,448.697 1222.04,448.427 1222.09,448.154 1222.14,447.879 1222.17,447.602 1222.19,447.324 1222.2,447.045 " />
<polyline fill="none" vector-effect="none" points="1167.38,763.838 1167.37,763.559 1167.35,763.281 1167.32,763.004 1167.27,762.729 1167.21,762.456 1167.14,762.187 1167.06,761.921 1166.96,761.659 1166.85,761.402 1166.73,761.151 1166.6,760.906 1166.45,760.667 1166.3,760.435 1166.13,760.211 1165.95,759.995 1165.77,759.787 1165.57,759.589 1165.37,759.4 1165.15,759.221 1164.93,759.052 1164.7,758.894 1164.46,758.747 1164.22,758.612 1163.97,758.488 1163.71,758.376 1163.45,758.276 1163.19,758.188 1162.92,758.113 1162.65,758.051 1162.37,758.002 1162.1,757.966 1161.82,757.943 1161.54,757.933 1161.26,757.936 1160.98,757.953 1160.71,757.982 1160.43,758.025 1160.16,758.081 1159.89,758.149 1159.62,758.23 1159.36,758.324 1159.1,758.43 1158.85,758.548 1158.6,758.678 1158.36,758.819 1158.13,758.972 1157.9,759.135 1157.68,759.309 1157.47,759.493 1157.27,759.687 1157.08,759.89 1156.9,760.102 1156.73,760.322 1156.57,760.55 1156.42,760.785 1156.28,761.027 1156.15,761.276 1156.04,761.53 1155.93,761.789 1155.84,762.053 1155.76,762.321 1155.7,762.592 1155.65,762.866 1155.61,763.142 1155.58,763.42 1155.57,763.699 1155.57,763.978 1155.58,764.256 1155.61,764.534 1155.65,764.81 1155.7,765.084 1155.76,765.355 1155.84,765.623 1155.93,765.887 1156.04,766.146 1156.15,766.4 1156.28,766.649 1156.42,766.891 1156.57,767.126 1156.73,767.354 1156.9,767.574 1157.08,767.786 1157.27,767.989 1157.47,768.183 1157.68,768.367 1157.9,768.541 1158.13,768.704 1158.36,768.857 1158.6,768.998 1158.85,769.128 1159.1,769.246 1159.36,769.352 1159.62,769.446 1159.89,769.527 1160.16,769.596 1160.43,769.651 1160.71,769.694 1160.98,769.723 1161.26,769.74 1161.54,769.743 1161.82,769.733 1162.1,769.71 1162.37,769.674 1162.65,769.625 1162.92,769.563 1163.19,769.488 1163.45,769.401 1163.71,769.301 1163.97,769.189 1164.22,769.065 1164.46,768.929 1164.7,768.782 1164.93,768.624 1165.15,768.455 1165.37,768.276 1165.57,768.087 1165.77,767.889 1165.95,767.681 1166.13,767.465 1166.3,767.241 1166.45,767.01 1166.6,766.771 1166.73,766.525 1166.85,766.274 1166.96,766.017 1167.06,765.756 1167.14,765.49 1167.21,765.22 1167.27,764.947 1167.32,764.672 1167.35,764.395 1167.37,764.117 1167.38,763.838 " />
<polyline fill="none" vector-effect="none" points="1443.98,588.018 1443.98,587.739 1443.96,587.461 1443.92,587.184 1443.88,586.909 1443.82,586.636 1443.75,586.366 1443.66,586.1 1443.57,585.839 1443.46,585.582 1443.34,585.331 1443.2,585.085 1443.06,584.847 1442.9,584.615 1442.74,584.391 1442.56,584.175 1442.37,583.967 1442.18,583.769 1441.97,583.58 1441.76,583.401 1441.54,583.232 1441.31,583.074 1441.07,582.927 1440.83,582.791 1440.58,582.667 1440.32,582.555 1440.06,582.455 1439.8,582.368 1439.53,582.293 1439.26,582.231 1438.98,582.182 1438.7,582.146 1438.43,582.123 1438.15,582.113 1437.87,582.116 1437.59,582.133 1437.31,582.162 1437.04,582.205 1436.76,582.26 1436.49,582.329 1436.23,582.41 1435.96,582.504 1435.71,582.61 1435.45,582.728 1435.21,582.858 1434.97,582.999 1434.73,583.152 1434.51,583.315 1434.29,583.489 1434.08,583.673 1433.88,583.867 1433.69,584.07 1433.5,584.282 1433.33,584.502 1433.17,584.73 1433.02,584.965 1432.88,585.207 1432.76,585.456 1432.64,585.71 1432.54,585.969 1432.45,586.233 1432.37,586.501 1432.31,586.772 1432.25,587.046 1432.21,587.322 1432.19,587.6 1432.17,587.878 1432.17,588.157 1432.19,588.436 1432.21,588.714 1432.25,588.99 1432.31,589.264 1432.37,589.535 1432.45,589.803 1432.54,590.067 1432.64,590.326 1432.76,590.58 1432.88,590.829 1433.02,591.071 1433.17,591.306 1433.33,591.534 1433.5,591.754 1433.69,591.966 1433.88,592.169 1434.08,592.363 1434.29,592.547 1434.51,592.721 1434.73,592.884 1434.97,593.037 1435.21,593.178 1435.45,593.308 1435.71,593.426 1435.96,593.532 1436.23,593.626 1436.49,593.707 1436.76,593.775 1437.04,593.831 1437.31,593.874 1437.59,593.903 1437.87,593.92 1438.15,593.923 1438.43,593.913 1438.7,593.89 1438.98,593.854 1439.26,593.805 1439.53,593.743 1439.8,593.668 1440.06,593.58 1440.32,593.481 1440.58,593.369 1440.83,593.245 1441.07,593.109 1441.31,592.962 1441.54,592.804 1441.76,592.635 1441.97,592.456 1442.18,592.267 1442.37,592.069 1442.56,591.861 1442.74,591.645 1442.9,591.421 1443.06,591.189 1443.2,590.951 1443.34,590.705 1443.46,590.454 1443.57,590.197 1443.66,589.935 1443.75,589.67 1443.82,589.4 1443.88,589.127 1443.92,588.852 1443.96,588.575 1443.98,588.297 1443.98,588.018 " />
<polyline fill="none" vector-effect="none" points="1443.98,915.774 1443.98,915.495 1443.96,915.217 1443.92,914.94 1443.88,914.665 1443.82,914.392 1443.75,914.122 1443.66,913.856 1443.57,913.595 1443.46,913.338 1443.34,913.087 1443.2,912.841 1443.06,912.602 1442.9,912.371 1442.74,912.147 1442.56,911.931 1442.37,911.723 1442.18,911.525 1441.97,911.336 1441.76,911.157 1441.54,910.988 1441.31,910.83 1441.07,910.683 1440.83,910.547 1440.58,910.423 1440.32,910.311 1440.06,910.211 1439.8,910.124 1439.53,910.049 1439.26,909.987 1438.98,909.938 1438.7,909.902 1438.43,909.879 1438.15,909.869 1437.87,909.872 1437.59,909.889 1437.31,909.918 1437.04,909.961 1436.76,910.016 1436.49,910.085 1436.23,910.166 1435.96,910.26 1435.71,910.366 1435.45,910.484 1435.21,910.614 1434.97,910.755 1434.73,910.908 1434.51,911.071 1434.29,911.245 1434.08,911.429 1433.88,911.623 1433.69,911.826 1433.5,912.038 1433.33,912.258 1433.17,912.486 1433.02,912.721 1432.88,912.963 1432.76,913.212 1432.64,913.466 1432.54,913.725 1432.45,913.989 1432.37,914.257 1432.31,914.528 1432.25,914.802 1432.21,915.078 1432.19,915.356 1432.17,915.634 1432.17,915.913 1432.19,916.192 1432.21,916.47 1432.25,916.746 1432.31,917.02 1432.37,917.291 1432.45,917.559 1432.54,917.823 1432.64,918.082 1432.76,918.336 1432.88,918.585 1433.02,918.827 1433.17,919.062 1433.33,919.29 1433.5,919.51 1433.69,919.722 1433.88,919.925 1434.08,920.119 1434.29,920.303 1434.51,920.477 1434.73,920.64 1434.97,920.793 1435.21,920.934 1435.45,921.064 1435.71,921.182 1435.96,921.288 1436.23,921.382 1436.49,921.463 1436.76,921.531 1437.04,921.587 1437.31,921.63 1437.59,921.659 1437.87,921.676 1438.15,921.679 1438.43,921.669 1438.7,921.646 1438.98,921.61 1439.26,921.561 1439.53,921.499 1439.8,921.424 1440.06,921.336 1440.32,921.236 1440.58,921.124 1440.83,921 1441.07,920.865 1441.31,920.718 1441.54,920.56 1441.76,920.391 1441.97,920.212 1442.18,920.023 1442.37,919.825 1442.56,919.617 1442.74,919.401 1442.9,919.177 1443.06,918.945 1443.2,918.706 1443.34,918.461 1443.46,918.21 1443.57,917.953 1443.66,917.691 1443.75,917.425 1443.82,917.156 1443.88,916.883 1443.92,916.608 1443.96,916.331 1443.98,916.053 1443.98,915.774 " />
</g>

<g fill="#000000" fill-opacity="1" stroke="none" transform="matrix(1,0,0,1,0,0)"
font-family="Arial" font-size="12" font-weight="400" font-style="normal" 
>
<path vector-effect="none" fill-rule="evenodd" d="M924.816,262.059 L924.816,297.911 L937.421,297.911 L940.198,297.746 L942.644,297.249 L944.784,296.397 L946.593,295.214 L948.027,293.736 L949.045,292.001 L949.67,289.984 L949.879,287.71 L949.756,286.03 L949.388,284.522 L948.775,283.167 L947.917,281.996 L946.801,281.009 L945.416,280.206 L943.76,279.58 L941.835,279.127 L941.835,278.882 L943.399,278.495 L944.753,277.925 L945.931,277.153 L946.912,276.209 L947.666,275.105 L948.211,273.854 L948.542,272.463 L948.653,270.936 L948.45,268.803 L947.843,266.963 L946.838,265.443 L945.44,264.217 L943.595,263.273 L941.247,262.598 L938.396,262.194 L935.042,262.059 L924.816,262.059 M929.328,281.089 L936.219,281.089 L938.285,281.187 L940.07,281.481 L941.596,281.965 L942.841,282.634 L943.797,283.516 L944.484,284.595 L944.907,285.877 L945.048,287.367 L944.913,288.954 L944.508,290.334 L943.865,291.48 L942.963,292.418 L941.774,293.148 L940.315,293.669 L938.58,293.982 L936.563,294.086 L929.328,294.086 L929.328,281.089 M929.328,277.312 L929.328,265.909 L935.263,265.909 L937.372,265.995 L939.187,266.252 L940.683,266.651 L941.884,267.209 L942.792,267.969 L943.454,268.925 L943.858,270.084 L943.993,271.451 L943.871,272.929 L943.503,274.173 L942.914,275.203 L942.08,275.963 L940.977,276.564 L939.579,276.993 L937.912,277.232 L935.95,277.312 L929.328,277.312"/>
</g>

<g fill="#000000" fill-opacity="1" stroke="#000000" stroke-opacity="1" stroke-width="1" stroke-linecap="round" stroke-linejoin="bevel" transform="matrix(1,0,0,1,0,0)"
font-family="Arial" font-size="12" font-weight="400" font-style="normal" 
>
</g>

<g fill="#000000" fill-opacity="1" stroke="none" transform="matrix(1,0,0,1,0,0)"
font-family="Arial" font-size="12" font-weight="400" font-style="normal" 
>
<path vector-effect="none" fill-rule="evenodd" d="M972.808,265.516 L974.761,265.639 L976.768,266.007 L978.831,266.62 L980.95,267.478 L982.764,263.653 L980.563,262.73 L978.179,262.071 L975.61,261.675 L972.857,261.544 L970.294,261.685 L967.903,262.108 L965.684,262.813 L963.636,263.8 L961.791,265.05 L960.179,266.546 L958.818,268.263 L957.677,270.225 L956.787,272.395 L956.151,274.737 L955.769,277.251 L955.642,279.936 L955.708,282.082 L955.905,284.105 L956.235,286.006 L956.696,287.783 L957.302,289.425 L958.039,290.941 L958.908,292.331 L959.909,293.595 L961.034,294.722 L962.275,295.698 L963.633,296.524 L965.108,297.2 L966.686,297.726 L968.382,298.102 L970.193,298.327 L972.121,298.402 L974.709,298.322 L976.977,298.083 L979.129,297.654 L981.367,296.955 L981.367,293.031 L979.035,293.654 L976.824,294.098 L974.732,294.365 L972.759,294.454 L969.957,294.221 L967.486,293.522 L966.389,292.996 L965.377,292.351 L964.452,291.586 L963.612,290.702 L962.196,288.617 L961.184,286.14 L960.595,283.265 L960.399,279.985 L960.602,276.803 L961.209,273.977 L962.251,271.506 L963.71,269.391 L964.571,268.484 L965.512,267.699 L966.533,267.037 L967.634,266.497 L968.812,266.068 L970.068,265.762 L971.399,265.578 L972.808,265.516"/>
</g>

<g fill="#000000" fill-opacity="1" stroke="#000000" stroke-opacity="1" stroke-width="1" stroke-linecap="round" stroke-linejoin="bevel" transform="matrix(1,0,0,1,0,0)"
font-family="Arial" font-size="12" font-weight="400" font-style="normal" 
>
</g>

<g fill="#000000" fill-opacity="1" stroke="#000000" stroke-opacity="1" stroke-width="3" stroke-linecap="round" stroke-linejoin="bevel" transform="matrix(1,0,0,1,0,0)"
font-family="Arial" font-size="12" font-weight="400" font-style="normal" 
>
</g>

<g fill="#000000" fill-opacity="1" stroke="none" transform="matrix(1,0,0,1,0,0)"
font-family="Arial" font-size="12" font-weight="400" font-style="normal" 
>
<path vector-effect="none" fill-rule="evenodd" d="M1186.5,401.121 L1216.29,447.045 L1173.21,413.268 L1186.5,401.121"/>
</g>

<g fill="#000000" fill-opacity="1" stroke="#000000" stroke-opacity="1" stroke-width="3" stroke-linecap="round" stroke-linejoin="bevel" transform="matrix(1,0,0,1,0,0)"
font-family="Arial" font-size="12" font-weight="400" font-style="normal" 
>
<polyline fill="none" vector-effect="none" points="1216.29,447.045 1063.52,279.973 1009.52,279.973 " />
</g>

<g fill="#000000" fill-opacity="1" stroke="#000000" stroke-opacity="1" stroke-width="1" stroke-linecap="round" stroke-linejoin="bevel" transform="matrix(1,0,0,1,0,0)"
font-family="Arial" font-size="12" font-weight="400" font-style="normal" 
>
</g>

<g fill="#000000" fill-opacity="1" stroke="none" transform="matrix(1,0,0,1,0,0)"
font-family="Arial" font-size="12" font-weight="400" font-style="normal" 
>
<path vector-effect="none" fill-rule="evenodd" d="M2100.76,531.536 L2102.71,531.658 L2104.72,532.026 L2106.78,532.639 L2108.9,533.498 L2110.71,529.672 L2108.51,528.749 L2106.13,528.09 L2103.56,527.695 L2100.8,527.563 L2098.24,527.704 L2095.85,528.127 L2093.63,528.832 L2091.58,529.819 L2089.74,531.07 L2088.13,532.566 L2086.77,534.282 L2085.62,536.244 L2084.73,538.415 L2084.1,540.756 L2083.72,543.27 L2083.59,545.955 L2083.66,548.101 L2083.85,550.124 L2084.18,552.025 L2084.64,553.803 L2085.25,555.444 L2085.99,556.96 L2086.86,558.35 L2087.86,559.615 L2088.98,560.741 L2090.22,561.718 L2091.58,562.544 L2093.06,563.22 L2094.63,563.745 L2096.33,564.121 L2098.14,564.346 L2100.07,564.421 L2102.66,564.342 L2104.92,564.103 L2107.08,563.673 L2109.31,562.974 L2109.31,559.051 L2106.98,559.673 L2104.77,560.118 L2102.68,560.384 L2100.71,560.473 L2097.9,560.24 L2095.43,559.541 L2094.34,559.015 L2093.33,558.37 L2092.4,557.605 L2091.56,556.721 L2090.14,554.637 L2089.13,552.16 L2088.54,549.284 L2088.35,546.004 L2088.55,542.823 L2089.16,539.996 L2090.2,537.526 L2091.66,535.41 L2092.52,534.503 L2093.46,533.718 L2094.48,533.056 L2095.58,532.517 L2096.76,532.088 L2098.02,531.781 L2099.35,531.597 L2100.76,531.536"/>
</g>

<g fill="#000000" fill-opacity="1" stroke="#000000" stroke-opacity="1" stroke-width="1" stroke-linecap="round" stroke-linejoin="bevel" transform="matrix(1,0,0,1,0,0)"
font-family="Arial" font-size="12" font-weight="400" font-style="normal" 
>
</g>

<g fill="#000000" fill-opacity="1" stroke="none" transform="matrix(1,0,0,1,0,0)"
font-family="Arial" font-size="12" font-weight="400" font-style="normal" 
>
<path vector-effect="none" fill-rule="evenodd" d="M2145.85,545.661 L2145.78,543.624 L2145.56,541.707 L2145.19,539.909 L2144.68,538.231 L2144.03,536.67 L2143.23,535.226 L2142.29,533.899 L2141.19,532.688 L2139.97,531.608 L2138.63,530.671 L2137.18,529.879 L2135.6,529.231 L2133.92,528.726 L2132.11,528.366 L2130.2,528.15 L2128.17,528.078 L2117.14,528.078 L2117.14,563.931 L2127.12,563.931 L2129.31,563.859 L2131.37,563.643 L2133.31,563.283 L2135.11,562.778 L2136.78,562.116 L2138.31,561.307 L2139.72,560.35 L2141,559.247 L2142.14,558.005 L2143.12,556.635 L2143.95,555.136 L2144.63,553.509 L2145.16,551.74 L2145.55,549.842 L2145.78,547.816 L2145.85,545.661 M2141.1,545.808 L2141.04,547.542 L2140.86,549.162 L2140.57,550.668 L2140.16,552.062 L2139.65,553.341 L2139.03,554.508 L2138.29,555.561 L2137.44,556.5 L2136.48,557.339 L2135.39,558.064 L2134.2,558.675 L2132.88,559.173 L2131.46,559.56 L2129.93,559.835 L2128.29,560.001 L2126.53,560.056 L2121.65,560.056 L2121.65,531.928 L2127.53,531.928 L2129.18,531.983 L2130.72,532.149 L2132.15,532.425 L2133.47,532.811 L2134.69,533.308 L2135.81,533.915 L2136.81,534.632 L2137.71,535.459 L2138.5,536.393 L2139.19,537.427 L2139.77,538.563 L2140.24,539.8 L2140.61,541.15 L2140.88,542.602 L2141.04,544.154 L2141.1,545.808"/>
</g>

<g fill="#000000" fill-opacity="1" stroke="#000000" stroke-opacity="1" stroke-width="3" stroke-linecap="round" stroke-linejoin="bevel" transform="matrix(1,0,0,1,0,0)"
font-family="Arial" font-size="12" font-weight="400" font-style="normal" 
>
</g>

<g fill="#000000" fill-opacity="1" stroke="none" transform="matrix(1,0,0,1,0,0)"
font-family="Arial" font-size="12" font-weight="400" font-style="normal" 
>
<path vector-effect="none" fill-rule="evenodd" d="M1924.33,601.078 L1873,620.121 L1915.38,585.461 L1924.33,601.078"/>
</g>

<g fill="#000000" fill-opacity="1" stroke="#000000" stroke-opacity="1" stroke-width="3" stroke-linecap="round" stroke-linejoin="bevel" transform="matrix(1,0,0,1,0,0)"
font-family="Arial" font-size="12" font-weight="400" font-style="normal" 
>
<polyline fill="none" vector-effect="none" points="1873,620.121 2002.34,545.992 2056.34,545.992 " />
</g>

<g fill="#000000" fill-opacity="1" stroke="#000000" stroke-opacity="1" stroke-width="2" stroke-linecap="round" stroke-linejoin="bevel" transform="matrix(1,0,0,1,0,0)"
font-family="Arial" font-size="12" font-weight="400" font-style="normal" 
>
<polyline fill="none" vector-effect="none" points="1877.78,601.99 1901.36,512.532 " />
<polyline fill="none" vector-effect="none" points="1221.07,428.914 1244.65,339.456 " />
<polyline fill="none" vector-effect="none" points="1843.03,521.977 1714.95,488.222 " />
<polyline fill="none" vector-effect="none" points="1290.75,376.425 1418.83,410.18 " />
</g>

<g fill="#000000" fill-opacity="1" stroke="#000000" stroke-opacity="1" stroke-width="3" stroke-linecap="round" stroke-linejoin="bevel" transform="matrix(1,0,0,1,0,0)"
font-family="Arial" font-size="12" font-weight="400" font-style="normal" 
>
</g>

<g fill="#000000" fill-opacity="1" stroke="none" transform="matrix(1,0,0,1,0,0)"
font-family="Arial" font-size="12" font-weight="400" font-style="normal" 
>
<path vector-effect="none" fill-rule="evenodd" d="M1845.32,513.274 L1895.24,535.739 L1840.73,530.68 L1845.32,513.274"/>
</g>

<g fill="#000000" fill-opacity="1" stroke="#000000" stroke-opacity="1" stroke-width="3" stroke-linecap="round" stroke-linejoin="bevel" transform="matrix(1,0,0,1,0,0)"
font-family="Arial" font-size="12" font-weight="400" font-style="normal" 
>
</g>

<g fill="#000000" fill-opacity="1" stroke="none" transform="matrix(1,0,0,1,0,0)"
font-family="Arial" font-size="12" font-weight="400" font-style="normal" 
>
<path vector-effect="none" fill-rule="evenodd" d="M1288.46,385.128 L1238.53,362.663 L1293.04,367.722 L1288.46,385.128"/>
</g>

<g fill="#000000" fill-opacity="1" stroke="#000000" stroke-opacity="1" stroke-width="3" stroke-linecap="round" stroke-linejoin="bevel" transform="matrix(1,0,0,1,0,0)"
font-family="Arial" font-size="12" font-weight="400" font-style="normal" 
>
</g>

<g fill="#000000" fill-opacity="1" stroke="none" transform="matrix(1,0,0,1,0,0)"
font-family="Arial" font-size="12" font-weight="400" font-style="normal" 
>
<path vector-effect="none" fill-rule="evenodd" d="M1450.34,422.034 L1457.48,422.034 L1466.16,436.846 L1471.43,436.846 L1461.6,420.783 L1463.27,420.096 L1464.71,419.262 L1465.95,418.282 L1466.97,417.154 L1467.76,415.878 L1468.32,414.456 L1468.67,412.886 L1468.78,411.17 L1468.58,408.785 L1467.97,406.731 L1466.97,404.978 L1465.57,403.543 L1463.76,402.427 L1461.5,401.63 L1458.83,401.152 L1455.71,400.993 L1445.83,400.993 L1445.83,436.846 L1450.34,436.846 L1450.34,422.034 M1450.34,418.208 L1450.34,404.892 L1455.47,404.892 L1457.59,404.99 L1459.39,405.284 L1460.88,405.775 L1462.06,406.461 L1462.95,407.357 L1463.58,408.472 L1463.97,409.815 L1464.1,411.391 L1463.97,412.978 L1463.58,414.358 L1462.96,415.529 L1462.09,416.491 L1460.94,417.245 L1459.49,417.791 L1457.75,418.104 L1455.71,418.208 L1450.34,418.208"/>
</g>

<g fill="#000000" fill-opacity="1" stroke="none" transform="matrix(1,0,0,1,0,0)"
font-family="Arial" font-size="12" font-weight="400" font-style="normal" 
>
<path vector-effect="none" fill-rule="evenodd" d="M1477.07,400.993 L1477.07,436.846 L1489.68,436.846 L1492.45,436.68 L1494.9,436.183 L1497.04,435.331 L1498.85,434.148 L1500.28,432.671 L1501.3,430.936 L1501.93,428.918 L1502.13,426.644 L1502.01,424.964 L1501.64,423.456 L1501.03,422.101 L1500.17,420.93 L1499.06,419.943 L1497.67,419.14 L1496.02,418.515 L1494.09,418.061 L1494.09,417.816 L1495.65,417.429 L1497.01,416.859 L1498.19,416.087 L1499.17,415.143 L1499.92,414.039 L1500.47,412.788 L1500.8,411.397 L1500.91,409.87 L1500.71,407.737 L1500.1,405.897 L1499.09,404.377 L1497.7,403.151 L1495.85,402.207 L1493.5,401.532 L1490.65,401.128 L1487.3,400.993 L1477.07,400.993 M1481.58,420.023 L1488.47,420.023 L1490.54,420.121 L1492.32,420.415 L1493.85,420.899 L1495.1,421.568 L1496.05,422.451 L1496.74,423.53 L1497.16,424.811 L1497.3,426.301 L1497.17,427.889 L1496.76,429.268 L1496.12,430.414 L1495.22,431.352 L1494.03,432.082 L1492.57,432.603 L1490.84,432.916 L1488.82,433.02 L1481.58,433.02 L1481.58,420.023 M1481.58,416.246 L1481.58,404.843 L1487.52,404.843 L1489.63,404.929 L1491.44,405.186 L1492.94,405.585 L1494.14,406.143 L1495.05,406.903 L1495.71,407.859 L1496.11,409.018 L1496.25,410.385 L1496.13,411.863 L1495.76,413.107 L1495.17,414.137 L1494.34,414.897 L1493.23,415.498 L1491.83,415.927 L1490.17,416.166 L1488.21,416.246 L1481.58,416.246"/>
</g>

<g fill="#000000" fill-opacity="1" stroke="#000000" stroke-opacity="1" stroke-width="1" stroke-linecap="round" stroke-linejoin="bevel" transform="matrix(1,0,0,1,0,0)"
font-family="Arial" font-size="12" font-weight="400" font-style="normal" 
>
</g>

<g fill="#000000" fill-opacity="1" stroke="none" transform="matrix(1,0,0,1,0,0)"
font-family="Arial" font-size="12" font-weight="400" font-style="normal" 
>
<path vector-effect="none" fill-rule="evenodd" d="M1525.06,404.451 L1527.02,404.573 L1529.02,404.941 L1531.09,405.554 L1533.21,406.412 L1535.02,402.587 L1532.82,401.664 L1530.43,401.005 L1527.87,400.61 L1525.11,400.478 L1522.55,400.619 L1520.16,401.042 L1517.94,401.747 L1515.89,402.734 L1514.05,403.985 L1512.43,405.48 L1511.07,407.197 L1509.93,409.159 L1509.04,411.329 L1508.41,413.671 L1508.02,416.185 L1507.9,418.87 L1507.96,421.016 L1508.16,423.039 L1508.49,424.94 L1508.95,426.718 L1509.56,428.359 L1510.29,429.875 L1511.16,431.265 L1512.16,432.53 L1513.29,433.656 L1514.53,434.632 L1515.89,435.459 L1517.36,436.134 L1518.94,436.66 L1520.64,437.036 L1522.45,437.261 L1524.38,437.336 L1526.96,437.256 L1529.23,437.017 L1531.38,436.588 L1533.62,435.889 L1533.62,431.965 L1531.29,432.588 L1529.08,433.032 L1526.99,433.299 L1525.01,433.388 L1522.21,433.155 L1519.74,432.456 L1518.64,431.93 L1517.63,431.285 L1516.71,430.52 L1515.87,429.636 L1514.45,427.551 L1513.44,425.074 L1512.85,422.199 L1512.65,418.919 L1512.86,415.737 L1513.46,412.911 L1514.51,410.44 L1515.97,408.325 L1516.83,407.418 L1517.77,406.633 L1518.79,405.971 L1519.89,405.431 L1521.07,405.002 L1522.32,404.696 L1523.65,404.512 L1525.06,404.451"/>
</g>

<g fill="#000000" fill-opacity="1" stroke="#000000" stroke-opacity="1" stroke-width="1" stroke-linecap="round" stroke-linejoin="bevel" transform="matrix(1,0,0,1,0,0)"
font-family="Arial" font-size="12" font-weight="400" font-style="normal" 
>
</g>

<g fill="#000000" fill-opacity="1" stroke="none" transform="matrix(1,0,0,1,0,0)"
font-family="Arial" font-size="12" font-weight="400" font-style="normal" 
>
<path vector-effect="none" fill-rule="evenodd" d="M1565.72,417.35 L1565.72,406.952 L1562.12,406.952 L1562.12,417.35 L1552.11,417.35 L1552.11,420.93 L1562.12,420.93 L1562.12,431.279 L1565.72,431.279 L1565.72,420.93 L1575.73,420.93 L1575.73,417.35 L1565.72,417.35"/>
</g>

<g fill="#000000" fill-opacity="1" stroke="#000000" stroke-opacity="1" stroke-width="1" stroke-linecap="round" stroke-linejoin="bevel" transform="matrix(1,0,0,1,0,0)"
font-family="Arial" font-size="12" font-weight="400" font-style="normal" 
>
</g>

<g fill="#000000" fill-opacity="1" stroke="none" transform="matrix(1,0,0,1,0,0)"
font-family="Arial" font-size="12" font-weight="400" font-style="normal" 
>
<path vector-effect="none" fill-rule="evenodd" d="M1600.77,422.034 L1607.9,422.034 L1616.58,436.846 L1621.86,436.846 L1612.02,420.783 L1613.7,420.096 L1615.14,419.262 L1616.38,418.282 L1617.39,417.154 L1618.18,415.878 L1618.74,414.456 L1619.09,412.886 L1619.21,411.17 L1619.01,408.785 L1618.4,406.731 L1617.39,404.978 L1616,403.543 L1614.18,402.427 L1611.92,401.63 L1609.25,401.152 L1606.14,400.993 L1596.25,400.993 L1596.25,436.846 L1600.77,436.846 L1600.77,422.034 M1600.77,418.208 L1600.77,404.892 L1605.89,404.892 L1608.01,404.99 L1609.82,405.284 L1611.31,405.775 L1612.49,406.461 L1613.37,407.357 L1614.01,408.472 L1614.4,409.815 L1614.52,411.391 L1614.4,412.978 L1614.01,414.358 L1613.39,415.529 L1612.51,416.491 L1611.36,417.245 L1609.91,417.791 L1608.17,418.104 L1606.14,418.208 L1600.77,418.208"/>
</g>

<g fill="#000000" fill-opacity="1" stroke="#000000" stroke-opacity="1" stroke-width="1" stroke-linecap="round" stroke-linejoin="bevel" transform="matrix(1,0,0,1,0,0)"
font-family="Arial" font-size="12" font-weight="400" font-style="normal" 
>
</g>

<g fill="#000000" fill-opacity="1" stroke="none" transform="matrix(1,0,0,1,0,0)"
font-family="Arial" font-size="12" font-weight="400" font-style="normal" 
>
<path vector-effect="none" fill-rule="evenodd" d="M1642.85,404.451 L1644.8,404.573 L1646.81,404.941 L1648.87,405.554 L1650.99,406.412 L1652.8,402.587 L1650.6,401.664 L1648.22,401.005 L1645.65,400.61 L1642.9,400.478 L1640.33,400.619 L1637.94,401.042 L1635.72,401.747 L1633.68,402.734 L1631.83,403.985 L1630.22,405.48 L1628.86,407.197 L1627.72,409.159 L1626.83,411.329 L1626.19,413.671 L1625.81,416.185 L1625.68,418.87 L1625.75,421.016 L1625.95,423.039 L1626.27,424.94 L1626.74,426.718 L1627.34,428.359 L1628.08,429.875 L1628.95,431.265 L1629.95,432.53 L1631.07,433.656 L1632.32,434.632 L1633.67,435.459 L1635.15,436.134 L1636.73,436.66 L1638.42,437.036 L1640.23,437.261 L1642.16,437.336 L1644.75,437.256 L1647.02,437.017 L1649.17,436.588 L1651.41,435.889 L1651.41,431.965 L1649.08,432.588 L1646.86,433.032 L1644.77,433.299 L1642.8,433.388 L1640,433.155 L1637.53,432.456 L1636.43,431.93 L1635.42,431.285 L1634.49,430.52 L1633.65,429.636 L1632.24,427.551 L1631.22,425.074 L1630.64,422.199 L1630.44,418.919 L1630.64,415.737 L1631.25,412.911 L1632.29,410.44 L1633.75,408.325 L1634.61,407.418 L1635.55,406.633 L1636.57,405.971 L1637.67,405.431 L1638.85,405.002 L1640.11,404.696 L1641.44,404.512 L1642.85,404.451"/>
</g>

<g fill="#000000" fill-opacity="1" stroke="#000000" stroke-opacity="1" stroke-width="1" stroke-linecap="round" stroke-linejoin="bevel" transform="matrix(1,0,0,1,0,0)"
font-family="Arial" font-size="12" font-weight="400" font-style="normal" 
>
</g>

<g fill="#000000" fill-opacity="1" stroke="none" transform="matrix(1,0,0,1,0,0)"
font-family="Arial" font-size="12" font-weight="400" font-style="normal" 
>
<path vector-effect="none" fill-rule="evenodd" d="M1687.95,418.576 L1687.87,416.539 L1687.65,414.621 L1687.28,412.824 L1686.77,411.145 L1686.12,409.585 L1685.32,408.141 L1684.38,406.814 L1683.29,405.603 L1682.06,404.523 L1680.72,403.586 L1679.27,402.794 L1677.7,402.145 L1676.01,401.641 L1674.21,401.281 L1672.29,401.065 L1670.26,400.993 L1659.23,400.993 L1659.23,436.846 L1669.21,436.846 L1671.4,436.774 L1673.47,436.557 L1675.4,436.197 L1677.21,435.693 L1678.87,435.031 L1680.41,434.222 L1681.81,433.265 L1683.09,432.162 L1684.23,430.92 L1685.21,429.55 L1686.04,428.051 L1686.72,426.423 L1687.26,424.655 L1687.64,422.757 L1687.87,420.731 L1687.95,418.576 M1683.19,418.723 L1683.13,420.456 L1682.96,422.077 L1682.66,423.583 L1682.26,424.976 L1681.75,426.256 L1681.12,427.423 L1680.39,428.476 L1679.53,429.415 L1678.57,430.253 L1677.49,430.978 L1676.29,431.59 L1674.97,432.088 L1673.56,432.474 L1672.02,432.75 L1670.38,432.916 L1668.62,432.971 L1663.74,432.971 L1663.74,404.843 L1669.63,404.843 L1671.28,404.898 L1672.82,405.064 L1674.24,405.339 L1675.56,405.726 L1676.78,406.222 L1677.9,406.829 L1678.9,407.547 L1679.8,408.374 L1680.6,409.308 L1681.28,410.342 L1681.86,411.478 L1682.33,412.715 L1682.71,414.065 L1682.97,415.517 L1683.14,417.069 L1683.19,418.723"/>
</g>

<g fill="#000000" fill-opacity="1" stroke="#000000" stroke-opacity="1" stroke-width="1" stroke-linecap="round" stroke-linejoin="bevel" transform="matrix(1,0,0,1,0,0)"
font-family="Arial" font-size="12" font-weight="400" font-style="normal" 
>
</g>

<g fill="#000000" fill-opacity="1" stroke="none" transform="matrix(1,0,0,1,0,0)"
font-family="Arial" font-size="12" font-weight="400" font-style="normal" 
>
<path vector-effect="none" fill-rule="evenodd" d="M1534.35,497.03 L1534.35,461.177 L1530.69,461.177 L1520.98,468.705 L1523.29,471.673 L1526.14,469.331 L1528.75,467.16 L1530.23,465.787 L1530.08,468.754 L1530.03,471.967 L1530.03,497.03 L1534.35,497.03"/>
</g>

<g fill="#000000" fill-opacity="1" stroke="#000000" stroke-opacity="1" stroke-width="1" stroke-linecap="round" stroke-linejoin="bevel" transform="matrix(1,0,0,1,0,0)"
font-family="Arial" font-size="12" font-weight="400" font-style="normal" 
>
</g>

<g fill="#000000" fill-opacity="1" stroke="none" transform="matrix(1,0,0,1,0,0)"
font-family="Arial" font-size="12" font-weight="400" font-style="normal" 
>
<path vector-effect="none" fill-rule="evenodd" d="M1548.84,494.307 L1549.03,495.754 L1549.29,496.343 L1549.65,496.833 L1550.08,497.238 L1550.6,497.52 L1551.9,497.741 L1553.23,497.52 L1553.77,497.238 L1554.23,496.833 L1554.85,495.754 L1555.07,494.307 L1555.01,493.547 L1554.85,492.885 L1554.23,491.831 L1553.23,491.168 L1551.9,490.948 L1550.58,491.168 L1549.62,491.831 L1549.03,492.885 L1548.84,494.307"/>
</g>

<g fill="#000000" fill-opacity="1" stroke="#000000" stroke-opacity="1" stroke-width="1" stroke-linecap="round" stroke-linejoin="bevel" transform="matrix(1,0,0,1,0,0)"
font-family="Arial" font-size="12" font-weight="400" font-style="normal" 
>
</g>

<g fill="#000000" fill-opacity="1" stroke="none" transform="matrix(1,0,0,1,0,0)"
font-family="Arial" font-size="12" font-weight="400" font-style="normal" 
>
<path vector-effect="none" fill-rule="evenodd" d="M1576.53,497.03 L1576.53,461.177 L1572.87,461.177 L1563.16,468.705 L1565.47,471.673 L1568.32,469.331 L1570.93,467.16 L1572.41,465.787 L1572.26,468.754 L1572.21,471.967 L1572.21,497.03 L1576.53,497.03"/>
</g>

<g fill="#000000" fill-opacity="1" stroke="#000000" stroke-opacity="1" stroke-width="1" stroke-linecap="round" stroke-linejoin="bevel" transform="matrix(1,0,0,1,0,0)"
font-family="Arial" font-size="12" font-weight="400" font-style="normal" 
>
</g>

<g fill="#000000" fill-opacity="1" stroke="none" transform="matrix(1,0,0,1,0,0)"
font-family="Arial" font-size="12" font-weight="400" font-style="normal" 
>
<path vector-effect="none" fill-rule="evenodd" d="M1601.22,475.032 L1598.49,475.173 L1595.7,475.596 L1596.56,465.198 L1610.76,465.198 L1610.76,461.177 L1592.78,461.177 L1591.44,478.098 L1593.64,479.495 L1596.79,478.944 L1599.77,478.76 L1601.87,478.876 L1603.7,479.226 L1605.23,479.784 L1606.49,480.574 L1607.48,481.598 L1608.18,482.855 L1608.61,484.32 L1608.75,486.019 L1608.6,487.778 L1608.16,489.329 L1607.45,490.647 L1606.44,491.757 L1605.17,492.64 L1603.65,493.277 L1601.91,493.645 L1599.92,493.768 L1597.46,493.609 L1594.94,493.13 L1592.58,492.382 L1590.58,491.414 L1590.58,495.583 L1592.39,496.441 L1594.53,497.054 L1597.03,497.404 L1599.87,497.52 L1602.84,497.324 L1605.49,496.735 L1607.77,495.748 L1609.73,494.357 L1611.27,492.615 L1612.38,490.58 L1613.06,488.226 L1613.29,485.577 L1613.08,483.26 L1612.48,481.212 L1611.46,479.404 L1610.05,477.852 L1608.28,476.626 L1606.22,475.743 L1603.87,475.21 L1601.22,475.032"/>
</g>

<g fill="#000000" fill-opacity="1" stroke="#000000" stroke-opacity="1" stroke-width="1" stroke-linecap="round" stroke-linejoin="bevel" transform="matrix(1,0,0,1,0,0)"
font-family="Arial" font-size="12" font-weight="400" font-style="normal" 
>
</g>

<g fill="#000000" fill-opacity="1" stroke="#000000" stroke-opacity="1" stroke-width="2" stroke-linecap="round" stroke-linejoin="bevel" transform="matrix(1,0,0,1,0,0)"
font-family="Arial" font-size="12" font-weight="400" font-style="normal" 
>
<polyline fill="none" vector-effect="none" points="1891.08,625.09 2207.88,712.156 " />
<polyline fill="none" vector-effect="none" points="1456.16,2207.61 1772.96,2294.68 " />
<polyline fill="none" vector-effect="none" points="2170.43,757.866 2024.44,1289.07 " />
<polyline fill="none" vector-effect="none" points="1764.13,2236.25 1982.82,1440.52 " />
</g>

<g fill="#000000" fill-opacity="1" stroke="#000000" stroke-opacity="1" stroke-width="3" stroke-linecap="round" stroke-linejoin="bevel" transform="matrix(1,0,0,1,0,0)"
font-family="Arial" font-size="12" font-weight="400" font-style="normal" 
>
</g>

<g fill="#000000" fill-opacity="1" stroke="none" transform="matrix(1,0,0,1,0,0)"
font-family="Arial" font-size="12" font-weight="400" font-style="normal" 
>
<path vector-effect="none" fill-rule="evenodd" d="M2161.75,755.481 L2184.74,705.796 L2179.11,760.251 L2161.75,755.481"/>
</g>

<g fill="#000000" fill-opacity="1" stroke="#000000" stroke-opacity="1" stroke-width="3" stroke-linecap="round" stroke-linejoin="bevel" transform="matrix(1,0,0,1,0,0)"
font-family="Arial" font-size="12" font-weight="400" font-style="normal" 
>
</g>

<g fill="#000000" fill-opacity="1" stroke="none" transform="matrix(1,0,0,1,0,0)"
font-family="Arial" font-size="12" font-weight="400" font-style="normal" 
>
<path vector-effect="none" fill-rule="evenodd" d="M1772.8,2238.63 L1749.82,2288.32 L1755.45,2233.86 L1772.8,2238.63"/>
</g>

<g fill="#000000" fill-opacity="1" stroke="#000000" stroke-opacity="1" stroke-width="3" stroke-linecap="round" stroke-linejoin="bevel" transform="matrix(1,0,0,1,0,0)"
font-family="Arial" font-size="12" font-weight="400" font-style="normal" 
>
</g>

<g fill="#000000" fill-opacity="1" stroke="none" transform="matrix(1,0,0,1,0,0)"
font-family="Arial" font-size="12" font-weight="400" font-style="normal" 
>
<path vector-effect="none" fill-rule="evenodd" d="M1847.62,1326.95 L1847.41,1324.48 L1846.77,1322.34 L1845.72,1320.54 L1844.24,1319.05 L1842.34,1317.89 L1840.02,1317.07 L1837.31,1316.57 L1834.16,1316.4 L1824.67,1316.4 L1824.67,1352.26 L1829.18,1352.26 L1829.18,1338.3 L1833.3,1338.3 L1836.52,1338.13 L1839.34,1337.59 L1841.79,1336.67 L1843.87,1335.38 L1845.5,1333.75 L1846.67,1331.8 L1847.39,1329.54 L1847.62,1326.95 M1829.18,1334.43 L1829.18,1320.25 L1833.74,1320.25 L1835.95,1320.36 L1837.84,1320.7 L1839.43,1321.22 L1840.71,1321.97 L1841.68,1322.94 L1842.38,1324.13 L1842.8,1325.53 L1842.94,1327.15 L1842.79,1328.93 L1842.33,1330.46 L1841.57,1331.73 L1840.54,1332.71 L1839.15,1333.47 L1837.4,1334.01 L1835.28,1334.32 L1832.79,1334.43 L1829.18,1334.43"/>
</g>

<g fill="#000000" fill-opacity="1" stroke="none" transform="matrix(1,0,0,1,0,0)"
font-family="Arial" font-size="12" font-weight="400" font-style="normal" 
>
<path vector-effect="none" fill-rule="evenodd" d="M1883.77,1333.99 L1883.7,1331.95 L1883.48,1330.03 L1883.11,1328.23 L1882.59,1326.56 L1881.94,1325 L1881.15,1323.55 L1880.2,1322.23 L1879.11,1321.01 L1877.89,1319.93 L1876.55,1319 L1875.09,1318.2 L1873.52,1317.56 L1871.83,1317.05 L1870.03,1316.69 L1868.12,1316.48 L1866.09,1316.4 L1855.06,1316.4 L1855.06,1352.26 L1865.04,1352.26 L1867.23,1352.18 L1869.29,1351.97 L1871.23,1351.61 L1873.03,1351.1 L1874.7,1350.44 L1876.23,1349.63 L1877.64,1348.68 L1878.92,1347.57 L1880.05,1346.33 L1881.04,1344.96 L1881.87,1343.46 L1882.55,1341.83 L1883.08,1340.07 L1883.47,1338.17 L1883.7,1336.14 L1883.77,1333.99 M1879.01,1334.13 L1878.96,1335.87 L1878.78,1337.49 L1878.49,1338.99 L1878.08,1340.39 L1877.57,1341.67 L1876.95,1342.83 L1876.21,1343.89 L1875.36,1344.83 L1874.39,1345.66 L1873.31,1346.39 L1872.11,1347 L1870.8,1347.5 L1869.38,1347.89 L1867.85,1348.16 L1866.21,1348.33 L1864.45,1348.38 L1859.57,1348.38 L1859.57,1320.25 L1865.45,1320.25 L1867.1,1320.31 L1868.64,1320.47 L1870.07,1320.75 L1871.39,1321.14 L1872.61,1321.63 L1873.72,1322.24 L1874.73,1322.96 L1875.63,1323.79 L1876.42,1324.72 L1877.11,1325.75 L1877.69,1326.89 L1878.16,1328.13 L1878.53,1329.48 L1878.8,1330.93 L1878.96,1332.48 L1879.01,1334.13"/>
</g>

<g fill="#000000" fill-opacity="1" stroke="#000000" stroke-opacity="1" stroke-width="1" stroke-linecap="round" stroke-linejoin="bevel" transform="matrix(1,0,0,1,0,0)"
font-family="Arial" font-size="12" font-weight="400" font-style="normal" 
>
</g>

<g fill="#000000" fill-opacity="1" stroke="none" transform="matrix(1,0,0,1,0,0)"
font-family="Arial" font-size="12" font-weight="400" font-style="normal" 
>
<path vector-effect="none" fill-rule="evenodd" d="M1905.01,1316.4 L1900.69,1316.4 L1887.33,1352.26 L1891.67,1352.26 L1905.01,1316.4"/>
</g>

<g fill="#000000" fill-opacity="1" stroke="#000000" stroke-opacity="1" stroke-width="1" stroke-linecap="round" stroke-linejoin="bevel" transform="matrix(1,0,0,1,0,0)"
font-family="Arial" font-size="12" font-weight="400" font-style="normal" 
>
</g>

<g fill="#000000" fill-opacity="1" stroke="none" transform="matrix(1,0,0,1,0,0)"
font-family="Arial" font-size="12" font-weight="400" font-style="normal" 
>
<path vector-effect="none" fill-rule="evenodd" d="M1931.64,1352.26 L1931.64,1348.24 L1913.52,1348.24 L1913.52,1348.04 L1921,1340.66 L1922.88,1338.79 L1924.46,1337.13 L1925.76,1335.69 L1926.76,1334.45 L1928.26,1332.2 L1929.34,1329.99 L1929.98,1327.75 L1930.19,1325.43 L1930.01,1323.34 L1929.46,1321.48 L1928.54,1319.86 L1927.25,1318.46 L1925.65,1317.35 L1923.79,1316.55 L1921.7,1316.05 L1919.33,1315.89 L1916.4,1316.15 L1913.59,1316.94 L1910.91,1318.26 L1908.34,1320.11 L1910.7,1323.07 L1911.9,1322.18 L1913.05,1321.44 L1914.12,1320.84 L1915.14,1320.4 L1917.18,1319.85 L1919.33,1319.67 L1920.72,1319.77 L1921.95,1320.08 L1923.03,1320.57 L1923.97,1321.26 L1924.69,1322.14 L1925.22,1323.17 L1925.55,1324.36 L1925.66,1325.7 L1925.49,1327.62 L1924.97,1329.4 L1924.13,1331.15 L1922.94,1332.96 L1922.07,1334.03 L1920.84,1335.41 L1919.26,1337.1 L1917.32,1339.09 L1907.93,1348.58 L1907.93,1352.26 L1931.64,1352.26"/>
</g>

<g fill="#000000" fill-opacity="1" stroke="#000000" stroke-opacity="1" stroke-width="1" stroke-linecap="round" stroke-linejoin="bevel" transform="matrix(1,0,0,1,0,0)"
font-family="Arial" font-size="12" font-weight="400" font-style="normal" 
>
</g>

<g fill="#000000" fill-opacity="1" stroke="none" transform="matrix(1,0,0,1,0,0)"
font-family="Arial" font-size="12" font-weight="400" font-style="normal" 
>
<path vector-effect="none" fill-rule="evenodd" d="M1949.3,1340.76 L1961.46,1340.76 L1961.46,1336.83 L1949.3,1336.83 L1949.3,1340.76"/>
</g>

<g fill="#000000" fill-opacity="1" stroke="#000000" stroke-opacity="1" stroke-width="1" stroke-linecap="round" stroke-linejoin="bevel" transform="matrix(1,0,0,1,0,0)"
font-family="Arial" font-size="12" font-weight="400" font-style="normal" 
>
</g>

<g fill="#000000" fill-opacity="1" stroke="none" transform="matrix(1,0,0,1,0,0)"
font-family="Arial" font-size="12" font-weight="400" font-style="normal" 
>
<path vector-effect="none" fill-rule="evenodd" d="M2004.33,1326.95 L2004.11,1324.48 L2003.47,1322.34 L2002.42,1320.54 L2000.94,1319.05 L1999.04,1317.89 L1996.73,1317.07 L1994.01,1316.57 L1990.86,1316.4 L1981.37,1316.4 L1981.37,1352.26 L1985.89,1352.26 L1985.89,1338.3 L1990.01,1338.3 L1993.22,1338.13 L1996.04,1337.59 L1998.5,1336.67 L2000.58,1335.38 L2002.21,1333.75 L2003.37,1331.8 L2004.09,1329.54 L2004.33,1326.95 M1985.89,1334.43 L1985.89,1320.25 L1990.45,1320.25 L1992.65,1320.36 L1994.54,1320.7 L1996.13,1321.22 L1997.41,1321.97 L1998.38,1322.94 L1999.08,1324.13 L1999.5,1325.53 L1999.64,1327.15 L1999.49,1328.93 L1999.03,1330.46 L1998.27,1331.73 L1997.24,1332.71 L1995.85,1333.47 L1994.1,1334.01 L1991.98,1334.32 L1989.49,1334.43 L1985.89,1334.43"/>
</g>

<g fill="#000000" fill-opacity="1" stroke="#000000" stroke-opacity="1" stroke-width="1" stroke-linecap="round" stroke-linejoin="bevel" transform="matrix(1,0,0,1,0,0)"
font-family="Arial" font-size="12" font-weight="400" font-style="normal" 
>
</g>

<g fill="#000000" fill-opacity="1" stroke="none" transform="matrix(1,0,0,1,0,0)"
font-family="Arial" font-size="12" font-weight="400" font-style="normal" 
>
<path vector-effect="none" fill-rule="evenodd" d="M2011.76,1352.26 L2031.94,1352.26 L2031.94,1348.24 L2016.27,1348.24 L2016.27,1316.4 L2011.76,1316.4 L2011.76,1352.26"/>
</g>

<g fill="#000000" fill-opacity="1" stroke="#000000" stroke-opacity="1" stroke-width="1" stroke-linecap="round" stroke-linejoin="bevel" transform="matrix(1,0,0,1,0,0)"
font-family="Arial" font-size="12" font-weight="400" font-style="normal" 
>
</g>

<g fill="#000000" fill-opacity="1" stroke="none" transform="matrix(1,0,0,1,0,0)"
font-family="Arial" font-size="12" font-weight="400" font-style="normal" 
>
<path vector-effect="none" fill-rule="evenodd" d="M2066.79,1333.99 L2066.71,1331.95 L2066.49,1330.03 L2066.13,1328.23 L2065.61,1326.56 L2064.96,1325 L2064.16,1323.55 L2063.22,1322.23 L2062.13,1321.01 L2060.91,1319.93 L2059.57,1319 L2058.11,1318.2 L2056.54,1317.56 L2054.85,1317.05 L2053.05,1316.69 L2051.13,1316.48 L2049.11,1316.4 L2038.07,1316.4 L2038.07,1352.26 L2048.05,1352.26 L2050.24,1352.18 L2052.31,1351.97 L2054.24,1351.61 L2056.05,1351.1 L2057.71,1350.44 L2059.25,1349.63 L2060.65,1348.68 L2061.93,1347.57 L2063.07,1346.33 L2064.05,1344.96 L2064.88,1343.46 L2065.56,1341.83 L2066.1,1340.07 L2066.48,1338.17 L2066.71,1336.14 L2066.79,1333.99 M2062.03,1334.13 L2061.97,1335.87 L2061.8,1337.49 L2061.51,1338.99 L2061.1,1340.39 L2060.59,1341.67 L2059.96,1342.83 L2059.23,1343.89 L2058.38,1344.83 L2057.41,1345.66 L2056.33,1346.39 L2055.13,1347 L2053.82,1347.5 L2052.4,1347.89 L2050.87,1348.16 L2049.22,1348.33 L2047.46,1348.38 L2042.58,1348.38 L2042.58,1320.25 L2048.47,1320.25 L2050.12,1320.31 L2051.66,1320.47 L2053.09,1320.75 L2054.4,1321.14 L2055.63,1321.63 L2056.74,1322.24 L2057.75,1322.96 L2058.65,1323.79 L2059.44,1324.72 L2060.12,1325.75 L2060.7,1326.89 L2061.17,1328.13 L2061.55,1329.48 L2061.82,1330.93 L2061.98,1332.48 L2062.03,1334.13"/>
</g>

<g fill="#000000" fill-opacity="1" stroke="#000000" stroke-opacity="1" stroke-width="1" stroke-linecap="round" stroke-linejoin="bevel" transform="matrix(1,0,0,1,0,0)"
font-family="Arial" font-size="12" font-weight="400" font-style="normal" 
>
</g>

<g fill="#000000" fill-opacity="1" stroke="none" transform="matrix(1,0,0,1,0,0)"
font-family="Arial" font-size="12" font-weight="400" font-style="normal" 
>
<path vector-effect="none" fill-rule="evenodd" d="M2071.86,1340.76 L2084.03,1340.76 L2084.03,1336.83 L2071.86,1336.83 L2071.86,1340.76"/>
</g>

<g fill="#000000" fill-opacity="1" stroke="#000000" stroke-opacity="1" stroke-width="1" stroke-linecap="round" stroke-linejoin="bevel" transform="matrix(1,0,0,1,0,0)"
font-family="Arial" font-size="12" font-weight="400" font-style="normal" 
>
</g>

<g fill="#000000" fill-opacity="1" stroke="none" transform="matrix(1,0,0,1,0,0)"
font-family="Arial" font-size="12" font-weight="400" font-style="normal" 
>
<path vector-effect="none" fill-rule="evenodd" d="M2095.41,1337.44 L2102.54,1337.44 L2111.22,1352.26 L2116.5,1352.26 L2106.66,1336.19 L2108.34,1335.51 L2109.78,1334.67 L2111.02,1333.69 L2112.03,1332.56 L2112.82,1331.29 L2113.38,1329.87 L2113.73,1328.3 L2113.85,1326.58 L2113.65,1324.2 L2113.04,1322.14 L2112.03,1320.39 L2110.64,1318.95 L2108.82,1317.84 L2106.56,1317.04 L2103.89,1316.56 L2100.78,1316.4 L2090.89,1316.4 L2090.89,1352.26 L2095.41,1352.26 L2095.41,1337.44 M2095.41,1333.62 L2095.41,1320.3 L2100.53,1320.3 L2102.65,1320.4 L2104.46,1320.7 L2105.95,1321.19 L2107.13,1321.87 L2108.01,1322.77 L2108.65,1323.88 L2109.04,1325.23 L2109.16,1326.8 L2109.04,1328.39 L2108.65,1329.77 L2108.03,1330.94 L2107.15,1331.9 L2106,1332.66 L2104.55,1333.2 L2102.81,1333.52 L2100.78,1333.62 L2095.41,1333.62"/>
</g>

<g fill="#000000" fill-opacity="1" stroke="#000000" stroke-opacity="1" stroke-width="1" stroke-linecap="round" stroke-linejoin="bevel" transform="matrix(1,0,0,1,0,0)"
font-family="Arial" font-size="12" font-weight="400" font-style="normal" 
>
</g>

<g fill="#000000" fill-opacity="1" stroke="none" transform="matrix(1,0,0,1,0,0)"
font-family="Arial" font-size="12" font-weight="400" font-style="normal" 
>
<path vector-effect="none" fill-rule="evenodd" d="M2137.49,1319.86 L2139.44,1319.98 L2141.45,1320.35 L2143.51,1320.97 L2145.63,1321.82 L2147.44,1318 L2145.24,1317.08 L2142.86,1316.42 L2140.29,1316.02 L2137.54,1315.89 L2134.97,1316.03 L2132.58,1316.45 L2130.36,1317.16 L2128.32,1318.15 L2126.47,1319.4 L2124.86,1320.89 L2123.5,1322.61 L2122.36,1324.57 L2121.47,1326.74 L2120.83,1329.08 L2120.45,1331.6 L2120.32,1334.28 L2120.39,1336.43 L2120.59,1338.45 L2120.92,1340.35 L2121.38,1342.13 L2121.98,1343.77 L2122.72,1345.29 L2123.59,1346.68 L2124.59,1347.94 L2125.71,1349.07 L2126.96,1350.04 L2128.31,1350.87 L2129.79,1351.55 L2131.37,1352.07 L2133.06,1352.45 L2134.87,1352.67 L2136.8,1352.75 L2139.39,1352.67 L2141.66,1352.43 L2143.81,1352 L2146.05,1351.3 L2146.05,1347.38 L2143.72,1348 L2141.5,1348.44 L2139.41,1348.71 L2137.44,1348.8 L2134.64,1348.57 L2132.17,1347.87 L2131.07,1347.34 L2130.06,1346.7 L2129.13,1345.93 L2128.29,1345.05 L2126.88,1342.96 L2125.86,1340.49 L2125.28,1337.61 L2125.08,1334.33 L2125.28,1331.15 L2125.89,1328.32 L2126.93,1325.85 L2128.39,1323.74 L2129.25,1322.83 L2130.19,1322.04 L2131.21,1321.38 L2132.31,1320.84 L2133.49,1320.41 L2134.75,1320.11 L2136.08,1319.92 L2137.49,1319.86"/>
</g>

<g fill="#000000" fill-opacity="1" stroke="#000000" stroke-opacity="1" stroke-width="1" stroke-linecap="round" stroke-linejoin="bevel" transform="matrix(1,0,0,1,0,0)"
font-family="Arial" font-size="12" font-weight="400" font-style="normal" 
>
</g>

<g fill="#000000" fill-opacity="1" stroke="none" transform="matrix(1,0,0,1,0,0)"
font-family="Arial" font-size="12" font-weight="400" font-style="normal" 
>
<path vector-effect="none" fill-rule="evenodd" d="M2182.59,1333.99 L2182.51,1331.95 L2182.29,1330.03 L2181.92,1328.23 L2181.41,1326.56 L2180.76,1325 L2179.96,1323.55 L2179.02,1322.23 L2177.93,1321.01 L2176.7,1319.93 L2175.36,1319 L2173.91,1318.2 L2172.34,1317.56 L2170.65,1317.05 L2168.85,1316.69 L2166.93,1316.48 L2164.91,1316.4 L2153.87,1316.4 L2153.87,1352.26 L2163.85,1352.26 L2166.04,1352.18 L2168.11,1351.97 L2170.04,1351.61 L2171.85,1351.1 L2173.51,1350.44 L2175.05,1349.63 L2176.45,1348.68 L2177.73,1347.57 L2178.87,1346.33 L2179.85,1344.96 L2180.68,1343.46 L2181.36,1341.83 L2181.9,1340.07 L2182.28,1338.17 L2182.51,1336.14 L2182.59,1333.99 M2177.83,1334.13 L2177.77,1335.87 L2177.6,1337.49 L2177.3,1338.99 L2176.9,1340.39 L2176.39,1341.67 L2175.76,1342.83 L2175.03,1343.89 L2174.18,1344.83 L2173.21,1345.66 L2172.13,1346.39 L2170.93,1347 L2169.61,1347.5 L2168.2,1347.89 L2166.66,1348.16 L2165.02,1348.33 L2163.26,1348.38 L2158.38,1348.38 L2158.38,1320.25 L2164.27,1320.25 L2165.92,1320.31 L2167.46,1320.47 L2168.88,1320.75 L2170.2,1321.14 L2171.42,1321.63 L2172.54,1322.24 L2173.55,1322.96 L2174.44,1323.79 L2175.24,1324.72 L2175.92,1325.75 L2176.5,1326.89 L2176.97,1328.13 L2177.35,1329.48 L2177.61,1330.93 L2177.78,1332.48 L2177.83,1334.13"/>
</g>

<g fill="#000000" fill-opacity="1" stroke="#000000" stroke-opacity="1" stroke-width="1" stroke-linecap="round" stroke-linejoin="bevel" transform="matrix(1,0,0,1,0,0)"
font-family="Arial" font-size="12" font-weight="400" font-style="normal" 
>
</g>

<g fill="#000000" fill-opacity="1" stroke="none" transform="matrix(1,0,0,1,0,0)"
font-family="Arial" font-size="12" font-weight="400" font-style="normal" 
>
<path vector-effect="none" fill-rule="evenodd" d="M1980.11,1412.62 L1980.11,1408.6 L1961.99,1408.6 L1961.99,1408.41 L1969.47,1401.03 L1971.35,1399.16 L1972.93,1397.5 L1974.23,1396.05 L1975.23,1394.82 L1976.73,1392.56 L1977.81,1390.36 L1978.45,1388.11 L1978.66,1385.8 L1978.48,1383.71 L1977.93,1381.85 L1977.01,1380.22 L1975.72,1378.83 L1974.12,1377.72 L1972.26,1376.92 L1970.17,1376.42 L1967.8,1376.26 L1964.87,1376.52 L1962.06,1377.31 L1959.38,1378.63 L1956.81,1380.47 L1959.17,1383.44 L1960.37,1382.55 L1961.52,1381.81 L1962.59,1381.21 L1963.61,1380.77 L1965.65,1380.22 L1967.8,1380.03 L1969.19,1380.14 L1970.42,1380.45 L1971.5,1380.94 L1972.44,1381.63 L1973.16,1382.51 L1973.69,1383.54 L1974.02,1384.72 L1974.13,1386.07 L1973.96,1387.99 L1973.44,1389.77 L1972.6,1391.52 L1971.41,1393.33 L1970.54,1394.4 L1969.31,1395.78 L1967.73,1397.46 L1965.79,1399.46 L1956.4,1408.95 L1956.4,1412.62 L1980.11,1412.62"/>
</g>

<g fill="#000000" fill-opacity="1" stroke="#000000" stroke-opacity="1" stroke-width="1" stroke-linecap="round" stroke-linejoin="bevel" transform="matrix(1,0,0,1,0,0)"
font-family="Arial" font-size="12" font-weight="400" font-style="normal" 
>
</g>

<g fill="#000000" fill-opacity="1" stroke="none" transform="matrix(1,0,0,1,0,0)"
font-family="Arial" font-size="12" font-weight="400" font-style="normal" 
>
<path vector-effect="none" fill-rule="evenodd" d="M1986.32,1409.9 L1986.51,1411.35 L1986.76,1411.94 L1987.12,1412.43 L1987.56,1412.83 L1988.08,1413.12 L1989.38,1413.34 L1990.7,1413.12 L1991.25,1412.83 L1991.71,1412.43 L1992.32,1411.35 L1992.54,1409.9 L1992.49,1409.14 L1992.32,1408.48 L1991.71,1407.43 L1990.7,1406.76 L1989.38,1406.54 L1988.06,1406.76 L1987.1,1407.43 L1986.51,1408.48 L1986.32,1409.9"/>
</g>

<g fill="#000000" fill-opacity="1" stroke="#000000" stroke-opacity="1" stroke-width="1" stroke-linecap="round" stroke-linejoin="bevel" transform="matrix(1,0,0,1,0,0)"
font-family="Arial" font-size="12" font-weight="400" font-style="normal" 
>
</g>

<g fill="#000000" fill-opacity="1" stroke="none" transform="matrix(1,0,0,1,0,0)"
font-family="Arial" font-size="12" font-weight="400" font-style="normal" 
>
<path vector-effect="none" fill-rule="evenodd" d="M2003.02,1412.62 L2007.87,1412.62 L2022.44,1380.18 L2022.44,1376.77 L1998.38,1376.77 L1998.38,1380.79 L2017.73,1380.79 L2003.02,1412.62"/>
</g>

<g fill="#000000" fill-opacity="1" stroke="#000000" stroke-opacity="1" stroke-width="1" stroke-linecap="round" stroke-linejoin="bevel" transform="matrix(1,0,0,1,0,0)"
font-family="Arial" font-size="12" font-weight="400" font-style="normal" 
>
</g>

<g fill="#000000" fill-opacity="1" stroke="none" transform="matrix(1,0,0,1,0,0)"
font-family="Arial" font-size="12" font-weight="400" font-style="normal" 
>
<path vector-effect="none" fill-rule="evenodd" d="M2039.21,1376.26 L2036.9,1376.4 L2034.82,1376.85 L2033,1377.58 L2031.41,1378.59 L2030.13,1379.84 L2029.21,1381.31 L2028.67,1382.95 L2028.5,1384.79 L2028.59,1386.15 L2028.86,1387.44 L2029.32,1388.63 L2029.97,1389.77 L2030.82,1390.85 L2031.9,1391.9 L2033.22,1392.91 L2034.77,1393.89 L2033.03,1394.8 L2031.51,1395.8 L2030.23,1396.87 L2029.18,1398.03 L2028.37,1399.27 L2027.78,1400.58 L2027.45,1401.99 L2027.34,1403.48 L2027.54,1405.67 L2028.13,1407.6 L2029.11,1409.23 L2030.48,1410.61 L2032.21,1411.71 L2034.26,1412.5 L2036.65,1412.96 L2039.36,1413.12 L2041.92,1412.95 L2044.21,1412.45 L2046.21,1411.63 L2047.94,1410.47 L2049.32,1409.03 L2050.3,1407.35 L2050.9,1405.45 L2051.11,1403.33 L2050.99,1401.88 L2050.64,1400.53 L2050.06,1399.25 L2049.27,1398.06 L2048.2,1396.92 L2046.82,1395.8 L2045.12,1394.71 L2043.11,1393.64 L2044.78,1392.71 L2046.2,1391.73 L2047.38,1390.72 L2048.31,1389.67 L2049.02,1388.58 L2049.54,1387.41 L2049.85,1386.16 L2049.95,1384.84 L2049.77,1382.94 L2049.22,1381.26 L2048.3,1379.79 L2047.03,1378.54 L2045.44,1377.55 L2043.6,1376.85 L2041.54,1376.4 L2039.21,1376.26 M2031.66,1403.53 L2031.76,1402.29 L2032.05,1401.15 L2032.57,1400.07 L2033.28,1399.09 L2034.21,1398.18 L2035.38,1397.31 L2036.79,1396.49 L2038.45,1395.7 L2040.55,1396.54 L2042.31,1397.4 L2043.76,1398.28 L2044.88,1399.19 L2045.71,1400.15 L2046.3,1401.17 L2046.67,1402.24 L2046.79,1403.38 L2046.66,1404.77 L2046.27,1406 L2045.66,1407.06 L2044.78,1407.97 L2043.68,1408.69 L2042.38,1409.22 L2040.91,1409.51 L2039.26,1409.61 L2037.57,1409.51 L2036.07,1409.22 L2034.77,1408.7 L2033.67,1407.99 L2032.79,1407.11 L2032.15,1406.08 L2031.78,1404.88 L2031.66,1403.53 M2039.16,1379.84 L2040.55,1379.92 L2041.79,1380.18 L2042.89,1380.61 L2043.85,1381.21 L2044.6,1381.96 L2045.15,1382.85 L2045.48,1383.86 L2045.59,1385.01 L2045.5,1386.08 L2045.22,1387.07 L2044.78,1388 L2044.17,1388.86 L2043.34,1389.68 L2042.28,1390.46 L2040.97,1391.21 L2039.41,1391.93 L2038.13,1391.36 L2037.04,1390.83 L2036.13,1390.32 L2035.41,1389.84 L2034.31,1388.85 L2033.5,1387.73 L2033,1386.46 L2032.84,1385.01 L2032.94,1383.87 L2033.25,1382.85 L2033.8,1381.96 L2034.55,1381.21 L2035.48,1380.61 L2036.56,1380.18 L2037.79,1379.92 L2039.16,1379.84"/>
</g>

<g fill="#000000" fill-opacity="1" stroke="none" transform="matrix(1,0,0,1,0,0)"
font-family="Arial" font-size="12" font-weight="400" font-style="normal" 
>
<path vector-effect="none" fill-rule="evenodd" d="M1135.86,2055.64 L1135.79,2053.54 L1135.58,2051.56 L1135.24,2049.69 L1134.76,2047.94 L1134.15,2046.31 L1133.41,2044.79 L1132.53,2043.39 L1131.52,2042.1 L1130.38,2040.95 L1129.12,2039.96 L1127.76,2039.11 L1126.3,2038.42 L1124.73,2037.89 L1123.06,2037.5 L1121.28,2037.27 L1119.38,2037.2 L1117.43,2037.27 L1115.59,2037.5 L1113.87,2037.89 L1112.27,2038.42 L1110.79,2039.1 L1109.43,2039.93 L1108.18,2040.9 L1107.05,2042.03 L1106.03,2043.29 L1105.16,2044.68 L1104.42,2046.2 L1103.81,2047.84 L1103.35,2049.59 L1103.02,2051.47 L1102.82,2053.47 L1102.75,2055.59 L1102.82,2057.74 L1103.02,2059.76 L1103.36,2061.66 L1103.83,2063.44 L1104.44,2065.08 L1105.18,2066.6 L1106.06,2068 L1107.07,2069.27 L1108.21,2070.41 L1109.46,2071.4 L1110.82,2072.23 L1112.29,2072.9 L1113.88,2073.43 L1115.59,2073.81 L1117.4,2074.03 L1119.33,2074.11 L1121.23,2074.03 L1123.02,2073.8 L1124.7,2073.42 L1126.27,2072.88 L1127.74,2072.19 L1129.1,2071.34 L1130.35,2070.34 L1131.5,2069.18 L1132.52,2067.89 L1133.4,2066.49 L1134.15,2064.97 L1134.76,2063.34 L1135.24,2061.59 L1135.58,2059.72 L1135.79,2057.74 L1135.86,2055.64 M1107.51,2055.64 L1107.7,2052.32 L1108.25,2049.41 L1109.2,2046.93 L1110.53,2044.87 L1111.32,2044.01 L1112.2,2043.26 L1113.17,2042.63 L1114.23,2042.1 L1115.39,2041.7 L1116.63,2041.4 L1117.97,2041.23 L1119.38,2041.17 L1120.77,2041.23 L1122.08,2041.4 L1123.3,2041.7 L1124.43,2042.1 L1126.44,2043.24 L1128.11,2044.82 L1128.8,2045.79 L1129.4,2046.87 L1129.9,2048.06 L1130.32,2049.36 L1130.65,2050.77 L1130.89,2052.28 L1131.03,2053.9 L1131.08,2055.64 L1131.03,2057.39 L1130.89,2059.02 L1130.65,2060.55 L1130.32,2061.97 L1129.9,2063.27 L1129.39,2064.47 L1128.79,2065.55 L1128.09,2066.53 L1127.29,2067.39 L1126.41,2068.14 L1125.44,2068.78 L1124.38,2069.3 L1122.03,2069.98 L1119.33,2070.21 L1117.93,2070.15 L1116.61,2069.97 L1115.38,2069.68 L1114.23,2069.27 L1113.17,2068.75 L1112.2,2068.11 L1111.32,2067.35 L1110.53,2066.48 L1109.2,2064.41 L1108.25,2061.92 L1107.7,2058.99 L1107.51,2055.64"/>
</g>

<g fill="#000000" fill-opacity="1" stroke="#000000" stroke-opacity="1" stroke-width="3" stroke-linecap="round" stroke-linejoin="bevel" transform="matrix(1,0,0,1,0,0)"
font-family="Arial" font-size="12" font-weight="400" font-style="normal" 
>
</g>

<g fill="#000000" fill-opacity="1" stroke="none" transform="matrix(1,0,0,1,0,0)"
font-family="Arial" font-size="12" font-weight="400" font-style="normal" 
>
<path vector-effect="none" fill-rule="evenodd" d="M1398.08,2165.26 L1438.08,2202.64 L1388.12,2180.25 L1398.08,2165.26"/>
</g>

<g fill="#000000" fill-opacity="1" stroke="#000000" stroke-opacity="1" stroke-width="3" stroke-linecap="round" stroke-linejoin="bevel" transform="matrix(1,0,0,1,0,0)"
font-family="Arial" font-size="12" font-weight="400" font-style="normal" 
>
<polyline fill="none" vector-effect="none" points="1438.08,2202.64 1216.86,2055.65 1162.86,2055.65 " />
</g>

<g fill="none" stroke="#000000" stroke-opacity="1" stroke-width="1" stroke-linecap="square" stroke-linejoin="bevel" transform="matrix(1,0,0,1,0,0)"
font-family="Arial" font-size="12" font-weight="400" font-style="normal" 
>
</g>
</g>
</svg>
