<?xml version="1.0" encoding="UTF-8" standalone="no"?>
<svg width="279.4mm" height="215.9mm"
 viewBox="0 0 3300 2550"
 xmlns="http://www.w3.org/2000/svg" xmlns:xlink="http://www.w3.org/1999/xlink"  version="1.2" baseProfile="tiny">
<defs>
</defs>
<g fill="none" stroke="black" stroke-width="1" fill-rule="evenodd" stroke-linecap="square" stroke-linejoin="bevel" >

<g fill="#ffffff" fill-opacity="1" stroke="none" transform="matrix(1,0,0,1,0,0)"
font-family="Arial" font-size="12" font-weight="400" font-style="normal" 
>
<rect x="0" y="0" width="3300" height="2550"/>
</g>

<g fill="none" stroke="#000000" stroke-opacity="1" stroke-width="1" stroke-linecap="square" stroke-linejoin="bevel" transform="matrix(1,0,0,1,0,0)"
font-family="Arial" font-size="12" font-weight="400" font-style="normal" 
>
</g>

<g fill="#000000" fill-opacity="1" stroke="#000000" stroke-opacity="1" stroke-width="1" stroke-linecap="butt" stroke-linejoin="miter" stroke-miterlimit="2" transform="matrix(1,0,0,1,0,0)"
font-family="Arial" font-size="12" font-weight="400" font-style="normal" 
>
</g>

<g fill="#000000" fill-opacity="1" stroke="#000000" stroke-opacity="1" stroke-width="2" stroke-linecap="round" stroke-linejoin="bevel" transform="matrix(1,0,0,1,0,0)"
font-family="Arial" font-size="12" font-weight="400" font-style="normal" 
>
<polyline fill="none" vector-effect="none" points="1873.51,894.545 1832.08,887.597 " />
<polyline fill="none" vector-effect="none" points="1818.77,885.364 1805.46,883.131 " />
<polyline fill="none" vector-effect="none" points="1792.06,881.505 1735.83,874.799 1724.98,874.026 " />
<polyline fill="none" vector-effect="none" points="1711.52,873.065 1698.05,872.104 " />
<polyline fill="none" vector-effect="none" points="1684.58,871.143 1666.44,869.849 1617.14,868.679 " />
<polyline fill="none" vector-effect="none" points="1603.65,868.358 1596.9,868.198 1590.15,868.358 " />
<polyline fill="none" vector-effect="none" points="1576.66,868.679 1527.36,869.849 1509.22,871.143 " />
<polyline fill="none" vector-effect="none" points="1495.75,872.104 1482.28,873.065 " />
<polyline fill="none" vector-effect="none" points="1468.82,874.026 1457.97,874.799 1401.74,881.505 " />
<polyline fill="none" vector-effect="none" points="1388.34,883.131 1375.03,885.364 " />
<polyline fill="none" vector-effect="none" points="1361.72,887.597 1320.29,894.545 " />
<polyline fill="none" vector-effect="none" points="1596.9,563.798 1596.9,618.324 " />
<polyline fill="none" vector-effect="none" points="1596.9,631.824 1596.9,645.324 " />
<polyline fill="none" vector-effect="none" points="1596.9,658.824 1596.9,726.324 " />
<polyline fill="none" vector-effect="none" points="1596.9,739.824 1596.9,753.324 " />
<polyline fill="none" vector-effect="none" points="1596.9,766.824 1596.9,834.324 " />
<polyline fill="none" vector-effect="none" points="1596.9,847.824 1596.9,861.324 " />
<polyline fill="none" vector-effect="none" points="1596.9,874.824 1596.9,942.324 " />
<polyline fill="none" vector-effect="none" points="1596.9,955.824 1596.9,969.324 " />
<polyline fill="none" vector-effect="none" points="1596.9,982.824 1596.9,1050.32 " />
<polyline fill="none" vector-effect="none" points="1596.9,1063.82 1596.9,1077.32 " />
<polyline fill="none" vector-effect="none" points="1596.9,1090.82 1596.9,1158.32 " />
<polyline fill="none" vector-effect="none" points="1596.9,1171.82 1596.9,1185.32 " />
<polyline fill="none" vector-effect="none" points="1596.9,1198.82 1596.9,1266.32 " />
<polyline fill="none" vector-effect="none" points="1596.9,1279.82 1596.9,1293.32 " />
<polyline fill="none" vector-effect="none" points="1596.9,1306.82 1596.9,1374.32 " />
<polyline fill="none" vector-effect="none" points="1596.9,1387.82 1596.9,1401.32 " />
<polyline fill="none" vector-effect="none" points="1596.9,1414.82 1596.9,1482.32 " />
<polyline fill="none" vector-effect="none" points="1596.9,1495.82 1596.9,1509.32 " />
<polyline fill="none" vector-effect="none" points="1596.9,1522.82 1596.9,1590.32 " />
<polyline fill="none" vector-effect="none" points="1596.9,1603.82 1596.9,1617.32 " />
<polyline fill="none" vector-effect="none" points="1596.9,1630.82 1596.9,1698.32 " />
<polyline fill="none" vector-effect="none" points="1596.9,1711.82 1596.9,1725.32 " />
<polyline fill="none" vector-effect="none" points="1596.9,1738.82 1596.9,1806.32 " />
<polyline fill="none" vector-effect="none" points="1596.9,1819.82 1596.9,1833.32 " />
<polyline fill="none" vector-effect="none" points="1596.9,1846.82 1596.9,1914.32 " />
<polyline fill="none" vector-effect="none" points="1596.9,1927.82 1596.9,1941.32 " />
<polyline fill="none" vector-effect="none" points="1596.9,1954.82 1596.9,2022.32 " />
<polyline fill="none" vector-effect="none" points="1596.9,2035.82 1596.9,2049.32 " />
<polyline fill="none" vector-effect="none" points="1596.9,2062.82 1596.9,2130.32 " />
<polyline fill="none" vector-effect="none" points="1596.9,2143.82 1596.9,2157.32 " />
<polyline fill="none" vector-effect="none" points="1596.9,2170.82 1596.9,2238.32 " />
<polyline fill="none" vector-effect="none" points="1596.9,2251.82 1596.9,2265.32 " />
<polyline fill="none" vector-effect="none" points="1596.9,2278.82 1596.9,2333.35 " />
<polyline fill="none" vector-effect="none" points="1596.9,563.798 1559.98,564.572 " />
<polyline fill="none" vector-effect="none" points="1546.49,564.854 1532.99,565.137 " />
<polyline fill="none" vector-effect="none" points="1519.5,565.558 1452.13,569.797 " />
<polyline fill="none" vector-effect="none" points="1438.69,571.07 1425.27,572.481 " />
<polyline fill="none" vector-effect="none" points="1411.84,573.892 1375.12,577.752 " />
<polyline fill="none" vector-effect="none" points="1375.12,577.752 1424.93,609.415 " />
<polyline fill="none" vector-effect="none" points="1436.32,616.657 1447.72,623.899 " />
<polyline fill="none" vector-effect="none" points="1459.11,631.141 1516.08,667.35 " />
<polyline fill="none" vector-effect="none" points="1527.47,674.592 1538.86,681.834 " />
<polyline fill="none" vector-effect="none" points="1550.26,689.076 1607.22,725.286 " />
<polyline fill="none" vector-effect="none" points="1618.61,732.527 1630.01,739.769 " />
<polyline fill="none" vector-effect="none" points="1641.4,747.011 1698.37,783.221 " />
<polyline fill="none" vector-effect="none" points="1709.76,790.463 1721.15,797.705 " />
<polyline fill="none" vector-effect="none" points="1732.55,804.946 1789.51,841.156 " />
<polyline fill="none" vector-effect="none" points="1800.91,848.398 1812.3,855.64 " />
<polyline fill="none" vector-effect="none" points="1823.69,862.882 1873.51,894.545 " />
</g>

<g fill="#000000" fill-opacity="1" stroke="#000000" stroke-opacity="1" stroke-width="5" stroke-linecap="round" stroke-linejoin="bevel" transform="matrix(1,0,0,1,0,0)"
font-family="Arial" font-size="12" font-weight="400" font-style="normal" 
>
<polyline fill="none" vector-effect="none" points="1320.29,894.545 1324.68,901.269 1329.24,907.883 1333.95,914.384 1338.83,920.768 1343.85,927.03 1349.03,933.167 1354.36,939.175 1359.83,945.051 1365.45,950.791 1371.21,956.392 1377.1,961.85 1383.12,967.162 1389.27,972.325 1395.54,977.336 1401.94,982.192 1408.45,986.889 1415.08,991.425 1421.82,995.798 1428.66,1000 1435.6,1004.04 1442.64,1007.91 1449.77,1011.6 1456.99,1015.12 1464.29,1018.46 1471.67,1021.62 1479.13,1024.59 1486.66,1027.39 1494.26,1029.99 1501.91,1032.42 1509.63,1034.65 1517.39,1036.69 1525.21,1038.54 1533.06,1040.2 1540.96,1041.67 1548.89,1042.95 1556.85,1044.02 1564.83,1044.91 1572.83,1045.6 1580.85,1046.09 1588.87,1046.38 1596.9,1046.48 1604.93,1046.38 1612.96,1046.09 1620.97,1045.6 1628.97,1044.91 1636.95,1044.02 1644.91,1042.95 1652.84,1041.67 1660.74,1040.2 1668.59,1038.54 1676.41,1036.69 1684.17,1034.65 1691.89,1032.42 1699.54,1029.99 1707.14,1027.39 1714.67,1024.59 1722.13,1021.62 1729.51,1018.46 1736.81,1015.12 1744.03,1011.6 1751.16,1007.91 1758.2,1004.04 1765.14,1000 1771.98,995.798 1778.72,991.425 1785.35,986.889 1791.86,982.192 1798.26,977.336 1804.53,972.325 1810.68,967.162 1816.7,961.85 1822.6,956.392 1828.35,950.791 1833.97,945.051 1839.44,939.175 1844.77,933.167 1849.95,927.03 1854.97,920.768 1859.85,914.384 1864.56,907.883 1869.12,901.269 1873.51,894.545 " />
</g>

<g fill="#000000" fill-opacity="1" stroke="#000000" stroke-opacity="1" stroke-width="2" stroke-linecap="round" stroke-linejoin="bevel" transform="matrix(1,0,0,1,0,0)"
font-family="Arial" font-size="12" font-weight="400" font-style="normal" 
>
<polyline fill="none" vector-effect="none" points="1375.12,577.752 1370.75,543.161 " />
<polyline fill="none" vector-effect="none" points="1369.05,529.768 1367.36,516.374 " />
<polyline fill="none" vector-effect="none" points="1365.67,502.981 1361.3,468.39 " />
<polyline fill="none" vector-effect="none" points="1596.9,2333.35 1586.4,2278.71 " />
<polyline fill="none" vector-effect="none" points="1583.85,2265.45 1581.3,2252.19 " />
<polyline fill="none" vector-effect="none" points="1578.75,2238.94 1566.01,2172.65 " />
<polyline fill="none" vector-effect="none" points="1563.46,2159.39 1560.91,2146.14 " />
<polyline fill="none" vector-effect="none" points="1558.36,2132.88 1545.62,2066.59 " />
<polyline fill="none" vector-effect="none" points="1543.07,2053.34 1540.52,2040.08 " />
<polyline fill="none" vector-effect="none" points="1537.97,2026.82 1525.23,1960.54 " />
<polyline fill="none" vector-effect="none" points="1522.68,1947.28 1520.13,1934.02 " />
<polyline fill="none" vector-effect="none" points="1517.58,1920.76 1504.84,1854.48 " />
<polyline fill="none" vector-effect="none" points="1502.29,1841.22 1499.74,1827.96 " />
<polyline fill="none" vector-effect="none" points="1497.19,1814.71 1484.45,1748.42 " />
<polyline fill="none" vector-effect="none" points="1481.9,1735.16 1479.35,1721.91 " />
<polyline fill="none" vector-effect="none" points="1476.8,1708.65 1464.06,1642.36 " />
<polyline fill="none" vector-effect="none" points="1461.51,1629.1 1458.96,1615.85 " />
<polyline fill="none" vector-effect="none" points="1456.41,1602.59 1443.67,1536.3 " />
<polyline fill="none" vector-effect="none" points="1441.12,1523.05 1438.57,1509.79 " />
<polyline fill="none" vector-effect="none" points="1436.02,1496.53 1423.28,1430.25 " />
<polyline fill="none" vector-effect="none" points="1420.73,1416.99 1418.18,1403.73 " />
<polyline fill="none" vector-effect="none" points="1415.63,1390.47 1402.89,1324.19 " />
<polyline fill="none" vector-effect="none" points="1400.34,1310.93 1397.79,1297.67 " />
<polyline fill="none" vector-effect="none" points="1395.25,1284.42 1382.5,1218.13 " />
<polyline fill="none" vector-effect="none" points="1379.95,1204.87 1377.4,1191.62 " />
<polyline fill="none" vector-effect="none" points="1374.86,1178.36 1362.11,1112.07 " />
<polyline fill="none" vector-effect="none" points="1359.56,1098.82 1357.02,1085.56 " />
<polyline fill="none" vector-effect="none" points="1354.47,1072.3 1341.72,1006.01 " />
<polyline fill="none" vector-effect="none" points="1339.17,992.757 1336.63,979.5 " />
<polyline fill="none" vector-effect="none" points="1334.08,966.243 1321.33,899.957 " />
<polyline fill="none" vector-effect="none" points="1318.79,886.7 1316.24,873.442 " />
<polyline fill="none" vector-effect="none" points="1313.69,860.185 1300.94,793.899 " />
<polyline fill="none" vector-effect="none" points="1298.4,780.642 1295.85,767.384 " />
<polyline fill="none" vector-effect="none" points="1293.3,754.127 1280.56,687.841 " />
<polyline fill="none" vector-effect="none" points="1278.01,674.584 1275.46,661.327 " />
<polyline fill="none" vector-effect="none" points="1272.91,648.069 1260.17,581.783 " />
<polyline fill="none" vector-effect="none" points="1257.62,568.526 1255.07,555.269 " />
<polyline fill="none" vector-effect="none" points="1252.52,542.011 1242.02,487.371 " />
<polyline fill="none" vector-effect="none" points="1596.9,2333.35 1607.4,2278.71 " />
<polyline fill="none" vector-effect="none" points="1609.95,2265.45 1612.5,2252.19 " />
<polyline fill="none" vector-effect="none" points="1615.05,2238.94 1627.79,2172.65 " />
<polyline fill="none" vector-effect="none" points="1630.34,2159.39 1632.89,2146.14 " />
<polyline fill="none" vector-effect="none" points="1635.44,2132.88 1648.18,2066.59 " />
<polyline fill="none" vector-effect="none" points="1650.73,2053.34 1653.28,2040.08 " />
<polyline fill="none" vector-effect="none" points="1655.83,2026.82 1668.57,1960.54 " />
<polyline fill="none" vector-effect="none" points="1671.12,1947.28 1673.67,1934.02 " />
<polyline fill="none" vector-effect="none" points="1676.22,1920.76 1688.96,1854.48 " />
<polyline fill="none" vector-effect="none" points="1691.51,1841.22 1694.06,1827.96 " />
<polyline fill="none" vector-effect="none" points="1696.61,1814.71 1709.35,1748.42 " />
<polyline fill="none" vector-effect="none" points="1711.9,1735.16 1714.45,1721.91 " />
<polyline fill="none" vector-effect="none" points="1717,1708.65 1729.74,1642.36 " />
<polyline fill="none" vector-effect="none" points="1732.29,1629.1 1734.84,1615.85 " />
<polyline fill="none" vector-effect="none" points="1737.39,1602.59 1750.13,1536.3 " />
<polyline fill="none" vector-effect="none" points="1752.68,1523.05 1755.23,1509.79 " />
<polyline fill="none" vector-effect="none" points="1757.78,1496.53 1770.52,1430.25 " />
<polyline fill="none" vector-effect="none" points="1773.07,1416.99 1775.62,1403.73 " />
<polyline fill="none" vector-effect="none" points="1778.17,1390.47 1790.91,1324.19 " />
<polyline fill="none" vector-effect="none" points="1793.46,1310.93 1796.01,1297.67 " />
<polyline fill="none" vector-effect="none" points="1798.55,1284.42 1811.3,1218.13 " />
<polyline fill="none" vector-effect="none" points="1813.85,1204.87 1816.4,1191.62 " />
<polyline fill="none" vector-effect="none" points="1818.94,1178.36 1831.69,1112.07 " />
<polyline fill="none" vector-effect="none" points="1834.24,1098.82 1836.78,1085.56 " />
<polyline fill="none" vector-effect="none" points="1839.33,1072.3 1852.08,1006.01 " />
<polyline fill="none" vector-effect="none" points="1854.63,992.757 1857.17,979.5 " />
<polyline fill="none" vector-effect="none" points="1859.72,966.243 1872.47,899.957 " />
<polyline fill="none" vector-effect="none" points="1875.01,886.7 1877.56,873.442 " />
<polyline fill="none" vector-effect="none" points="1880.11,860.185 1892.86,793.899 " />
<polyline fill="none" vector-effect="none" points="1895.4,780.642 1897.95,767.384 " />
<polyline fill="none" vector-effect="none" points="1900.5,754.127 1913.24,687.841 " />
<polyline fill="none" vector-effect="none" points="1915.79,674.584 1918.34,661.327 " />
<polyline fill="none" vector-effect="none" points="1920.89,648.069 1933.63,581.783 " />
<polyline fill="none" vector-effect="none" points="1936.18,568.526 1938.73,555.269 " />
<polyline fill="none" vector-effect="none" points="1941.28,542.011 1951.78,487.371 " />
<polyline fill="none" vector-effect="none" points="1596.9,563.798 1596.9,528.933 " />
<polyline fill="none" vector-effect="none" points="1596.9,515.433 1596.9,501.933 " />
<polyline fill="none" vector-effect="none" points="1596.9,488.433 1596.9,453.567 " />
<polyline fill="none" vector-effect="none" points="1951.78,487.371 1885.98,476.155 " />
<polyline fill="none" vector-effect="none" points="1872.67,473.925 1859.28,472.22 " />
<polyline fill="none" vector-effect="none" points="1845.89,470.515 1794.88,464.022 1778.85,462.666 " />
<polyline fill="none" vector-effect="none" points="1765.4,461.528 1751.95,460.39 " />
<polyline fill="none" vector-effect="none" points="1738.5,459.251 1715.83,457.333 1671.12,455.445 " />
<polyline fill="none" vector-effect="none" points="1657.63,454.875 1644.14,454.306 " />
<polyline fill="none" vector-effect="none" points="1630.65,453.986 1563.15,453.986 " />
<polyline fill="none" vector-effect="none" points="1549.66,454.306 1536.17,454.875 " />
<polyline fill="none" vector-effect="none" points="1522.68,455.445 1477.97,457.333 1455.3,459.251 " />
<polyline fill="none" vector-effect="none" points="1441.85,460.39 1428.4,461.528 " />
<polyline fill="none" vector-effect="none" points="1414.95,462.666 1398.92,464.022 1347.91,470.515 " />
<polyline fill="none" vector-effect="none" points="1334.52,472.22 1321.13,473.925 " />
<polyline fill="none" vector-effect="none" points="1307.82,476.155 1242.02,487.371 " />
<polyline fill="none" vector-effect="none" points="1596.9,453.567 1553.06,454.486 " />
<polyline fill="none" vector-effect="none" points="1539.56,454.768 1526.06,455.051 " />
<polyline fill="none" vector-effect="none" points="1512.58,455.569 1445.21,459.807 " />
<polyline fill="none" vector-effect="none" points="1431.76,460.984 1418.34,462.395 " />
<polyline fill="none" vector-effect="none" points="1404.91,463.806 1361.3,468.39 " />
</g>

<g fill="#000000" fill-opacity="1" stroke="#000000" stroke-opacity="1" stroke-width="5" stroke-linecap="round" stroke-linejoin="bevel" transform="matrix(1,0,0,1,0,0)"
font-family="Arial" font-size="12" font-weight="400" font-style="normal" 
>
<polyline fill="none" vector-effect="none" points="1602.81,718.725 1602.8,718.446 1602.78,718.168 1602.75,717.891 1602.7,717.615 1602.64,717.343 1602.57,717.073 1602.49,716.807 1602.39,716.546 1602.28,716.289 1602.16,716.038 1602.03,715.792 1601.88,715.553 1601.73,715.322 1601.56,715.098 1601.38,714.882 1601.2,714.674 1601,714.476 1600.8,714.287 1600.58,714.108 1600.36,713.939 1600.13,713.781 1599.89,713.634 1599.65,713.498 1599.4,713.374 1599.14,713.262 1598.88,713.162 1598.62,713.075 1598.35,713 1598.08,712.938 1597.8,712.889 1597.53,712.853 1597.25,712.83 1596.97,712.82 1596.69,712.823 1596.41,712.839 1596.14,712.869 1595.86,712.912 1595.59,712.967 1595.32,713.036 1595.05,713.117 1594.79,713.211 1594.53,713.317 1594.28,713.435 1594.03,713.565 1593.79,713.706 1593.55,713.859 1593.33,714.022 1593.11,714.196 1592.9,714.38 1592.7,714.574 1592.51,714.777 1592.33,714.989 1592.16,715.209 1591.99,715.437 1591.84,715.672 1591.71,715.914 1591.58,716.163 1591.46,716.417 1591.36,716.676 1591.27,716.94 1591.19,717.208 1591.13,717.479 1591.08,717.753 1591.04,718.029 1591.01,718.307 1591,718.585 1591,718.864 1591.01,719.143 1591.04,719.421 1591.08,719.697 1591.13,719.971 1591.19,720.242 1591.27,720.51 1591.36,720.774 1591.46,721.033 1591.58,721.287 1591.71,721.536 1591.84,721.778 1591.99,722.013 1592.16,722.241 1592.33,722.461 1592.51,722.673 1592.7,722.876 1592.9,723.07 1593.11,723.254 1593.33,723.428 1593.55,723.591 1593.79,723.744 1594.03,723.885 1594.28,724.015 1594.53,724.133 1594.79,724.239 1595.05,724.333 1595.32,724.414 1595.59,724.482 1595.86,724.538 1596.14,724.581 1596.41,724.61 1596.69,724.627 1596.97,724.63 1597.25,724.62 1597.53,724.597 1597.8,724.561 1598.08,724.512 1598.35,724.45 1598.62,724.375 1598.88,724.287 1599.14,724.187 1599.4,724.075 1599.65,723.951 1599.89,723.816 1600.13,723.669 1600.36,723.511 1600.58,723.342 1600.8,723.163 1601,722.974 1601.2,722.776 1601.38,722.568 1601.56,722.352 1601.73,722.128 1601.88,721.896 1602.03,721.657 1602.16,721.412 1602.28,721.161 1602.39,720.904 1602.49,720.642 1602.57,720.376 1602.64,720.107 1602.7,719.834 1602.75,719.559 1602.78,719.282 1602.8,719.004 1602.81,718.725 " />
<polyline fill="none" vector-effect="none" points="1602.81,1046.48 1602.8,1046.2 1602.78,1045.92 1602.75,1045.65 1602.7,1045.37 1602.64,1045.1 1602.57,1044.83 1602.49,1044.56 1602.39,1044.3 1602.28,1044.04 1602.16,1043.79 1602.03,1043.55 1601.88,1043.31 1601.73,1043.08 1601.56,1042.85 1601.38,1042.64 1601.2,1042.43 1601,1042.23 1600.8,1042.04 1600.58,1041.86 1600.36,1041.69 1600.13,1041.54 1599.89,1041.39 1599.65,1041.25 1599.4,1041.13 1599.14,1041.02 1598.88,1040.92 1598.62,1040.83 1598.35,1040.76 1598.08,1040.69 1597.8,1040.64 1597.53,1040.61 1597.25,1040.59 1596.97,1040.58 1596.69,1040.58 1596.41,1040.6 1596.14,1040.62 1595.86,1040.67 1595.59,1040.72 1595.32,1040.79 1595.05,1040.87 1594.79,1040.97 1594.53,1041.07 1594.28,1041.19 1594.03,1041.32 1593.79,1041.46 1593.55,1041.61 1593.33,1041.78 1593.11,1041.95 1592.9,1042.14 1592.7,1042.33 1592.51,1042.53 1592.33,1042.74 1592.16,1042.96 1591.99,1043.19 1591.84,1043.43 1591.71,1043.67 1591.58,1043.92 1591.46,1044.17 1591.36,1044.43 1591.27,1044.7 1591.19,1044.96 1591.13,1045.23 1591.08,1045.51 1591.04,1045.78 1591.01,1046.06 1591,1046.34 1591,1046.62 1591.01,1046.9 1591.04,1047.18 1591.08,1047.45 1591.13,1047.73 1591.19,1048 1591.27,1048.27 1591.36,1048.53 1591.46,1048.79 1591.58,1049.04 1591.71,1049.29 1591.84,1049.53 1591.99,1049.77 1592.16,1050 1592.33,1050.22 1592.51,1050.43 1592.7,1050.63 1592.9,1050.83 1593.11,1051.01 1593.33,1051.18 1593.55,1051.35 1593.79,1051.5 1594.03,1051.64 1594.28,1051.77 1594.53,1051.89 1594.79,1051.99 1595.05,1052.09 1595.32,1052.17 1595.59,1052.24 1595.86,1052.29 1596.14,1052.34 1596.41,1052.37 1596.69,1052.38 1596.97,1052.39 1597.25,1052.38 1597.53,1052.35 1597.8,1052.32 1598.08,1052.27 1598.35,1052.21 1598.62,1052.13 1598.88,1052.04 1599.14,1051.94 1599.4,1051.83 1599.65,1051.71 1599.89,1051.57 1600.13,1051.42 1600.36,1051.27 1600.58,1051.1 1600.8,1050.92 1601,1050.73 1601.2,1050.53 1601.38,1050.32 1601.56,1050.11 1601.73,1049.88 1601.88,1049.65 1602.03,1049.41 1602.16,1049.17 1602.28,1048.92 1602.39,1048.66 1602.49,1048.4 1602.57,1048.13 1602.64,1047.86 1602.7,1047.59 1602.75,1047.31 1602.78,1047.04 1602.8,1046.76 1602.81,1046.48 " />
<polyline fill="none" vector-effect="none" points="1326.2,894.545 1326.19,894.266 1326.17,893.988 1326.14,893.711 1326.09,893.436 1326.04,893.163 1325.96,892.893 1325.88,892.627 1325.78,892.366 1325.67,892.109 1325.55,891.858 1325.42,891.612 1325.28,891.374 1325.12,891.142 1324.95,890.918 1324.78,890.702 1324.59,890.494 1324.39,890.296 1324.19,890.107 1323.98,889.928 1323.75,889.759 1323.52,889.601 1323.29,889.454 1323.04,889.318 1322.79,889.194 1322.54,889.082 1322.28,888.983 1322.01,888.895 1321.74,888.82 1321.47,888.758 1321.2,888.709 1320.92,888.673 1320.64,888.65 1320.36,888.64 1320.08,888.643 1319.81,888.66 1319.53,888.689 1319.25,888.732 1318.98,888.788 1318.71,888.856 1318.44,888.937 1318.18,889.031 1317.92,889.137 1317.67,889.255 1317.42,889.385 1317.18,889.526 1316.95,889.679 1316.72,889.842 1316.5,890.016 1316.29,890.2 1316.09,890.394 1315.9,890.597 1315.72,890.809 1315.55,891.029 1315.39,891.257 1315.24,891.492 1315.1,891.734 1314.97,891.983 1314.86,892.237 1314.75,892.496 1314.66,892.76 1314.59,893.028 1314.52,893.299 1314.47,893.573 1314.43,893.849 1314.4,894.127 1314.39,894.406 1314.39,894.684 1314.4,894.963 1314.43,895.241 1314.47,895.517 1314.52,895.791 1314.59,896.062 1314.66,896.33 1314.75,896.594 1314.86,896.853 1314.97,897.107 1315.1,897.356 1315.24,897.598 1315.39,897.833 1315.55,898.061 1315.72,898.281 1315.9,898.493 1316.09,898.696 1316.29,898.89 1316.5,899.074 1316.72,899.248 1316.95,899.411 1317.18,899.564 1317.42,899.705 1317.67,899.835 1317.92,899.953 1318.18,900.059 1318.44,900.153 1318.71,900.234 1318.98,900.302 1319.25,900.358 1319.53,900.401 1319.81,900.43 1320.08,900.447 1320.36,900.45 1320.64,900.44 1320.92,900.417 1321.2,900.381 1321.47,900.332 1321.74,900.27 1322.01,900.195 1322.28,900.108 1322.54,900.008 1322.79,899.896 1323.04,899.772 1323.29,899.636 1323.52,899.489 1323.75,899.331 1323.98,899.162 1324.19,898.983 1324.39,898.794 1324.59,898.596 1324.78,898.388 1324.95,898.172 1325.12,897.948 1325.28,897.716 1325.42,897.478 1325.55,897.232 1325.67,896.981 1325.78,896.724 1325.88,896.463 1325.96,896.197 1326.04,895.927 1326.09,895.654 1326.14,895.379 1326.17,895.102 1326.19,894.824 1326.2,894.545 " />
<polyline fill="none" vector-effect="none" points="1381.02,577.752 1381.02,577.473 1381,577.195 1380.96,576.918 1380.92,576.643 1380.86,576.37 1380.79,576.1 1380.7,575.834 1380.61,575.573 1380.5,575.316 1380.38,575.065 1380.24,574.819 1380.1,574.58 1379.94,574.349 1379.78,574.125 1379.6,573.909 1379.41,573.701 1379.22,573.503 1379.01,573.314 1378.8,573.135 1378.58,572.966 1378.35,572.808 1378.11,572.661 1377.87,572.525 1377.62,572.401 1377.36,572.289 1377.1,572.189 1376.83,572.102 1376.57,572.027 1376.29,571.965 1376.02,571.916 1375.74,571.88 1375.47,571.857 1375.19,571.847 1374.91,571.85 1374.63,571.867 1374.35,571.896 1374.08,571.939 1373.8,571.994 1373.53,572.063 1373.27,572.144 1373,572.238 1372.74,572.344 1372.49,572.462 1372.24,572.592 1372,572.733 1371.77,572.886 1371.54,573.049 1371.33,573.223 1371.12,573.407 1370.92,573.601 1370.72,573.804 1370.54,574.016 1370.37,574.236 1370.21,574.464 1370.06,574.699 1369.92,574.941 1369.8,575.19 1369.68,575.444 1369.58,575.703 1369.49,575.967 1369.41,576.235 1369.34,576.506 1369.29,576.78 1369.25,577.056 1369.23,577.334 1369.21,577.612 1369.21,577.891 1369.23,578.17 1369.25,578.448 1369.29,578.724 1369.34,578.998 1369.41,579.269 1369.49,579.537 1369.58,579.801 1369.68,580.06 1369.8,580.314 1369.92,580.563 1370.06,580.805 1370.21,581.04 1370.37,581.268 1370.54,581.488 1370.72,581.7 1370.92,581.903 1371.12,582.097 1371.33,582.281 1371.54,582.455 1371.77,582.618 1372,582.771 1372.24,582.912 1372.49,583.042 1372.74,583.16 1373,583.266 1373.27,583.36 1373.53,583.441 1373.8,583.509 1374.08,583.565 1374.35,583.608 1374.63,583.637 1374.91,583.654 1375.19,583.657 1375.47,583.647 1375.74,583.624 1376.02,583.588 1376.29,583.539 1376.57,583.477 1376.83,583.402 1377.1,583.314 1377.36,583.214 1377.62,583.102 1377.87,582.978 1378.11,582.843 1378.35,582.696 1378.58,582.538 1378.8,582.369 1379.01,582.19 1379.22,582.001 1379.41,581.803 1379.6,581.595 1379.78,581.379 1379.94,581.155 1380.1,580.923 1380.24,580.684 1380.38,580.439 1380.5,580.188 1380.61,579.931 1380.7,579.669 1380.79,579.403 1380.86,579.134 1380.92,578.861 1380.96,578.586 1381,578.309 1381.02,578.031 1381.02,577.752 " />
<polyline fill="none" vector-effect="none" points="1879.41,894.545 1879.41,894.266 1879.39,893.988 1879.35,893.711 1879.31,893.436 1879.25,893.163 1879.18,892.893 1879.09,892.627 1879,892.366 1878.89,892.109 1878.77,891.858 1878.63,891.612 1878.49,891.374 1878.33,891.142 1878.17,890.918 1877.99,890.702 1877.8,890.494 1877.61,890.296 1877.4,890.107 1877.19,889.928 1876.97,889.759 1876.74,889.601 1876.5,889.454 1876.26,889.318 1876.01,889.194 1875.75,889.082 1875.49,888.983 1875.23,888.895 1874.96,888.82 1874.68,888.758 1874.41,888.709 1874.13,888.673 1873.86,888.65 1873.58,888.64 1873.3,888.643 1873.02,888.66 1872.74,888.689 1872.47,888.732 1872.19,888.788 1871.92,888.856 1871.66,888.937 1871.39,889.031 1871.13,889.137 1870.88,889.255 1870.63,889.385 1870.39,889.526 1870.16,889.679 1869.93,889.842 1869.72,890.016 1869.51,890.2 1869.31,890.394 1869.11,890.597 1868.93,890.809 1868.76,891.029 1868.6,891.257 1868.45,891.492 1868.31,891.734 1868.19,891.983 1868.07,892.237 1867.97,892.496 1867.88,892.76 1867.8,893.028 1867.73,893.299 1867.68,893.573 1867.64,893.849 1867.62,894.127 1867.6,894.406 1867.6,894.684 1867.62,894.963 1867.64,895.241 1867.68,895.517 1867.73,895.791 1867.8,896.062 1867.88,896.33 1867.97,896.594 1868.07,896.853 1868.19,897.107 1868.31,897.356 1868.45,897.598 1868.6,897.833 1868.76,898.061 1868.93,898.281 1869.11,898.493 1869.31,898.696 1869.51,898.89 1869.72,899.074 1869.93,899.248 1870.16,899.411 1870.39,899.564 1870.63,899.705 1870.88,899.835 1871.13,899.953 1871.39,900.059 1871.66,900.153 1871.92,900.234 1872.19,900.302 1872.47,900.358 1872.74,900.401 1873.02,900.43 1873.3,900.447 1873.58,900.45 1873.86,900.44 1874.13,900.417 1874.41,900.381 1874.68,900.332 1874.96,900.27 1875.23,900.195 1875.49,900.108 1875.75,900.008 1876.01,899.896 1876.26,899.772 1876.5,899.636 1876.74,899.489 1876.97,899.331 1877.19,899.162 1877.4,898.983 1877.61,898.794 1877.8,898.596 1877.99,898.388 1878.17,898.172 1878.33,897.948 1878.49,897.716 1878.63,897.478 1878.77,897.232 1878.89,896.981 1879,896.724 1879.09,896.463 1879.18,896.197 1879.25,895.927 1879.31,895.654 1879.35,895.379 1879.39,895.102 1879.41,894.824 1879.41,894.545 " />
<polyline fill="none" vector-effect="none" points="1602.81,563.798 1602.8,563.52 1602.78,563.241 1602.75,562.964 1602.7,562.689 1602.64,562.416 1602.57,562.147 1602.49,561.881 1602.39,561.619 1602.28,561.362 1602.16,561.111 1602.03,560.866 1601.88,560.627 1601.73,560.395 1601.56,560.171 1601.38,559.955 1601.2,559.748 1601,559.549 1600.8,559.36 1600.58,559.181 1600.36,559.013 1600.13,558.855 1599.89,558.707 1599.65,558.572 1599.4,558.448 1599.14,558.336 1598.88,558.236 1598.62,558.148 1598.35,558.074 1598.08,558.012 1597.8,557.962 1597.53,557.926 1597.25,557.903 1596.97,557.893 1596.69,557.897 1596.41,557.913 1596.14,557.943 1595.86,557.985 1595.59,558.041 1595.32,558.109 1595.05,558.191 1594.79,558.284 1594.53,558.39 1594.28,558.508 1594.03,558.638 1593.79,558.78 1593.55,558.932 1593.33,559.096 1593.11,559.27 1592.9,559.454 1592.7,559.647 1592.51,559.85 1592.33,560.062 1592.16,560.282 1591.99,560.51 1591.84,560.746 1591.71,560.988 1591.58,561.236 1591.46,561.49 1591.36,561.75 1591.27,562.013 1591.19,562.281 1591.13,562.552 1591.08,562.826 1591.04,563.103 1591.01,563.38 1591,563.659 1591,563.938 1591.01,564.217 1591.04,564.494 1591.08,564.77 1591.13,565.044 1591.19,565.316 1591.27,565.583 1591.36,565.847 1591.46,566.107 1591.58,566.361 1591.71,566.609 1591.84,566.851 1591.99,567.087 1592.16,567.315 1592.33,567.535 1592.51,567.747 1592.7,567.95 1592.9,568.143 1593.11,568.327 1593.33,568.501 1593.55,568.665 1593.79,568.817 1594.03,568.959 1594.28,569.088 1594.53,569.207 1594.79,569.313 1595.05,569.406 1595.32,569.487 1595.59,569.556 1595.86,569.611 1596.14,569.654 1596.41,569.684 1596.69,569.7 1596.97,569.704 1597.25,569.694 1597.53,569.671 1597.8,569.634 1598.08,569.585 1598.35,569.523 1598.62,569.448 1598.88,569.361 1599.14,569.261 1599.4,569.149 1599.65,569.025 1599.89,568.889 1600.13,568.742 1600.36,568.584 1600.58,568.416 1600.8,568.236 1601,568.048 1601.2,567.849 1601.38,567.642 1601.56,567.426 1601.73,567.202 1601.88,566.97 1602.03,566.731 1602.16,566.486 1602.28,566.234 1602.39,565.978 1602.49,565.716 1602.57,565.45 1602.64,565.18 1602.7,564.908 1602.75,564.633 1602.78,564.356 1602.8,564.077 1602.81,563.798 " />
</g>

<g fill="#000000" fill-opacity="1" stroke="none" transform="matrix(1,0,0,1,0,0)"
font-family="Arial" font-size="12" font-weight="400" font-style="normal" 
>
<path vector-effect="none" fill-rule="evenodd" d="M1085.65,810.036 L1090.34,810.036 L1076.36,774.036 L1072.29,774.036 L1058.28,810.036 L1062.84,810.036 L1067.11,798.927 L1081.34,798.927 L1085.65,810.036 M1079.99,794.929 L1068.63,794.929 L1072.7,784.066 L1073.49,781.509 L1074.25,778.695 L1075.96,784.066 L1079.99,794.929"/>
</g>

<g fill="#000000" fill-opacity="1" stroke="#000000" stroke-opacity="1" stroke-width="3" stroke-linecap="round" stroke-linejoin="bevel" transform="matrix(1,0,0,1,0,0)"
font-family="Arial" font-size="12" font-weight="400" font-style="normal" 
>
</g>

<g fill="#000000" fill-opacity="1" stroke="none" transform="matrix(1,0,0,1,0,0)"
font-family="Arial" font-size="12" font-weight="400" font-style="normal" 
>
<path vector-effect="none" fill-rule="evenodd" d="M1280.91,856.518 L1320.29,894.545 L1270.71,871.346 L1280.91,856.518"/>
</g>

<g fill="#000000" fill-opacity="1" stroke="#000000" stroke-opacity="1" stroke-width="3" stroke-linecap="round" stroke-linejoin="bevel" transform="matrix(1,0,0,1,0,0)"
font-family="Arial" font-size="12" font-weight="400" font-style="normal" 
>
<polyline fill="none" vector-effect="none" points="1320.29,894.545 1171.34,792.036 1117.34,792.036 " />
</g>

<g fill="#000000" fill-opacity="1" stroke="none" transform="matrix(1,0,0,1,0,0)"
font-family="Arial" font-size="12" font-weight="400" font-style="normal" 
>
<path vector-effect="none" fill-rule="evenodd" d="M2091.53,1046.59 L2091.53,1082.45 L2104.14,1082.45 L2106.91,1082.28 L2109.36,1081.78 L2111.5,1080.93 L2113.31,1079.75 L2114.74,1078.27 L2115.76,1076.54 L2116.38,1074.52 L2116.59,1072.24 L2116.47,1070.56 L2116.1,1069.06 L2115.49,1067.7 L2114.63,1066.53 L2113.52,1065.54 L2112.13,1064.74 L2110.47,1064.11 L2108.55,1063.66 L2108.55,1063.42 L2110.11,1063.03 L2111.47,1062.46 L2112.64,1061.69 L2113.63,1060.74 L2114.38,1059.64 L2114.93,1058.39 L2115.26,1057 L2115.37,1055.47 L2115.16,1053.34 L2114.56,1051.5 L2113.55,1049.98 L2112.15,1048.75 L2110.31,1047.81 L2107.96,1047.13 L2105.11,1046.73 L2101.76,1046.59 L2091.53,1046.59 M2096.04,1065.62 L2102.93,1065.62 L2105,1065.72 L2106.78,1066.02 L2108.31,1066.5 L2109.56,1067.17 L2110.51,1068.05 L2111.2,1069.13 L2111.62,1070.41 L2111.76,1071.9 L2111.63,1073.49 L2111.22,1074.87 L2110.58,1076.01 L2109.68,1076.95 L2108.49,1077.68 L2107.03,1078.2 L2105.29,1078.52 L2103.28,1078.62 L2096.04,1078.62 L2096.04,1065.62 M2096.04,1061.85 L2096.04,1050.44 L2101.98,1050.44 L2104.09,1050.53 L2105.9,1050.79 L2107.4,1051.18 L2108.6,1051.74 L2109.51,1052.5 L2110.17,1053.46 L2110.57,1054.62 L2110.71,1055.99 L2110.58,1057.46 L2110.22,1058.71 L2109.63,1059.74 L2108.79,1060.5 L2107.69,1061.1 L2106.29,1061.53 L2104.63,1061.77 L2102.66,1061.85 L2096.04,1061.85"/>
</g>

<g fill="#000000" fill-opacity="1" stroke="#000000" stroke-opacity="1" stroke-width="3" stroke-linecap="round" stroke-linejoin="bevel" transform="matrix(1,0,0,1,0,0)"
font-family="Arial" font-size="12" font-weight="400" font-style="normal" 
>
</g>

<g fill="#000000" fill-opacity="1" stroke="none" transform="matrix(1,0,0,1,0,0)"
font-family="Arial" font-size="12" font-weight="400" font-style="normal" 
>
<path vector-effect="none" fill-rule="evenodd" d="M1900.4,942.228 L1873.51,894.545 L1914.41,930.929 L1900.4,942.228"/>
</g>

<g fill="#000000" fill-opacity="1" stroke="#000000" stroke-opacity="1" stroke-width="3" stroke-linecap="round" stroke-linejoin="bevel" transform="matrix(1,0,0,1,0,0)"
font-family="Arial" font-size="12" font-weight="400" font-style="normal" 
>
<polyline fill="none" vector-effect="none" points="1873.51,894.545 2010.53,1064.45 2064.53,1064.45 " />
</g>

<g fill="#000000" fill-opacity="1" stroke="none" transform="matrix(1,0,0,1,0,0)"
font-family="Arial" font-size="12" font-weight="400" font-style="normal" 
>
<path vector-effect="none" fill-rule="evenodd" d="M2108.28,626.07 L2112.97,626.07 L2098.99,590.07 L2094.92,590.07 L2080.92,626.07 L2085.48,626.07 L2089.75,614.961 L2103.97,614.961 L2108.28,626.07 M2102.62,610.964 L2091.27,610.964 L2095.34,600.1 L2096.13,597.544 L2096.88,594.73 L2098.6,600.1 L2102.62,610.964"/>
</g>

<g fill="#000000" fill-opacity="1" stroke="none" transform="matrix(1,0,0,1,0,0)"
font-family="Arial" font-size="12" font-weight="400" font-style="normal" 
>
<path vector-effect="none" fill-rule="evenodd" d="M2117.9,590.218 L2117.9,626.07 L2130.5,626.07 L2133.28,625.905 L2135.73,625.408 L2137.87,624.556 L2139.67,623.373 L2141.11,621.895 L2142.13,620.16 L2142.75,618.143 L2142.96,615.869 L2142.84,614.189 L2142.47,612.681 L2141.86,611.326 L2141,610.155 L2139.88,609.168 L2138.5,608.365 L2136.84,607.739 L2134.92,607.286 L2134.92,607.04 L2136.48,606.654 L2137.84,606.084 L2139.01,605.312 L2139.99,604.367 L2140.75,603.264 L2141.29,602.013 L2141.62,600.622 L2141.73,599.095 L2141.53,596.961 L2140.93,595.122 L2139.92,593.602 L2138.52,592.376 L2136.68,591.431 L2134.33,590.757 L2131.48,590.352 L2128.12,590.218 L2117.9,590.218 M2122.41,609.248 L2129.3,609.248 L2131.37,609.346 L2133.15,609.64 L2134.68,610.124 L2135.92,610.792 L2136.88,611.675 L2137.57,612.754 L2137.99,614.036 L2138.13,615.525 L2137.99,617.113 L2137.59,618.493 L2136.95,619.639 L2136.05,620.577 L2134.86,621.307 L2133.4,621.828 L2131.66,622.141 L2129.64,622.245 L2122.41,622.245 L2122.41,609.248 M2122.41,605.471 L2122.41,594.068 L2128.34,594.068 L2130.45,594.154 L2132.27,594.411 L2133.76,594.81 L2134.97,595.367 L2135.87,596.128 L2136.54,597.084 L2136.94,598.243 L2137.08,599.61 L2136.95,601.087 L2136.58,602.332 L2136,603.362 L2135.16,604.122 L2134.06,604.723 L2132.66,605.152 L2130.99,605.391 L2129.03,605.471 L2122.41,605.471"/>
</g>

<g fill="#000000" fill-opacity="1" stroke="#000000" stroke-opacity="1" stroke-width="3" stroke-linecap="round" stroke-linejoin="bevel" transform="matrix(1,0,0,1,0,0)"
font-family="Arial" font-size="12" font-weight="400" font-style="normal" 
>
</g>

<g fill="#000000" fill-opacity="1" stroke="none" transform="matrix(1,0,0,1,0,0)"
font-family="Arial" font-size="12" font-weight="400" font-style="normal" 
>
<path vector-effect="none" fill-rule="evenodd" d="M1651.36,713.106 L1596.9,718.725 L1646.59,695.749 L1651.36,713.106"/>
</g>

<g fill="#000000" fill-opacity="1" stroke="#000000" stroke-opacity="1" stroke-width="3" stroke-linecap="round" stroke-linejoin="bevel" transform="matrix(1,0,0,1,0,0)"
font-family="Arial" font-size="12" font-weight="400" font-style="normal" 
>
<polyline fill="none" vector-effect="none" points="1596.9,718.725 1999.92,608.07 2053.92,608.07 " />
</g>

<g fill="#000000" fill-opacity="1" stroke="none" transform="matrix(1,0,0,1,0,0)"
font-family="Arial" font-size="12" font-weight="400" font-style="normal" 
>
<path vector-effect="none" fill-rule="evenodd" d="M1000.22,424.101 L1000.22,459.954 L1012.83,459.954 L1015.61,459.789 L1018.05,459.292 L1020.19,458.44 L1022,457.257 L1023.43,455.779 L1024.45,454.044 L1025.08,452.027 L1025.29,449.752 L1025.16,448.073 L1024.8,446.564 L1024.18,445.21 L1023.32,444.039 L1022.21,443.052 L1020.82,442.248 L1019.17,441.623 L1017.24,441.169 L1017.24,440.924 L1018.81,440.538 L1020.16,439.968 L1021.34,439.195 L1022.32,438.251 L1023.07,437.148 L1023.62,435.897 L1023.95,434.505 L1024.06,432.979 L1023.86,430.845 L1023.25,429.006 L1022.25,427.485 L1020.85,426.259 L1019,425.315 L1016.65,424.641 L1013.8,424.236 L1010.45,424.101 L1000.22,424.101 M1004.74,443.131 L1011.63,443.131 L1013.69,443.229 L1015.48,443.524 L1017,444.008 L1018.25,444.676 L1019.2,445.559 L1019.89,446.638 L1020.31,447.919 L1020.46,449.409 L1020.32,450.997 L1019.92,452.376 L1019.27,453.523 L1018.37,454.461 L1017.18,455.191 L1015.72,455.712 L1013.99,456.024 L1011.97,456.129 L1004.74,456.129 L1004.74,443.131 M1004.74,439.355 L1004.74,427.951 L1010.67,427.951 L1012.78,428.037 L1014.59,428.295 L1016.09,428.693 L1017.29,429.251 L1018.2,430.011 L1018.86,430.968 L1019.27,432.126 L1019.4,433.494 L1019.28,434.971 L1018.91,436.216 L1018.32,437.246 L1017.49,438.006 L1016.38,438.607 L1014.99,439.036 L1013.32,439.275 L1011.36,439.355 L1004.74,439.355"/>
</g>

<g fill="#000000" fill-opacity="1" stroke="#000000" stroke-opacity="1" stroke-width="1" stroke-linecap="round" stroke-linejoin="bevel" transform="matrix(1,0,0,1,0,0)"
font-family="Arial" font-size="12" font-weight="400" font-style="normal" 
>
</g>

<g fill="#000000" fill-opacity="1" stroke="none" transform="matrix(1,0,0,1,0,0)"
font-family="Arial" font-size="12" font-weight="400" font-style="normal" 
>
<path vector-effect="none" fill-rule="evenodd" d="M1048.22,427.559 L1050.17,427.682 L1052.18,428.049 L1054.24,428.663 L1056.36,429.521 L1058.17,425.695 L1055.97,424.773 L1053.59,424.114 L1051.02,423.718 L1048.26,423.586 L1045.7,423.727 L1043.31,424.15 L1041.09,424.855 L1039.04,425.842 L1037.2,427.093 L1035.59,428.589 L1034.22,430.306 L1033.08,432.267 L1032.19,434.438 L1031.56,436.78 L1031.18,439.293 L1031.05,441.979 L1031.12,444.124 L1031.31,446.148 L1031.64,448.048 L1032.1,449.826 L1032.71,451.468 L1033.45,452.983 L1034.32,454.374 L1035.32,455.638 L1036.44,456.765 L1037.68,457.741 L1039.04,458.567 L1040.52,459.243 L1042.09,459.769 L1043.79,460.144 L1045.6,460.369 L1047.53,460.445 L1050.12,460.365 L1052.38,460.126 L1054.54,459.697 L1056.77,458.998 L1056.77,455.074 L1054.44,455.696 L1052.23,456.141 L1050.14,456.407 L1048.17,456.496 L1045.36,456.263 L1042.89,455.564 L1041.8,455.039 L1040.78,454.393 L1039.86,453.629 L1039.02,452.744 L1037.6,450.66 L1036.59,448.183 L1036,445.308 L1035.81,442.028 L1036.01,438.846 L1036.62,436.02 L1037.66,433.549 L1039.12,431.434 L1039.98,430.526 L1040.92,429.742 L1041.94,429.079 L1043.04,428.54 L1044.22,428.111 L1045.47,427.804 L1046.81,427.62 L1048.22,427.559"/>
</g>

<g fill="#000000" fill-opacity="1" stroke="#000000" stroke-opacity="1" stroke-width="1" stroke-linecap="round" stroke-linejoin="bevel" transform="matrix(1,0,0,1,0,0)"
font-family="Arial" font-size="12" font-weight="400" font-style="normal" 
>
</g>

<g fill="#000000" fill-opacity="1" stroke="#000000" stroke-opacity="1" stroke-width="3" stroke-linecap="round" stroke-linejoin="bevel" transform="matrix(1,0,0,1,0,0)"
font-family="Arial" font-size="12" font-weight="400" font-style="normal" 
>
</g>

<g fill="#000000" fill-opacity="1" stroke="none" transform="matrix(1,0,0,1,0,0)"
font-family="Arial" font-size="12" font-weight="400" font-style="normal" 
>
<path vector-effect="none" fill-rule="evenodd" d="M1332.78,543.042 L1375.12,577.752 L1323.81,558.648 L1332.78,543.042"/>
</g>

<g fill="#000000" fill-opacity="1" stroke="#000000" stroke-opacity="1" stroke-width="3" stroke-linecap="round" stroke-linejoin="bevel" transform="matrix(1,0,0,1,0,0)"
font-family="Arial" font-size="12" font-weight="400" font-style="normal" 
>
<polyline fill="none" vector-effect="none" points="1375.12,577.752 1138.93,442.015 1084.93,442.015 " />
</g>

<g fill="#000000" fill-opacity="1" stroke="#000000" stroke-opacity="1" stroke-width="2" stroke-linecap="round" stroke-linejoin="bevel" transform="matrix(1,0,0,1,0,0)"
font-family="Arial" font-size="12" font-weight="400" font-style="normal" 
>
<polyline fill="none" vector-effect="none" points="1556.9,794.805 1596.9,718.725 " />
<polyline fill="none" vector-effect="none" points="1477.44,945.933 1444.38,1008.83 " />
</g>

<g fill="#000000" fill-opacity="1" stroke="none" transform="matrix(1,0,0,1,0,0)"
font-family="Arial" font-size="12" font-weight="400" font-style="normal" 
>
<path vector-effect="none" fill-rule="evenodd" d="M1477.48,842.993 L1484.62,842.993 L1493.3,857.805 L1498.57,857.805 L1488.74,841.742 L1490.41,841.055 L1491.85,840.222 L1493.09,839.241 L1494.11,838.113 L1494.9,836.837 L1495.46,835.415 L1495.81,833.846 L1495.92,832.129 L1495.72,829.744 L1495.11,827.69 L1494.11,825.937 L1492.71,824.502 L1490.9,823.386 L1488.64,822.589 L1485.97,822.111 L1482.85,821.952 L1472.97,821.952 L1472.97,857.805 L1477.48,857.805 L1477.48,842.993 M1477.48,839.167 L1477.48,825.851 L1482.61,825.851 L1484.73,825.949 L1486.53,826.243 L1488.02,826.734 L1489.2,827.42 L1490.09,828.316 L1490.72,829.431 L1491.11,830.774 L1491.24,832.35 L1491.11,833.937 L1490.72,835.317 L1490.1,836.488 L1489.23,837.45 L1488.07,838.205 L1486.63,838.75 L1484.89,839.063 L1482.85,839.167 L1477.48,839.167"/>
</g>

<g fill="#000000" fill-opacity="1" stroke="none" transform="matrix(1,0,0,1,0,0)"
font-family="Arial" font-size="12" font-weight="400" font-style="normal" 
>
<path vector-effect="none" fill-rule="evenodd" d="M1526.7,857.805 L1531.38,857.805 L1517.4,821.805 L1513.33,821.805 L1499.33,857.805 L1503.89,857.805 L1508.16,846.696 L1522.38,846.696 L1526.7,857.805 M1521.03,842.698 L1509.68,842.698 L1513.75,831.835 L1514.54,829.278 L1515.3,826.464 L1517.01,831.835 L1521.03,842.698"/>
</g>

<g fill="#000000" fill-opacity="1" stroke="none" transform="matrix(1,0,0,1,0,0)"
font-family="Arial" font-size="12" font-weight="400" font-style="normal" 
>
<path vector-effect="none" fill-rule="evenodd" d="M1536.31,821.952 L1536.31,857.805 L1548.92,857.805 L1551.69,857.639 L1554.14,857.143 L1556.28,856.29 L1558.09,855.107 L1559.52,853.63 L1560.54,851.895 L1561.17,849.878 L1561.37,847.603 L1561.25,845.923 L1560.88,844.415 L1560.27,843.06 L1559.41,841.889 L1558.3,840.902 L1556.91,840.099 L1555.26,839.474 L1553.33,839.02 L1553.33,838.775 L1554.89,838.388 L1556.25,837.818 L1557.43,837.046 L1558.41,836.102 L1559.16,834.998 L1559.71,833.747 L1560.04,832.356 L1560.15,830.829 L1559.95,828.696 L1559.34,826.856 L1558.33,825.336 L1556.94,824.11 L1555.09,823.166 L1552.74,822.491 L1549.89,822.087 L1546.54,821.952 L1536.31,821.952 M1540.82,840.982 L1547.72,840.982 L1549.78,841.08 L1551.57,841.374 L1553.09,841.858 L1554.34,842.527 L1555.29,843.41 L1555.98,844.489 L1556.4,845.77 L1556.54,847.26 L1556.41,848.848 L1556,850.227 L1555.36,851.373 L1554.46,852.311 L1553.27,853.041 L1551.81,853.562 L1550.08,853.875 L1548.06,853.979 L1540.82,853.979 L1540.82,840.982 M1540.82,837.205 L1540.82,825.802 L1546.76,825.802 L1548.87,825.888 L1550.68,826.145 L1552.18,826.544 L1553.38,827.102 L1554.29,827.862 L1554.95,828.818 L1555.35,829.977 L1555.49,831.344 L1555.37,832.822 L1555,834.066 L1554.41,835.096 L1553.58,835.856 L1552.47,836.457 L1551.07,836.886 L1549.41,837.125 L1547.45,837.205 L1540.82,837.205"/>
</g>

<g fill="#000000" fill-opacity="1" stroke="none" transform="matrix(1,0,0,1,0,0)"
font-family="Arial" font-size="12" font-weight="400" font-style="normal" 
>
<path vector-effect="none" fill-rule="evenodd" d="M1459.87,903.201 L1467.01,903.201 L1475.69,918.013 L1480.96,918.013 L1471.13,901.95 L1472.8,901.264 L1474.24,900.43 L1475.48,899.449 L1476.5,898.321 L1477.29,897.046 L1477.85,895.623 L1478.2,894.054 L1478.31,892.337 L1478.11,889.952 L1477.51,887.899 L1476.5,886.145 L1475.1,884.711 L1473.29,883.595 L1471.03,882.798 L1468.36,882.32 L1465.24,882.16 L1455.36,882.16 L1455.36,918.013 L1459.87,918.013 L1459.87,903.201 M1459.87,899.375 L1459.87,886.059 L1465,886.059 L1467.12,886.158 L1468.92,886.452 L1470.41,886.942 L1471.6,887.629 L1472.48,888.524 L1473.12,889.64 L1473.5,890.982 L1473.63,892.558 L1473.5,894.146 L1473.12,895.525 L1472.5,896.696 L1471.62,897.659 L1470.47,898.413 L1469.02,898.959 L1467.28,899.271 L1465.24,899.375 L1459.87,899.375"/>
</g>

<g fill="#000000" fill-opacity="1" stroke="none" transform="matrix(1,0,0,1,0,0)"
font-family="Arial" font-size="12" font-weight="400" font-style="normal" 
>
<path vector-effect="none" fill-rule="evenodd" d="M1507.99,900.038 L1507.94,897.849 L1507.79,895.795 L1507.55,893.876 L1507.2,892.092 L1506.78,890.443 L1506.25,888.929 L1505.64,887.549 L1504.92,886.305 L1504.12,885.201 L1503.22,884.245 L1502.24,883.435 L1501.17,882.773 L1500.02,882.258 L1498.79,881.89 L1497.46,881.67 L1496.05,881.596 L1494.58,881.668 L1493.21,881.884 L1491.94,882.245 L1490.77,882.749 L1489.69,883.386 L1488.71,884.171 L1487.84,885.078 L1487.07,886.133 L1486.39,887.348 L1485.8,888.714 L1485.3,890.23 L1484.89,891.896 L1484.58,893.701 L1484.35,895.66 L1484.22,897.772 L1484.18,900.038 L1484.22,902.239 L1484.36,904.305 L1484.59,906.236 L1484.91,908.032 L1485.34,909.681 L1485.86,911.196 L1486.48,912.575 L1487.19,913.82 L1487.98,914.923 L1488.87,915.88 L1489.84,916.689 L1490.9,917.351 L1492.05,917.855 L1493.3,918.215 L1494.63,918.432 L1496.05,918.504 L1497.5,918.433 L1498.87,918.222 L1500.13,917.869 L1501.29,917.375 L1502.37,916.738 L1503.35,915.953 L1504.24,915.021 L1505.02,913.942 L1505.71,912.728 L1506.31,911.367 L1506.81,909.859 L1507.23,908.204 L1507.56,906.388 L1507.8,904.421 L1507.94,902.304 L1507.99,900.038 M1488.61,900.038 L1488.72,896.451 L1489.05,893.392 L1489.59,890.86 L1490.36,888.855 L1491.36,887.335 L1492.66,886.256 L1494.21,885.593 L1496.05,885.373 L1497.86,885.618 L1499.43,886.28 L1500.7,887.384 L1501.73,888.929 L1502.52,890.956 L1503.08,893.484 L1503.41,896.511 L1503.52,900.038 L1503.41,903.597 L1503.08,906.647 L1502.52,909.188 L1501.73,911.22 L1500.7,912.765 L1499.43,913.869 L1497.86,914.531 L1496.05,914.752 L1494.23,914.555 L1492.69,913.893 L1491.39,912.814 L1490.38,911.294 L1489.97,910.361 L1489.61,909.294 L1489.3,908.09 L1489.06,906.751 L1488.86,905.276 L1488.72,903.666 L1488.64,901.919 L1488.61,900.038"/>
</g>

<g fill="#000000" fill-opacity="1" stroke="#000000" stroke-opacity="1" stroke-width="1" stroke-linecap="round" stroke-linejoin="bevel" transform="matrix(1,0,0,1,0,0)"
font-family="Arial" font-size="12" font-weight="400" font-style="normal" 
>
</g>

<g fill="#000000" fill-opacity="1" stroke="none" transform="matrix(1,0,0,1,0,0)"
font-family="Arial" font-size="12" font-weight="400" font-style="normal" 
>
<path vector-effect="none" fill-rule="evenodd" d="M1514.05,915.291 L1514.24,916.738 L1514.49,917.326 L1514.85,917.817 L1515.29,918.222 L1515.81,918.504 L1517.11,918.724 L1518.43,918.504 L1518.98,918.222 L1519.44,917.817 L1520.05,916.738 L1520.27,915.291 L1520.22,914.531 L1520.05,913.869 L1519.44,912.814 L1518.43,912.152 L1517.11,911.931 L1515.79,912.152 L1514.83,912.814 L1514.24,913.869 L1514.05,915.291"/>
</g>

<g fill="#000000" fill-opacity="1" stroke="#000000" stroke-opacity="1" stroke-width="1" stroke-linecap="round" stroke-linejoin="bevel" transform="matrix(1,0,0,1,0,0)"
font-family="Arial" font-size="12" font-weight="400" font-style="normal" 
>
</g>

<g fill="#000000" fill-opacity="1" stroke="none" transform="matrix(1,0,0,1,0,0)"
font-family="Arial" font-size="12" font-weight="400" font-style="normal" 
>
<path vector-effect="none" fill-rule="evenodd" d="M1537.71,896.016 L1534.98,896.157 L1532.19,896.58 L1533.05,886.182 L1547.25,886.182 L1547.25,882.16 L1529.27,882.16 L1527.93,899.081 L1530.13,900.479 L1533.28,899.927 L1536.26,899.743 L1538.36,899.86 L1540.19,900.209 L1541.72,900.767 L1542.98,901.558 L1543.97,902.582 L1544.67,903.839 L1545.1,905.304 L1545.24,907.002 L1545.09,908.762 L1544.65,910.313 L1543.94,911.631 L1542.93,912.741 L1541.66,913.623 L1540.14,914.261 L1538.4,914.629 L1536.41,914.752 L1533.95,914.592 L1531.43,914.114 L1529.07,913.366 L1527.07,912.397 L1527.07,916.566 L1528.88,917.425 L1531.02,918.038 L1533.52,918.387 L1536.36,918.504 L1539.33,918.307 L1541.98,917.719 L1544.26,916.732 L1546.22,915.34 L1547.76,913.599 L1548.87,911.563 L1549.55,909.209 L1549.78,906.561 L1549.57,904.243 L1548.97,902.196 L1547.95,900.387 L1546.54,898.836 L1544.77,897.61 L1542.71,896.727 L1540.36,896.194 L1537.71,896.016"/>
</g>

<g fill="#000000" fill-opacity="1" stroke="#000000" stroke-opacity="1" stroke-width="1" stroke-linecap="round" stroke-linejoin="bevel" transform="matrix(1,0,0,1,0,0)"
font-family="Arial" font-size="12" font-weight="400" font-style="normal" 
>
</g>

<g fill="#000000" fill-opacity="1" stroke="none" transform="matrix(1,0,0,1,0,0)"
font-family="Arial" font-size="12" font-weight="400" font-style="normal" 
>
<path vector-effect="none" fill-rule="evenodd" d="M1555.39,902.686 L1555.48,905.057 L1555.77,907.266 L1556.23,909.312 L1556.89,911.196 L1557.7,912.882 L1558.68,914.359 L1559.83,915.604 L1561.13,916.64 L1562.56,917.455 L1564.12,918.038 L1565.8,918.387 L1567.58,918.504 L1570.07,918.301 L1572.29,917.694 L1574.24,916.683 L1575.92,915.266 L1577.25,913.507 L1578.2,911.465 L1578.79,909.111 L1578.98,906.463 L1578.8,904.09 L1578.27,901.975 L1577.41,900.117 L1576.21,898.517 L1574.68,897.23 L1572.9,896.31 L1570.88,895.758 L1568.58,895.574 L1567.19,895.64 L1565.88,895.838 L1564.67,896.168 L1563.56,896.629 L1562.55,897.23 L1561.62,897.953 L1560.81,898.805 L1560.1,899.792 L1559.81,899.792 L1559.92,897.968 L1560.12,896.273 L1560.41,894.707 L1560.79,893.269 L1561.25,891.948 L1561.79,890.756 L1562.42,889.692 L1563.14,888.757 L1564.83,887.237 L1566.84,886.158 L1569.2,885.495 L1571.9,885.275 L1574.22,885.422 L1576.24,885.863 L1576.24,882.111 L1575.36,881.907 L1574.33,881.762 L1573.14,881.674 L1571.8,881.645 L1569.8,881.728 L1567.94,881.976 L1566.21,882.39 L1564.61,882.969 L1563.13,883.713 L1561.79,884.619 L1560.57,885.687 L1559.49,886.918 L1558.52,888.312 L1557.68,889.873 L1556.98,891.599 L1556.4,893.49 L1555.96,895.545 L1555.64,897.763 L1555.45,900.143 L1555.39,902.686 M1567.53,914.801 L1566.44,914.727 L1565.42,914.506 L1564.45,914.114 L1563.56,913.574 L1562.72,912.906 L1561.99,912.128 L1561.37,911.232 L1560.84,910.215 L1560.1,907.983 L1559.85,905.604 L1560.1,903.961 L1560.91,902.367 L1562.16,900.969 L1563.75,899.915 L1565.63,899.253 L1567.68,899.032 L1569.25,899.155 L1570.64,899.523 L1571.83,900.13 L1572.83,900.969 L1573.6,902.03 L1574.15,903.299 L1574.5,904.777 L1574.62,906.463 L1574.5,908.339 L1574.15,909.994 L1573.57,911.422 L1572.78,912.618 L1571.75,913.581 L1570.55,914.261 L1569.13,914.666 L1567.53,914.801"/>
</g>

<g fill="#000000" fill-opacity="1" stroke="#000000" stroke-opacity="1" stroke-width="3" stroke-linecap="round" stroke-linejoin="bevel" transform="matrix(1,0,0,1,0,0)"
font-family="Arial" font-size="12" font-weight="400" font-style="normal" 
>
</g>

<g fill="#000000" fill-opacity="1" stroke="none" transform="matrix(1,0,0,1,0,0)"
font-family="Arial" font-size="12" font-weight="400" font-style="normal" 
>
<path vector-effect="none" fill-rule="evenodd" d="M1477.47,965.22 L1444.38,1008.83 L1461.54,956.844 L1477.47,965.22"/>
</g>

<g fill="#000000" fill-opacity="1" stroke="#000000" stroke-opacity="1" stroke-width="3" stroke-linecap="round" stroke-linejoin="bevel" transform="matrix(1,0,0,1,0,0)"
font-family="Arial" font-size="12" font-weight="400" font-style="normal" 
>
</g>

<g fill="#000000" fill-opacity="1" stroke="#000000" stroke-opacity="1" stroke-width="2" stroke-linecap="round" stroke-linejoin="bevel" transform="matrix(1,0,0,1,0,0)"
font-family="Arial" font-size="12" font-weight="400" font-style="normal" 
>
<polyline fill="none" vector-effect="none" points="1150.49,1312.03 1596.9,2333.35 " />
<polyline fill="none" vector-effect="none" points="1084.3,1160.59 844.04,610.914 " />
</g>

<g fill="#000000" fill-opacity="1" stroke="none" transform="matrix(1,0,0,1,0,0)"
font-family="Arial" font-size="12" font-weight="400" font-style="normal" 
>
<path vector-effect="none" fill-rule="evenodd" d="M1086.99,1198.46 L1086.77,1196 L1086.13,1193.85 L1085.08,1192.05 L1083.6,1190.57 L1081.7,1189.41 L1079.38,1188.58 L1076.67,1188.08 L1073.52,1187.92 L1064.03,1187.92 L1064.03,1223.77 L1068.54,1223.77 L1068.54,1209.82 L1072.66,1209.82 L1075.88,1209.64 L1078.7,1209.11 L1081.16,1208.19 L1083.23,1206.9 L1084.86,1205.27 L1086.03,1203.32 L1086.75,1201.05 L1086.99,1198.46 M1068.54,1205.94 L1068.54,1191.77 L1073.11,1191.77 L1075.31,1191.88 L1077.2,1192.21 L1078.79,1192.74 L1080.07,1193.48 L1081.04,1194.45 L1081.74,1195.64 L1082.16,1197.05 L1082.3,1198.66 L1082.15,1200.44 L1081.69,1201.97 L1080.93,1203.24 L1079.9,1204.23 L1078.51,1204.98 L1076.76,1205.53 L1074.64,1205.84 L1072.15,1205.94 L1068.54,1205.94"/>
</g>

<g fill="#000000" fill-opacity="1" stroke="none" transform="matrix(1,0,0,1,0,0)"
font-family="Arial" font-size="12" font-weight="400" font-style="normal" 
>
<path vector-effect="none" fill-rule="evenodd" d="M1123.13,1205.5 L1123.06,1203.46 L1122.84,1201.55 L1122.47,1199.75 L1121.96,1198.07 L1121.31,1196.51 L1120.51,1195.07 L1119.56,1193.74 L1118.47,1192.53 L1117.25,1191.45 L1115.91,1190.51 L1114.45,1189.72 L1112.88,1189.07 L1111.19,1188.57 L1109.39,1188.21 L1107.48,1187.99 L1105.45,1187.92 L1094.42,1187.92 L1094.42,1223.77 L1104.4,1223.77 L1106.59,1223.7 L1108.65,1223.48 L1110.59,1223.12 L1112.39,1222.62 L1114.06,1221.96 L1115.59,1221.15 L1117,1220.19 L1118.28,1219.09 L1119.41,1217.84 L1120.4,1216.47 L1121.23,1214.98 L1121.91,1213.35 L1122.44,1211.58 L1122.83,1209.68 L1123.06,1207.66 L1123.13,1205.5 M1118.38,1205.65 L1118.32,1207.38 L1118.14,1209 L1117.85,1210.51 L1117.44,1211.9 L1116.93,1213.18 L1116.31,1214.35 L1115.57,1215.4 L1114.72,1216.34 L1113.76,1217.18 L1112.67,1217.9 L1111.48,1218.51 L1110.16,1219.01 L1108.74,1219.4 L1107.21,1219.67 L1105.57,1219.84 L1103.81,1219.9 L1098.93,1219.9 L1098.93,1191.77 L1104.81,1191.77 L1106.46,1191.82 L1108,1191.99 L1109.43,1192.26 L1110.75,1192.65 L1111.97,1193.15 L1113.08,1193.75 L1114.09,1194.47 L1114.99,1195.3 L1115.78,1196.23 L1116.47,1197.27 L1117.05,1198.4 L1117.52,1199.64 L1117.89,1200.99 L1118.16,1202.44 L1118.32,1203.99 L1118.38,1205.65"/>
</g>

<g fill="#000000" fill-opacity="1" stroke="#000000" stroke-opacity="1" stroke-width="1" stroke-linecap="round" stroke-linejoin="bevel" transform="matrix(1,0,0,1,0,0)"
font-family="Arial" font-size="12" font-weight="400" font-style="normal" 
>
</g>

<g fill="#000000" fill-opacity="1" stroke="none" transform="matrix(1,0,0,1,0,0)"
font-family="Arial" font-size="12" font-weight="400" font-style="normal" 
>
<path vector-effect="none" fill-rule="evenodd" d="M1144.37,1187.92 L1140.05,1187.92 L1126.69,1223.77 L1131.03,1223.77 L1144.37,1187.92"/>
</g>

<g fill="#000000" fill-opacity="1" stroke="#000000" stroke-opacity="1" stroke-width="1" stroke-linecap="round" stroke-linejoin="bevel" transform="matrix(1,0,0,1,0,0)"
font-family="Arial" font-size="12" font-weight="400" font-style="normal" 
>
</g>

<g fill="#000000" fill-opacity="1" stroke="none" transform="matrix(1,0,0,1,0,0)"
font-family="Arial" font-size="12" font-weight="400" font-style="normal" 
>
<path vector-effect="none" fill-rule="evenodd" d="M1171,1223.77 L1171,1219.75 L1152.88,1219.75 L1152.88,1219.55 L1160.36,1212.17 L1162.24,1210.3 L1163.82,1208.65 L1165.12,1207.2 L1166.12,1205.97 L1167.62,1203.71 L1168.7,1201.5 L1169.34,1199.26 L1169.56,1196.94 L1169.37,1194.85 L1168.82,1192.99 L1167.9,1191.37 L1166.61,1189.98 L1165.01,1188.86 L1163.15,1188.06 L1161.06,1187.57 L1158.69,1187.4 L1155.76,1187.67 L1152.95,1188.46 L1150.27,1189.78 L1147.71,1191.62 L1150.06,1194.59 L1151.27,1193.69 L1152.41,1192.95 L1153.48,1192.36 L1154.5,1191.91 L1156.54,1191.36 L1158.69,1191.18 L1160.08,1191.28 L1161.32,1191.6 L1162.39,1192.09 L1163.33,1192.77 L1164.06,1193.66 L1164.58,1194.69 L1164.91,1195.87 L1165.02,1197.21 L1164.85,1199.13 L1164.33,1200.91 L1163.49,1202.66 L1162.3,1204.47 L1161.43,1205.54 L1160.21,1206.92 L1158.62,1208.61 L1156.68,1210.6 L1147.29,1220.09 L1147.29,1223.77 L1171,1223.77"/>
</g>

<g fill="#000000" fill-opacity="1" stroke="#000000" stroke-opacity="1" stroke-width="1" stroke-linecap="round" stroke-linejoin="bevel" transform="matrix(1,0,0,1,0,0)"
font-family="Arial" font-size="12" font-weight="400" font-style="normal" 
>
</g>

<g fill="#000000" fill-opacity="1" stroke="none" transform="matrix(1,0,0,1,0,0)"
font-family="Arial" font-size="12" font-weight="400" font-style="normal" 
>
<path vector-effect="none" fill-rule="evenodd" d="M1060.17,1269.33 L1067.31,1269.33 L1075.99,1284.14 L1081.26,1284.14 L1071.43,1268.08 L1073.1,1267.39 L1074.54,1266.56 L1075.78,1265.57 L1076.8,1264.45 L1077.59,1263.17 L1078.15,1261.75 L1078.49,1260.18 L1078.61,1258.46 L1078.41,1256.08 L1077.8,1254.02 L1076.8,1252.27 L1075.4,1250.84 L1073.58,1249.72 L1071.33,1248.92 L1068.65,1248.44 L1065.54,1248.29 L1055.66,1248.29 L1055.66,1284.14 L1060.17,1284.14 L1060.17,1269.33 M1060.17,1265.5 L1060.17,1252.18 L1065.3,1252.18 L1067.42,1252.28 L1069.22,1252.58 L1070.71,1253.07 L1071.89,1253.75 L1072.77,1254.65 L1073.41,1255.76 L1073.8,1257.11 L1073.93,1258.68 L1073.8,1260.27 L1073.41,1261.65 L1072.79,1262.82 L1071.92,1263.78 L1070.76,1264.54 L1069.32,1265.08 L1067.58,1265.4 L1065.54,1265.5 L1060.17,1265.5"/>
</g>

<g fill="#000000" fill-opacity="1" stroke="#000000" stroke-opacity="1" stroke-width="1" stroke-linecap="round" stroke-linejoin="bevel" transform="matrix(1,0,0,1,0,0)"
font-family="Arial" font-size="12" font-weight="400" font-style="normal" 
>
</g>

<g fill="#000000" fill-opacity="1" stroke="none" transform="matrix(1,0,0,1,0,0)"
font-family="Arial" font-size="12" font-weight="400" font-style="normal" 
>
<path vector-effect="none" fill-rule="evenodd" d="M1106.79,1256.67 L1106.6,1254.72 L1106.05,1252.99 L1105.13,1251.48 L1103.85,1250.17 L1102.23,1249.13 L1100.34,1248.38 L1098.16,1247.92 L1095.68,1247.77 L1092.53,1248.02 L1089.55,1248.78 L1086.84,1249.95 L1084.47,1251.5 L1086.68,1254.51 L1087.95,1253.72 L1089.15,1253.07 L1090.27,1252.55 L1091.31,1252.16 L1093.44,1251.66 L1095.73,1251.5 L1097.17,1251.59 L1098.45,1251.87 L1099.57,1252.32 L1100.51,1252.94 L1101.26,1253.75 L1101.81,1254.69 L1102.14,1255.76 L1102.25,1256.97 L1102.1,1258.47 L1101.64,1259.81 L1100.9,1260.98 L1099.87,1261.97 L1098.56,1262.76 L1097.03,1263.32 L1095.27,1263.65 L1093.28,1263.76 L1089.74,1263.76 L1089.74,1267.51 L1093.23,1267.51 L1095.57,1267.62 L1097.59,1267.93 L1099.32,1268.42 L1100.73,1269.11 L1101.83,1269.99 L1102.62,1271.09 L1103.1,1272.37 L1103.26,1273.84 L1103.11,1275.51 L1102.67,1276.95 L1101.96,1278.17 L1100.98,1279.16 L1099.7,1279.93 L1098.13,1280.48 L1096.3,1280.82 L1094.18,1280.93 L1091.71,1280.77 L1089.16,1280.31 L1086.64,1279.57 L1084.28,1278.57 L1084.28,1282.69 L1086.54,1283.62 L1088.89,1284.21 L1091.4,1284.52 L1094.13,1284.63 L1097.25,1284.46 L1100,1283.94 L1102.36,1283.08 L1104.34,1281.86 L1105.88,1280.32 L1106.98,1278.5 L1107.66,1276.36 L1107.89,1273.94 L1107.76,1272.26 L1107.35,1270.75 L1106.68,1269.39 L1105.76,1268.2 L1104.56,1267.2 L1103.09,1266.41 L1101.36,1265.83 L1099.36,1265.45 L1099.36,1265.26 L1101.04,1264.8 L1102.52,1264.15 L1103.79,1263.32 L1104.85,1262.31 L1105.69,1261.14 L1106.3,1259.81 L1106.67,1258.32 L1106.79,1256.67"/>
</g>

<g fill="#000000" fill-opacity="1" stroke="#000000" stroke-opacity="1" stroke-width="1" stroke-linecap="round" stroke-linejoin="bevel" transform="matrix(1,0,0,1,0,0)"
font-family="Arial" font-size="12" font-weight="400" font-style="normal" 
>
</g>

<g fill="#000000" fill-opacity="1" stroke="none" transform="matrix(1,0,0,1,0,0)"
font-family="Arial" font-size="12" font-weight="400" font-style="normal" 
>
<path vector-effect="none" fill-rule="evenodd" d="M1114.34,1281.42 L1114.54,1282.86 L1114.79,1283.45 L1115.15,1283.94 L1115.59,1284.35 L1116.11,1284.63 L1117.41,1284.85 L1118.73,1284.63 L1119.28,1284.35 L1119.74,1283.94 L1120.35,1282.86 L1120.57,1281.42 L1120.52,1280.66 L1120.35,1279.99 L1119.74,1278.94 L1118.73,1278.28 L1117.41,1278.06 L1116.08,1278.28 L1115.13,1278.94 L1114.54,1279.99 L1114.34,1281.42"/>
</g>

<g fill="#000000" fill-opacity="1" stroke="#000000" stroke-opacity="1" stroke-width="1" stroke-linecap="round" stroke-linejoin="bevel" transform="matrix(1,0,0,1,0,0)"
font-family="Arial" font-size="12" font-weight="400" font-style="normal" 
>
</g>

<g fill="#000000" fill-opacity="1" stroke="none" transform="matrix(1,0,0,1,0,0)"
font-family="Arial" font-size="12" font-weight="400" font-style="normal" 
>
<path vector-effect="none" fill-rule="evenodd" d="M1142.03,1284.14 L1142.03,1248.29 L1138.37,1248.29 L1128.66,1255.81 L1130.97,1258.78 L1133.82,1256.44 L1136.44,1254.27 L1137.91,1252.9 L1137.76,1255.86 L1137.71,1259.08 L1137.71,1284.14 L1142.03,1284.14"/>
</g>

<g fill="#000000" fill-opacity="1" stroke="#000000" stroke-opacity="1" stroke-width="1" stroke-linecap="round" stroke-linejoin="bevel" transform="matrix(1,0,0,1,0,0)"
font-family="Arial" font-size="12" font-weight="400" font-style="normal" 
>
</g>

<g fill="#000000" fill-opacity="1" stroke="none" transform="matrix(1,0,0,1,0,0)"
font-family="Arial" font-size="12" font-weight="400" font-style="normal" 
>
<path vector-effect="none" fill-rule="evenodd" d="M1167.24,1247.77 L1164.93,1247.92 L1162.85,1248.36 L1161.03,1249.09 L1159.44,1250.1 L1158.15,1251.36 L1157.23,1252.82 L1156.7,1254.47 L1156.52,1256.3 L1156.61,1257.67 L1156.89,1258.95 L1157.35,1260.15 L1157.99,1261.28 L1158.84,1262.37 L1159.93,1263.42 L1161.25,1264.43 L1162.8,1265.4 L1161.05,1266.31 L1159.54,1267.31 L1158.26,1268.39 L1157.21,1269.55 L1156.39,1270.79 L1155.81,1272.1 L1155.48,1273.51 L1155.37,1274.99 L1155.56,1277.19 L1156.15,1279.11 L1157.13,1280.75 L1158.51,1282.13 L1160.24,1283.22 L1162.28,1284.02 L1164.68,1284.48 L1167.38,1284.63 L1169.95,1284.46 L1172.24,1283.97 L1174.24,1283.14 L1175.97,1281.98 L1177.34,1280.54 L1178.32,1278.87 L1178.93,1276.97 L1179.13,1274.84 L1179.02,1273.4 L1178.67,1272.05 L1178.09,1270.77 L1177.29,1269.57 L1176.23,1268.43 L1174.85,1267.32 L1173.15,1266.22 L1171.14,1265.16 L1172.8,1264.22 L1174.23,1263.24 L1175.4,1262.23 L1176.34,1261.18 L1177.05,1260.09 L1177.56,1258.93 L1177.87,1257.67 L1177.98,1256.35 L1177.8,1254.45 L1177.24,1252.77 L1176.33,1251.31 L1175.06,1250.05 L1173.47,1249.06 L1171.63,1248.36 L1169.56,1247.92 L1167.24,1247.77 M1159.68,1275.04 L1159.78,1273.81 L1160.08,1272.66 L1160.59,1271.58 L1161.3,1270.6 L1162.23,1269.69 L1163.41,1268.82 L1164.82,1268 L1166.48,1267.22 L1168.57,1268.05 L1170.34,1268.91 L1171.78,1269.79 L1172.9,1270.7 L1173.74,1271.66 L1174.33,1272.69 L1174.69,1273.75 L1174.82,1274.89 L1174.69,1276.28 L1174.3,1277.52 L1173.68,1278.57 L1172.8,1279.48 L1171.7,1280.21 L1170.4,1280.73 L1168.94,1281.02 L1167.29,1281.12 L1165.59,1281.02 L1164.1,1280.73 L1162.8,1280.21 L1161.7,1279.5 L1160.81,1278.62 L1160.18,1277.59 L1159.81,1276.39 L1159.68,1275.04 M1167.19,1251.35 L1168.58,1251.44 L1169.81,1251.69 L1170.92,1252.12 L1171.87,1252.72 L1172.63,1253.48 L1173.17,1254.37 L1173.5,1255.37 L1173.61,1256.53 L1173.52,1257.59 L1173.25,1258.59 L1172.81,1259.51 L1172.19,1260.38 L1171.37,1261.19 L1170.3,1261.98 L1168.99,1262.72 L1167.43,1263.44 L1166.15,1262.88 L1165.06,1262.34 L1164.16,1261.84 L1163.44,1261.36 L1162.33,1260.36 L1161.52,1259.25 L1161.03,1257.98 L1160.86,1256.53 L1160.97,1255.38 L1161.28,1254.37 L1161.82,1253.48 L1162.58,1252.72 L1163.51,1252.12 L1164.59,1251.69 L1165.82,1251.44 L1167.19,1251.35"/>
</g>

<g fill="#000000" fill-opacity="1" stroke="#000000" stroke-opacity="1" stroke-width="3" stroke-linecap="round" stroke-linejoin="bevel" transform="matrix(1,0,0,1,0,0)"
font-family="Arial" font-size="12" font-weight="400" font-style="normal" 
>
</g>

<g fill="#000000" fill-opacity="1" stroke="none" transform="matrix(1,0,0,1,0,0)"
font-family="Arial" font-size="12" font-weight="400" font-style="normal" 
>
<path vector-effect="none" fill-rule="evenodd" d="M857.421,663.999 L844.04,610.914 L873.914,656.79 L857.421,663.999"/>
</g>

<g fill="#000000" fill-opacity="1" stroke="#000000" stroke-opacity="1" stroke-width="3" stroke-linecap="round" stroke-linejoin="bevel" transform="matrix(1,0,0,1,0,0)"
font-family="Arial" font-size="12" font-weight="400" font-style="normal" 
>
</g>

<g fill="#000000" fill-opacity="1" stroke="#000000" stroke-opacity="1" stroke-width="2" stroke-linecap="round" stroke-linejoin="bevel" transform="matrix(1,0,0,1,0,0)"
font-family="Arial" font-size="12" font-weight="400" font-style="normal" 
>
<polyline fill="none" vector-effect="none" points="1223.62,491.002 1182.28,499.864 1141.15,509.653 1100.24,520.364 1059.59,531.993 1019.22,544.534 979.13,557.979 939.356,572.322 899.915,587.556 860.827,603.674 822.111,620.667 " />
<polyline fill="none" vector-effect="none" points="1366.23,508.228 1355.82,422.491 " />
<polyline fill="none" vector-effect="none" points="1596.92,504.567 1596.92,408.667 " />
</g>

<g fill="#000000" fill-opacity="1" stroke="#000000" stroke-opacity="1" stroke-width="3" stroke-linecap="round" stroke-linejoin="bevel" transform="matrix(1,0,0,1,0,0)"
font-family="Arial" font-size="12" font-weight="400" font-style="normal" 
>
<polyline fill="none" vector-effect="none" points="1207.63,292.227 1207.62,291.365 1207.59,290.503 1207.54,289.642 1207.46,288.783 1207.37,287.926 1207.25,287.071 1207.11,286.219 1206.96,285.371 1206.78,284.528 1206.58,283.688 1206.36,282.854 1206.12,282.026 1205.86,281.204 1205.58,280.388 1205.28,279.58 1204.96,278.779 1204.62,277.986 1204.26,277.202 1203.88,276.427 1203.48,275.661 1203.07,274.906 1202.63,274.16 1202.18,273.426 1201.71,272.703 1201.22,271.992 1200.71,271.293 1200.19,270.606 1199.65,269.933 1199.1,269.273 1198.53,268.627 1197.94,267.995 1197.34,267.378 1196.72,266.775 1196.09,266.188 1195.44,265.617 1194.78,265.062 1194.11,264.523 1193.42,264 1192.72,263.495 1192.01,263.007 1191.29,262.537 1190.55,262.084 1189.81,261.65 1189.05,261.234 1188.29,260.837 1187.51,260.459 1186.73,260.1 1185.94,259.76 1185.14,259.439 1184.33,259.139 1183.51,258.858 1182.69,258.598 1181.86,258.358 1181.03,258.138 1180.19,257.939 1179.34,257.76 1178.5,257.602 1177.64,257.465 1176.79,257.349 1175.93,257.254 1175.07,257.18 1174.21,257.127 1173.35,257.095 1172.49,257.085 1171.63,257.095 1170.76,257.127 1169.9,257.18 1169.04,257.254 1168.19,257.349 1167.33,257.465 1166.48,257.602 1165.63,257.76 1164.79,257.939 1163.95,258.138 1163.11,258.358 1162.29,258.598 1161.46,258.858 1160.65,259.139 1159.84,259.439 1159.04,259.76 1158.25,260.1 1157.46,260.459 1156.69,260.837 1155.92,261.234 1155.17,261.65 1154.42,262.084 1153.69,262.537 1152.96,263.007 1152.25,263.495 1151.55,264 1150.87,264.523 1150.19,265.062 1149.53,265.617 1148.89,266.188 1148.26,266.775 1147.64,267.378 1147.04,267.995 1146.45,268.627 1145.88,269.273 1145.32,269.933 1144.78,270.606 1144.26,271.293 1143.76,271.992 1143.27,272.703 1142.8,273.426 1142.34,274.16 1141.91,274.906 1141.49,275.661 1141.1,276.427 1140.72,277.202 1140.36,277.986 1140.02,278.779 1139.7,279.58 1139.4,280.388 1139.12,281.204 1138.86,282.026 1138.62,282.854 1138.4,283.688 1138.2,284.528 1138.02,285.371 1137.86,286.219 1137.73,287.071 1137.61,287.926 1137.51,288.783 1137.44,289.642 1137.39,290.503 1137.36,291.365 1137.34,292.227 " />
</g>

<g fill="#000000" fill-opacity="1" stroke="none" transform="matrix(1,0,0,1,0,0)"
font-family="Arial" font-size="12" font-weight="400" font-style="normal" 
>
<path vector-effect="none" fill-rule="evenodd" d="M1230.04,264.86 L1228.67,264.922 L1227.4,265.111 L1226.22,265.425 L1225.13,265.865 L1224.13,266.441 L1223.22,267.14 L1222.41,267.943 L1221.7,268.881 L1221.45,268.881 L1221.7,263.339 L1221.7,254.069 L1217.29,254.069 L1217.29,292.227 L1220.45,292.227 L1220.56,291.84 L1220.75,291.142 L1221.01,290.135 L1221.36,288.819 L1221.7,288.819 L1222.42,289.738 L1223.24,290.535 L1224.16,291.191 L1225.18,291.737 L1227.46,292.473 L1230.04,292.718 L1232.5,292.491 L1234.67,291.811 L1236.59,290.676 L1238.2,289.089 L1239.49,287.084 L1240.41,284.699 L1240.96,281.915 L1241.15,278.764 L1240.96,275.662 L1240.41,272.928 L1239.52,270.555 L1238.25,268.538 L1236.65,266.932 L1234.75,265.792 L1232.54,265.093 L1230.04,264.86 M1229.3,268.514 L1231.02,268.673 L1232.51,269.151 L1233.77,269.948 L1234.8,271.064 L1235.57,272.499 L1236.12,274.252 L1236.47,276.324 L1236.59,278.715 L1236.47,281.088 L1236.12,283.154 L1235.57,284.938 L1234.8,286.415 L1233.79,287.593 L1232.56,288.402 L1231.1,288.898 L1229.4,289.064 L1227.49,288.917 L1225.87,288.475 L1224.52,287.74 L1223.49,286.71 L1222.7,285.33 L1222.14,283.546 L1221.81,281.382 L1221.7,278.813 L1221.7,278.617 L1221.81,276.073 L1222.14,273.933 L1222.69,272.174 L1223.47,270.819 L1224.47,269.813 L1225.8,269.102 L1227.41,268.661 L1229.3,268.514"/>
</g>

<g fill="#000000" fill-opacity="1" stroke="none" transform="matrix(1,0,0,1,0,0)"
font-family="Arial" font-size="12" font-weight="400" font-style="normal" 
>
<path vector-effect="none" fill-rule="evenodd" d="M1197.52,334.669 L1197.47,332.48 L1197.32,330.426 L1197.08,328.507 L1196.74,326.723 L1196.31,325.074 L1195.79,323.56 L1195.17,322.18 L1194.45,320.936 L1193.65,319.832 L1192.76,318.876 L1191.77,318.067 L1190.7,317.405 L1189.55,316.89 L1188.32,316.522 L1186.99,316.301 L1185.58,316.227 L1184.11,316.3 L1182.74,316.516 L1181.47,316.876 L1180.3,317.38 L1179.23,318.018 L1178.24,318.802 L1177.37,319.71 L1176.6,320.764 L1175.92,321.98 L1175.33,323.345 L1174.83,324.861 L1174.42,326.527 L1174.11,328.333 L1173.89,330.292 L1173.75,332.404 L1173.71,334.669 L1173.75,336.87 L1173.89,338.936 L1174.12,340.867 L1174.44,342.663 L1174.87,344.313 L1175.39,345.827 L1176.01,347.206 L1176.72,348.451 L1177.52,349.554 L1178.4,350.511 L1179.37,351.32 L1180.43,351.982 L1181.59,352.486 L1182.83,352.847 L1184.16,353.063 L1185.58,353.135 L1187.04,353.064 L1188.4,352.853 L1189.66,352.5 L1190.83,352.007 L1191.9,351.369 L1192.89,350.584 L1193.77,349.653 L1194.55,348.574 L1195.24,347.36 L1195.84,345.999 L1196.35,344.49 L1196.76,342.835 L1197.09,341.019 L1197.33,339.052 L1197.47,336.936 L1197.52,334.669 M1178.15,334.669 L1178.26,331.082 L1178.58,328.023 L1179.13,325.491 L1179.89,323.486 L1180.89,321.966 L1182.19,320.887 L1183.74,320.225 L1185.58,320.004 L1187.39,320.249 L1188.96,320.911 L1190.24,322.015 L1191.27,323.56 L1192.05,325.588 L1192.61,328.115 L1192.94,331.142 L1193.06,334.669 L1192.94,338.228 L1192.61,341.278 L1192.05,343.819 L1191.27,345.851 L1190.24,347.396 L1188.96,348.5 L1187.39,349.162 L1185.58,349.383 L1183.76,349.187 L1182.22,348.524 L1180.92,347.445 L1179.91,345.925 L1179.5,344.993 L1179.14,343.925 L1178.84,342.721 L1178.59,341.382 L1178.4,339.907 L1178.26,338.297 L1178.17,336.551 L1178.15,334.669"/>
</g>

<g fill="#000000" fill-opacity="1" stroke="#000000" stroke-opacity="1" stroke-width="1" stroke-linecap="round" stroke-linejoin="bevel" transform="matrix(1,0,0,1,0,0)"
font-family="Arial" font-size="12" font-weight="400" font-style="normal" 
>
</g>

<g fill="#000000" fill-opacity="1" stroke="none" transform="matrix(1,0,0,1,0,0)"
font-family="Arial" font-size="12" font-weight="400" font-style="normal" 
>
<path vector-effect="none" fill-rule="evenodd" d="M1203.58,349.922 L1203.77,351.369 L1204.02,351.958 L1204.39,352.448 L1204.82,352.853 L1205.34,353.135 L1206.64,353.356 L1207.97,353.135 L1208.51,352.853 L1208.97,352.448 L1209.59,351.369 L1209.81,349.922 L1209.75,349.162 L1209.59,348.5 L1208.97,347.445 L1207.97,346.783 L1206.64,346.563 L1205.32,346.783 L1204.36,347.445 L1203.77,348.5 L1203.58,349.922"/>
</g>

<g fill="#000000" fill-opacity="1" stroke="#000000" stroke-opacity="1" stroke-width="1" stroke-linecap="round" stroke-linejoin="bevel" transform="matrix(1,0,0,1,0,0)"
font-family="Arial" font-size="12" font-weight="400" font-style="normal" 
>
</g>

<g fill="#000000" fill-opacity="1" stroke="none" transform="matrix(1,0,0,1,0,0)"
font-family="Arial" font-size="12" font-weight="400" font-style="normal" 
>
<path vector-effect="none" fill-rule="evenodd" d="M1241.15,344.503 L1241.15,340.53 L1235.95,340.53 L1235.95,316.595 L1231.36,316.595 L1214.49,340.751 L1214.49,344.503 L1231.66,344.503 L1231.66,352.644 L1235.95,352.644 L1235.95,344.503 L1241.15,344.503 M1231.66,340.53 L1218.81,340.53 L1229.55,325.227 L1230.12,324.357 L1230.75,323.217 L1231.33,322.101 L1231.71,321.304 L1231.93,321.304 L1231.81,323.52 L1231.72,325.583 L1231.67,327.493 L1231.66,329.249 L1231.66,340.53"/>
</g>

<g fill="#000000" fill-opacity="1" stroke="#000000" stroke-opacity="1" stroke-width="3" stroke-linecap="round" stroke-linejoin="bevel" transform="matrix(1,0,0,1,0,0)"
font-family="Arial" font-size="12" font-weight="400" font-style="normal" 
>
</g>

<g fill="#000000" fill-opacity="1" stroke="none" transform="matrix(1,0,0,1,0,0)"
font-family="Arial" font-size="12" font-weight="400" font-style="normal" 
>
<path vector-effect="none" fill-rule="evenodd" d="M1446.6,413.055 L1478.87,457.277 L1434,425.912 L1446.6,413.055"/>
</g>

<g fill="#000000" fill-opacity="1" stroke="#000000" stroke-opacity="1" stroke-width="3" stroke-linecap="round" stroke-linejoin="bevel" transform="matrix(1,0,0,1,0,0)"
font-family="Arial" font-size="12" font-weight="400" font-style="normal" 
>
<polyline fill="none" vector-effect="none" points="1478.87,457.277 1322.15,303.712 1268.15,303.712 " />
</g>

<g fill="#000000" fill-opacity="1" stroke="#000000" stroke-opacity="1" stroke-width="2" stroke-linecap="round" stroke-linejoin="bevel" transform="matrix(1,0,0,1,0,0)"
font-family="Arial" font-size="12" font-weight="400" font-style="normal" 
>
<polyline fill="none" vector-effect="none" points="1385.17,561.928 1491.69,394.359 " />
<polyline fill="none" vector-effect="none" points="1883.56,878.721 1990.08,711.153 " />
<polyline fill="none" vector-effect="none" points="1524.39,443.582 1581.1,479.629 " />
<polyline fill="none" vector-effect="none" points="1612.74,499.745 1645.25,520.405 " />
<polyline fill="none" vector-effect="none" points="1931.63,702.44 1788.19,611.266 " />
</g>

<g fill="#000000" fill-opacity="1" stroke="#000000" stroke-opacity="1" stroke-width="3" stroke-linecap="round" stroke-linejoin="bevel" transform="matrix(1,0,0,1,0,0)"
font-family="Arial" font-size="12" font-weight="400" font-style="normal" 
>
</g>

<g fill="#000000" fill-opacity="1" stroke="none" transform="matrix(1,0,0,1,0,0)"
font-family="Arial" font-size="12" font-weight="400" font-style="normal" 
>
<path vector-effect="none" fill-rule="evenodd" d="M1519.56,451.177 L1478.81,414.614 L1529.21,435.986 L1519.56,451.177"/>
</g>

<g fill="#000000" fill-opacity="1" stroke="#000000" stroke-opacity="1" stroke-width="3" stroke-linecap="round" stroke-linejoin="bevel" transform="matrix(1,0,0,1,0,0)"
font-family="Arial" font-size="12" font-weight="400" font-style="normal" 
>
</g>

<g fill="#000000" fill-opacity="1" stroke="none" transform="matrix(1,0,0,1,0,0)"
font-family="Arial" font-size="12" font-weight="400" font-style="normal" 
>
<path vector-effect="none" fill-rule="evenodd" d="M1936.46,694.844 L1977.2,731.407 L1926.8,710.035 L1936.46,694.844"/>
</g>

<g fill="#000000" fill-opacity="1" stroke="#000000" stroke-opacity="1" stroke-width="3" stroke-linecap="round" stroke-linejoin="bevel" transform="matrix(1,0,0,1,0,0)"
font-family="Arial" font-size="12" font-weight="400" font-style="normal" 
>
</g>

<g fill="#000000" fill-opacity="1" stroke="none" transform="matrix(1,0,0,1,0,0)"
font-family="Arial" font-size="12" font-weight="400" font-style="normal" 
>
<path vector-effect="none" fill-rule="evenodd" d="M1676.76,539.024 L1683.9,539.024 L1692.58,553.836 L1697.85,553.836 L1688.02,537.773 L1689.69,537.087 L1691.13,536.253 L1692.37,535.272 L1693.39,534.144 L1694.18,532.869 L1694.73,531.446 L1695.08,529.877 L1695.2,528.16 L1695,525.775 L1694.39,523.721 L1693.39,521.968 L1691.99,520.533 L1690.17,519.418 L1687.92,518.621 L1685.24,518.142 L1682.13,517.983 L1672.25,517.983 L1672.25,553.836 L1676.76,553.836 L1676.76,539.024 M1676.76,535.198 L1676.76,521.882 L1681.88,521.882 L1684.01,521.98 L1685.81,522.275 L1687.3,522.765 L1688.48,523.452 L1689.36,524.347 L1690,525.463 L1690.39,526.805 L1690.52,528.381 L1690.39,529.969 L1690,531.348 L1689.38,532.519 L1688.51,533.482 L1687.35,534.236 L1685.91,534.781 L1684.17,535.094 L1682.13,535.198 L1676.76,535.198"/>
</g>

<g fill="#000000" fill-opacity="1" stroke="none" transform="matrix(1,0,0,1,0,0)"
font-family="Arial" font-size="12" font-weight="400" font-style="normal" 
>
<path vector-effect="none" fill-rule="evenodd" d="M1703.49,517.983 L1703.49,553.836 L1716.09,553.836 L1718.87,553.67 L1721.32,553.174 L1723.46,552.322 L1725.27,551.138 L1726.7,549.661 L1727.72,547.926 L1728.34,545.909 L1728.55,543.634 L1728.43,541.954 L1728.06,540.446 L1727.45,539.091 L1726.59,537.92 L1725.47,536.933 L1724.09,536.13 L1722.43,535.505 L1720.51,535.051 L1720.51,534.806 L1722.07,534.42 L1723.43,533.849 L1724.6,533.077 L1725.59,532.133 L1726.34,531.029 L1726.88,529.779 L1727.22,528.387 L1727.33,526.86 L1727.12,524.727 L1726.52,522.888 L1725.51,521.367 L1724.11,520.141 L1722.27,519.197 L1719.92,518.522 L1717.07,518.118 L1713.72,517.983 L1703.49,517.983 M1708,537.013 L1714.89,537.013 L1716.96,537.111 L1718.74,537.405 L1720.27,537.89 L1721.51,538.558 L1722.47,539.441 L1723.16,540.52 L1723.58,541.801 L1723.72,543.291 L1723.59,544.879 L1723.18,546.258 L1722.54,547.405 L1721.64,548.343 L1720.45,549.072 L1718.99,549.593 L1717.25,549.906 L1715.24,550.01 L1708,550.01 L1708,537.013 M1708,533.236 L1708,521.833 L1713.94,521.833 L1716.05,521.919 L1717.86,522.176 L1719.36,522.575 L1720.56,523.133 L1721.47,523.893 L1722.13,524.849 L1722.53,526.008 L1722.67,527.375 L1722.54,528.853 L1722.18,530.097 L1721.59,531.127 L1720.75,531.888 L1719.65,532.488 L1718.25,532.918 L1716.59,533.157 L1714.62,533.236 L1708,533.236"/>
</g>

<g fill="#000000" fill-opacity="1" stroke="#000000" stroke-opacity="1" stroke-width="1" stroke-linecap="round" stroke-linejoin="bevel" transform="matrix(1,0,0,1,0,0)"
font-family="Arial" font-size="12" font-weight="400" font-style="normal" 
>
</g>

<g fill="#000000" fill-opacity="1" stroke="none" transform="matrix(1,0,0,1,0,0)"
font-family="Arial" font-size="12" font-weight="400" font-style="normal" 
>
<path vector-effect="none" fill-rule="evenodd" d="M1751.48,521.441 L1753.43,521.563 L1755.44,521.931 L1757.51,522.544 L1759.62,523.403 L1761.44,519.577 L1759.24,518.654 L1756.85,517.995 L1754.28,517.6 L1751.53,517.468 L1748.97,517.609 L1746.58,518.032 L1744.36,518.737 L1742.31,519.724 L1740.46,520.975 L1738.85,522.471 L1737.49,524.187 L1736.35,526.149 L1735.46,528.319 L1734.82,530.661 L1734.44,533.175 L1734.32,535.86 L1734.38,538.006 L1734.58,540.029 L1734.91,541.93 L1735.37,543.708 L1735.98,545.349 L1736.71,546.865 L1737.58,548.255 L1738.58,549.52 L1739.71,550.646 L1740.95,551.623 L1742.31,552.449 L1743.78,553.125 L1745.36,553.65 L1747.06,554.026 L1748.87,554.251 L1750.79,554.326 L1753.38,554.247 L1755.65,554.008 L1757.8,553.578 L1760.04,552.879 L1760.04,548.956 L1757.71,549.578 L1755.5,550.022 L1753.41,550.289 L1751.43,550.378 L1748.63,550.145 L1746.16,549.446 L1745.06,548.92 L1744.05,548.275 L1743.13,547.51 L1742.29,546.626 L1740.87,544.542 L1739.86,542.065 L1739.27,539.189 L1739.07,535.909 L1739.28,532.728 L1739.88,529.901 L1740.92,527.431 L1742.38,525.315 L1743.24,524.408 L1744.19,523.623 L1745.21,522.961 L1746.31,522.422 L1747.49,521.993 L1748.74,521.686 L1750.07,521.502 L1751.48,521.441"/>
</g>

<g fill="#000000" fill-opacity="1" stroke="#000000" stroke-opacity="1" stroke-width="1" stroke-linecap="round" stroke-linejoin="bevel" transform="matrix(1,0,0,1,0,0)"
font-family="Arial" font-size="12" font-weight="400" font-style="normal" 
>
</g>

<g fill="#000000" fill-opacity="1" stroke="none" transform="matrix(1,0,0,1,0,0)"
font-family="Arial" font-size="12" font-weight="400" font-style="normal" 
>
<path vector-effect="none" fill-rule="evenodd" d="M1723.65,614.02 L1723.65,578.167 L1719.99,578.167 L1710.28,585.696 L1712.59,588.663 L1715.44,586.321 L1718.06,584.151 L1719.53,582.777 L1719.38,585.745 L1719.33,588.957 L1719.33,614.02 L1723.65,614.02"/>
</g>

<g fill="#000000" fill-opacity="1" stroke="#000000" stroke-opacity="1" stroke-width="1" stroke-linecap="round" stroke-linejoin="bevel" transform="matrix(1,0,0,1,0,0)"
font-family="Arial" font-size="12" font-weight="400" font-style="normal" 
>
</g>

<g fill="none" stroke="#000000" stroke-opacity="1" stroke-width="1" stroke-linecap="square" stroke-linejoin="bevel" transform="matrix(1,0,0,1,0,0)"
font-family="Arial" font-size="12" font-weight="400" font-style="normal" 
>
</g>
</g>
</svg>
